<svg id="Capa_1" enable-background="new 0 0 511.995 511.995" height="512" viewBox="0 0 511.995 511.995" width="512" xmlns="http://www.w3.org/2000/svg"><path d="m222.988 430.492h-160.733c-30.11 0-54.519-24.409-54.519-54.519v-174.1c0-30.11 24.409-54.519 54.519-54.519h160.733c30.11 0 54.519 24.409 54.519 54.519v174.1c0 30.11-24.409 54.519-54.519 54.519z" fill="#24d3b5"/><path d="m225.228 147.41c7.673 9.393 12.279 21.388 12.279 34.463v129.033c0 55-44.586 99.586-99.586 99.586h-115.666c-.751 0-1.496-.027-2.24-.057 9.998 12.239 25.204 20.057 42.24 20.057h160.733c30.11 0 54.519-24.409 54.519-54.519v-174.1c0-29.359-23.209-53.287-52.279-54.463z" fill="#20b7a1"/><path d="m222.988 147.353h-160.733l15.435-32.596c2.574-5.435 8.049-8.9 14.062-8.9h101.738c6.014 0 11.489 3.465 14.062 8.9z" fill="#fff5f5"/><path d="m207.553 114.757c-2.574-5.435-8.049-8.9-14.062-8.9h-20.682l2.49 5.258c3.573 7.545-1.93 16.239-10.278 16.239h-93.296l-9.47 20h160.733z" fill="#ebe1dc"/><circle cx="142.621" cy="54.975" fill="#d5f1fe" r="27.032"/><path d="m62.255 430.492-21.41 47.948c-1.177 2.637.752 5.612 3.64 5.612h35.256l14.421-53.56z" fill="#fff5f5"/><path d="m222.988 430.492h-31.907l14.421 53.56h35.256c2.888 0 4.817-2.975 3.64-5.612z" fill="#fff5f5"/><path d="m160.391 430.492 5.287 53.56h39.824l-14.421-53.56z" fill="#ebe1dc"/><path d="m94.162 430.492-14.421 53.56h39.823l5.288-53.56z" fill="#ebe1dc"/><path d="m124.852 430.492-5.288 53.56h46.114l-5.287-53.56z" fill="#fff5f5"/><circle cx="413.456" cy="279.592" fill="#d5f1fe" r="27.032"/><path d="m276.081 217.798h28.526v34.763h-28.526z" fill="#dcd2cd"/><path d="m330.073 217.798h71.951v34.763h-71.951z" fill="#dcd2cd"/><path d="m312.288 260.241h10.105c4.242 0 7.68-3.439 7.68-7.68v-34.763c0-4.242-3.439-7.68-7.68-7.68h-10.105c-4.242 0-7.68 3.439-7.68 7.68v34.763c0 4.241 3.438 7.68 7.68 7.68z" fill="#fff5f5"/><path d="m276.081 325.993h28.526v34.763h-28.526z" fill="#dcd2cd"/><path d="m440.425 267.786v55.041c0 1.749-1.418 3.166-3.166 3.166h-107.186v34.763h111.766c18.418 0 33.348-14.93 33.348-33.348v-59.622z" fill="#dcd2cd"/><path d="m312.288 368.436h10.105c4.242 0 7.68-3.439 7.68-7.68v-34.763c0-4.242-3.439-7.68-7.68-7.68h-10.105c-4.242 0-7.68 3.439-7.68 7.68v34.763c0 4.242 3.438 7.68 7.68 7.68z" fill="#fff5f5"/><path d="m475.187 202.572h-65.079c-4.465 0-8.084 3.62-8.084 8.084v44.433c3.472-1.623 7.346-2.529 11.432-2.529 10.696 0 19.941 6.212 24.324 15.226h37.407c4.465 0 8.084-3.62 8.084-8.084v-49.045c.001-4.465-3.619-8.085-8.084-8.085z" fill="#fff5f5"/><path d="m475.187 202.572h-21.916v37.129c0 4.465-3.62 8.084-8.084 8.084h-43.163v7.304c3.472-1.623 7.346-2.53 11.432-2.53 10.696 0 19.941 6.212 24.324 15.226h37.407c4.465 0 8.084-3.62 8.084-8.084v-49.045c.001-4.464-3.619-8.084-8.084-8.084z" fill="#ebe1dc"/><path d="m422.457 173.479h40.924v29.094h-40.924z" fill="#ff7c48"/><path d="m493.155 150.795h-70.699c-6.264 0-11.342 5.078-11.342 11.342s5.078 11.342 11.342 11.342h70.699c6.264 0 11.342-5.078 11.342-11.342s-5.077-11.342-11.342-11.342z" fill="#ff956a"/><path d="m147.689 60.279 4.709-4.709c2.929-2.929 2.929-7.678 0-10.606-2.93-2.929-7.678-2.929-10.607 0l-4.709 4.709c-2.929 2.929-2.929 7.678 0 10.606 2.93 2.929 7.678 2.929 10.607 0z"/><path d="m412.86 269.58-4.709 4.708c-2.93 2.929-2.93 7.678-.001 10.607 2.929 2.928 7.677 2.93 10.606 0l4.709-4.708c2.93-2.929 2.93-7.678.001-10.607-2.928-2.928-7.677-2.928-10.606 0z"/><path d="m493.153 143.295h-70.699c-10.39 0-18.842 8.453-18.842 18.842 0 7.724 4.676 14.37 11.342 17.276v15.66h-4.848c-8.473 0-15.374 6.799-15.567 15.226h-57.775c-2.617-4.58-7.54-7.68-13.182-7.68h-10.105c-5.642 0-10.564 3.1-13.181 7.68h-15.525v-8.425c0-32.566-25.235-59.33-57.175-61.812l-13.501-28.513c-3.795-8.013-11.976-13.19-20.841-13.19h-43.369v-9.68c15.445-3.435 27.031-17.237 27.031-33.702 0-19.041-15.49-34.532-34.531-34.532s-34.532 15.491-34.532 34.532c0 16.465 11.587 30.267 27.032 33.702v9.679h-43.368c-8.866 0-17.047 5.178-20.841 13.19l-13.501 28.512c-31.94 2.483-57.175 29.247-57.175 61.813v139.1c0 4.142 3.357 7.5 7.5 7.5s7.5-3.358 7.5-7.5v-139.1c0-25.927 21.093-47.02 47.02-47.02h103.825c4.143 0 7.5-3.358 7.5-7.5s-3.357-7.5-7.5-7.5h-91.976l10.363-21.886c1.326-2.8 4.186-4.61 7.284-4.61h101.738c3.099 0 5.958 1.81 7.284 4.61l10.363 21.886h-10.058c-4.143 0-7.5 3.358-7.5 7.5s3.357 7.5 7.5 7.5h21.884c.009 0 .019.002.028.002.008 0 .015-.001.023-.001 25.914.015 46.992 21.101 46.992 47.019v174.1c0 25.927-21.093 47.02-47.02 47.02h-160.73c-25.927 0-47.02-21.093-47.02-47.02 0-4.142-3.357-7.5-7.5-7.5s-7.5 3.358-7.5 7.5c0 30.404 21.999 55.75 50.91 61.003l-17.149 38.406c-1.594 3.568-1.276 7.656.851 10.934 2.126 3.279 5.729 5.236 9.637 5.236h196.273c3.908 0 7.511-1.958 9.637-5.236 2.127-3.278 2.444-7.366.852-10.934l-17.149-38.406c28.912-5.253 50.91-30.599 50.91-61.003v-7.716h15.525c2.616 4.58 7.539 7.68 13.181 7.68h10.105c5.642 0 10.565-3.1 13.182-7.68h64.044c4.143 0 7.5-3.358 7.5-7.5s-3.357-7.5-7.5-7.5h-62.045v-19.763h98.492c5.882 0 10.667-4.785 10.667-10.666 0-17.388 0-30.152 0-47.541h19.762v52.122c0 14.252-11.595 25.848-25.848 25.848h-6.028c-4.143 0-7.5 3.358-7.5 7.5s3.357 7.5 7.5 7.5h6.028c22.523 0 40.848-18.324 40.848-40.848v-54.053c4.814-2.655 8.085-7.778 8.085-13.654v-49.045c0-8.593-6.991-15.584-15.585-15.584h-4.307v-14.093h22.275c10.39 0 18.842-8.453 18.842-18.842 0-10.39-8.452-18.843-18.842-18.843zm-370.299-88.319c0-10.77 8.762-19.532 19.532-19.532s19.531 8.762 19.531 19.532-8.762 19.532-19.531 19.532c-10.771-.001-19.532-8.762-19.532-19.532zm62.243 383.016 4.343 16.128 6.04 22.432h-23.241l-1.85-18.733-1.957-19.827zm-70.715 19.827-1.85 18.733h-23.241l6.04-22.432 4.343-16.128h16.665zm-47.497-19.827h17.255l-6.04 22.432-4.343 16.128h-24.091zm60.72 38.56 1.957-19.827 1.85-18.733h21.946l1.85 18.733 1.957 19.827zm83.409 0-4.343-16.128-6.04-22.432h17.255l17.219 38.56zm221.909-198.213v2.506c-.651 10.186-9.121 18.279-19.469 18.279-10.771 0-19.532-8.762-19.532-19.532s8.762-19.532 19.532-19.532c10.347.001 18.817 8.094 19.469 18.279zm-38.402-33.278h-55.758v-19.763h55.758zm-81.043-27.443h10.105c.1 0 .181.081.181.18v34.763c0 .099-.081.18-.181.18h-10.105c-.099 0-.18-.081-.18-.18v-34.763c0-.099.081-.18.18-.18zm-15.18 7.68v19.763h-13.526v-19.763zm-13.527 108.195h13.526v19.763h-13.526zm38.812 27.443h-10.105c-.099 0-.18-.081-.18-.18v-34.763c0-.099.081-.18.18-.18h10.105c.1 0 .181.081.181.18v34.763c0 .099-.081.18-.181.18zm13.181-42.443c-2.616-4.58-7.539-7.68-13.181-7.68h-10.105c-5.641 0-10.564 3.1-13.18 7.68h-15.526v-58.433h15.525c2.616 4.58 7.539 7.68 13.181 7.68h10.105c5.642 0 10.565-3.1 13.182-7.68h48.232c-3.828 5.559-6.075 12.287-6.075 19.532 0 19.041 15.491 34.532 34.532 34.532 7.217 0 13.922-2.229 19.469-6.03v10.399zm139.005-107.836v49.045c0 .322-.263.584-.585.584h-33.113c-6.213-9.18-16.723-15.226-28.618-15.226-1.33 0-2.641.083-3.933.23v-34.634c0-.322.263-.584.585-.584h65.078c.324 0 .586.262.586.585zm-19.891-15.585h-25.924v-14.093h25.924zm37.275-29.093h-70.699c-2.118 0-3.842-1.724-3.842-3.842s1.724-3.842 3.842-3.842h70.699c2.118 0 3.842 1.724 3.842 3.842s-1.724 3.842-3.842 3.842z"/></svg>