<svg id="Layer_1" enable-background="new 0 0 512.09 512.09" viewBox="0 0 512.09 512.09" xmlns="http://www.w3.org/2000/svg"><g><g><path d="m0 206.159h512v60h-512z" fill="#cdd9dd"/><path d="m201 52.718v-30l26.796-8.932c16.335-5.445 33.204 6.713 33.204 23.932s-16.869 29.377-33.204 23.932z" fill="#cdd9dd"/><path d="m171 52.718v-30l-26.796-8.932c-16.335-5.445-33.204 6.713-33.204 23.932s16.869 29.377 33.204 23.932z" fill="#cdd9dd"/><path d="m50.5 191.159h30v90h-30z" fill="#fff"/><path d="m171 22.512v76.206h30v-76.206c0-8.284-6.716-15-15-15s-15 6.716-15 15z" fill="#fff"/><path d="m156 158.718h60v47.441h-60z" fill="#cdd9dd"/><path d="m141 143.718v-30c0-8.284 6.716-15 15-15h60c8.284 0 15 6.716 15 15v30c0 8.284-6.716 15-15 15h-60c-8.284 0-15-6.716-15-15z" fill="#cdd9dd"/><path d="m449.615 132.192h34.118l15.09 74.297-12.466 11.287v48.346h-39.367v-48.346l-12.466-11.287z" fill="#fff"/><path d="m486.357 291.725v-25.603h-39.367v25.603l-18.143 21.435v103.526c0 20.891 16.935 37.826 37.826 37.826 20.891 0 37.826-16.935 37.826-37.826v-103.526z" fill="#ffaa81"/><path d="m312.384 426.423c-.009 7.748 3.147 14.791 8.229 19.873 17.35 17.564 48.056 5.118 47.993-19.873l-.009-168.159c49.714-23.466 49.75-95.077 0-118.561l.009 49.866-56.231-.009v-49.857c-49.714 23.466-49.741 95.068.009 118.552z" fill="#fde31d"/><g fill="#94b7f7"><path d="m95.227 440.873c0 18.075-14.652 32.727-32.727 32.727s-32.727-14.652-32.727-32.727 32.727-57.273 32.727-57.273 32.727 39.198 32.727 57.273z"/><path d="m215.618 471.785c0 18.075-14.652 32.727-32.727 32.727s-32.727-14.652-32.727-32.727 32.727-57.273 32.727-57.273 32.727 39.198 32.727 57.273z"/><path d="m259.254 345.611c0 12.05-9.768 21.818-21.818 21.818s-21.818-9.768-21.818-21.818 21.818-38.182 21.818-38.182 21.818 26.132 21.818 38.182z"/><path d="m162.818 364.341c0 12.05-9.768 21.818-21.818 21.818s-21.818-9.768-21.818-21.818 21.818-38.182 21.818-38.182 21.818 26.132 21.818 38.182z"/></g><path d="m0 206.159h25v60h-25z" fill="#acbfc7"/><path d="m156 158.718h25v47.441h-25z" fill="#acbfc7"/><path d="m166 143.718v-30c0-8.284 6.716-15 15-15h-25c-8.284 0-15 6.716-15 15v30c0 8.284 6.716 15 15 15h25c-8.284 0-15-6.716-15-15z" fill="#acbfc7"/><path d="m54.773 440.873c0-10.472 10.986-28.034 20.227-40.956-6.709-9.381-12.5-16.317-12.5-16.317s-32.727 39.198-32.727 57.273 14.652 32.727 32.727 32.727c4.428 0 8.648-.884 12.5-2.478-11.872-4.911-20.227-16.602-20.227-30.249z" fill="#5b92f2"/><path d="m175.163 471.785c0-10.472 10.986-28.034 20.227-40.956-6.709-9.381-12.5-16.317-12.5-16.317s-32.727 39.198-32.727 57.273 14.653 32.727 32.727 32.727c4.428 0 8.648-.884 12.5-2.478-11.871-4.911-20.227-16.603-20.227-30.249z" fill="#5b92f2"/><path d="m312.375 258.256v-118.552c-49.714 23.466-49.741 95.068.009 118.552z" fill="#e7c900"/><path d="m466.357 266.122h-19.367v-48.346l-12.466-11.287 15.091-74.297h16.742z" fill="#e3e9ee"/><path d="m466.674 266.122h-19.683v25.603l-18.143 21.435v103.526c0 20.891 16.935 37.826 37.826 37.826z" fill="#ff905b"/></g><g><path d="m502.075 213.662h9.925v-15h-7.113l-15.024-73.97h-46.377l-15.024 73.97h-15.069c-.118-28.502-16.028-53.672-41.59-65.742l-10.705-5.054.012 54.205-41.23-.007-.01-54.195-10.7 5.052c-25.559 12.067-41.467 37.238-41.585 65.742h-44.085v-33.734c8.729-3.096 15-11.432 15-21.21v-30c0-12.407-10.093-22.5-22.5-22.5h-7.5v-28.095l16.924 5.641c35.66 11.291 59.422-35.258 29.484-57.597-8.637-6.224-19.384-7.865-29.484-4.497l-19.034 6.345c-8.031-17.254-32.758-17.244-40.782 0l-19.033-6.345c-10.101-3.366-20.847-1.727-29.485 4.498-29.903 22.378-6.248 68.854 29.485 57.596 0 0 16.924-5.641 16.924-5.641v28.094h-7.499c-12.407 0-22.5 10.093-22.5 22.5v30c0 9.778 6.271 18.114 15 21.21v33.734h-60.5v-15.003h-45v15.003h-43v15h43v45h-43v15h43v14.997h45v-14.997h216.88v33.77h15v-53.933c-42.154-16.22-50.488-73.031-15.007-100.479l.009 44.04 71.23.013-.01-44.049c35.494 27.471 27.129 84.27-15.003 100.484l.011 172.932c.024 10.06-6.596 16.375-12.798 18.93-6.209 2.559-15.347 2.76-22.399-4.382-3.891-3.89-6.033-9.063-6.033-14.566v-103.99h-15v103.99c0 9.51 3.703 18.45 10.394 25.139 21.993 22.564 61.226 6.083 60.837-25.14 0 0-.01-152.759-.01-152.759h63.39v15.313l-18.141 21.44v106.267c-.082 40.093 49.147 60.496 77.378 32.049 15.247-15.542 13.29-30.433 13.272-50.259h-15v18.21c0 8.093-3.156 15.711-8.88 21.443-18.889 19.033-51.828 5.384-51.77-21.443v-100.773l18.141-21.44v-20.847h24.37v20.847l18.14 21.44v67.563h15v-73.057l-18.14-21.44v-15.313h18.139v-15h-18.14v-.04h-.003v-37.519zm-338.575-47.444h45v32.441h-45zm66.668-145.317c11.166-3.981 23.578 4.964 23.332 16.817.244 11.852-12.165 20.798-23.333 16.816 0 0-21.667-7.222-21.667-7.222v-19.188zm-88.336 33.633c-11.168 3.98-23.577-4.963-23.332-16.817-.254-9.516 8.254-17.915 17.67-17.745 1.889 0 3.796.307 5.662.929l21.667 7.223v19.188zm36.668-32.022c.392-9.939 14.607-9.944 15 0v68.706h-15zm-30 91.206c0-4.136 3.364-7.5 7.5-7.5h60c4.136 0 7.5 3.364 7.5 7.5v30c0 4.136-3.364 7.5-7.5 7.5h-60c-4.136 0-7.5-3.364-7.5-7.5zm-75.5 159.941h-15v-75h15zm225.226-14.997h-210.226v-45h181.012c3.632 18.3 14.005 34.304 29.214 45zm113.737-45h19.309l8.218 7.441v37.559h-56.725c15.2-10.697 25.568-26.7 29.198-45zm42.527 44.96v-44.172l-11.766-10.653 13.021-64.104h21.857l13.021 64.104-11.766 10.653v44.172z"/><path d="m62.5 371.898c-9.461 11.877-38.37 43.98-40.228 68.974.001 22.182 18.047 40.228 40.228 40.228s40.227-18.046 40.227-40.228c-1.887-25.052-30.72-57.026-40.227-68.974zm0 94.202c-13.91 0-25.227-11.317-25.227-25.228 0-9.067 13.32-29.821 25.229-45.274 11.908 15.446 25.226 36.194 25.226 45.274-.001 13.911-11.318 25.228-25.228 25.228z"/><path d="m182.891 402.81c-9.462 11.877-38.37 43.98-40.228 68.975.001 22.181 18.047 40.227 40.228 40.227 22.182 0 40.228-18.046 40.228-40.227-1.888-25.053-30.721-57.027-40.228-68.975zm0 94.202c-13.91 0-25.227-11.317-25.227-25.227 0-9.067 13.319-29.819 25.227-45.273 11.908 15.454 25.228 36.206 25.228 45.273-.001 13.91-11.318 25.227-25.228 25.227z"/><path d="m237.436 295.726c-8.563 10.657-27.956 31.741-29.318 49.885.001 16.166 13.152 29.318 29.318 29.318s29.318-13.152 29.318-29.318c-1.378-18.175-20.73-39.189-29.318-49.885zm0 64.203c-7.895 0-14.318-6.423-14.318-14.318 0-4.606 6.691-15.829 14.318-26.062 7.627 10.234 14.318 21.456 14.318 26.062 0 7.895-6.423 14.318-14.318 14.318z"/><path d="m170.318 364.34c-1.38-18.177-20.729-39.188-29.318-49.884-8.581 10.688-27.932 31.691-29.319 49.884 1.608 38.89 57.031 38.889 58.637 0zm-29.318 14.319c-7.895 0-14.318-6.423-14.318-14.318 0-4.606 6.689-15.825 14.315-26.058 7.645 10.287 14.322 21.582 14.322 26.058-.001 7.894-6.424 14.318-14.319 14.318z"/></g><g fill="#fff"><path d="m459.174 343.817h15v15h-15z"/><path d="m459.174 373.817h15v15h-15z"/></g></g><g/><g/><g/><g/><g/><g/><g/><g/><g/><g/><g/><g/><g/><g/><g/></svg>