<svg id="Layer_1" enable-background="new 0 0 330.807 297.571" height="512" viewBox="0 0 330.807 297.571" width="512" xmlns="http://www.w3.org/2000/svg"><g><path d="m300.474 149.825v17.893h-.333c-1.1 0-2 .9-2 2 0 1.1.9 2 2 2h.333v14.5c0 6.065-4.935 11-11 11h-9.161v-.242c0-1.1-.9-2-2-2s-2 .9-2 2v.242h-56.371l7.236 8h49.135v.091c0 1.1.9 2 2 2s2-.9 2-2v-.091h9.161c10.477 0 19-8.523 19-19v-14.5c1.1 0 2-.9 2-2 0-1.1-.9-2-2-2v-18.2c-1.476.406-3.022.64-4.625.64-1.155 0-2.282-.119-3.375-.333z"/><path d="m203.453 252.895v-10.671l-13.149 28.444c7.603-2.332 13.149-9.416 13.149-17.773z"/><path d="m233.349 166.615c.995 0 2.006-.188 2.982-.58l19.053-7.665-2.995 9.006c-.681 2.052.428 4.27 2.481 4.953 2.052.681 4.269-.429 4.952-2.481l5.091-15.311.416-.167c4.1-1.648 6.086-6.309 4.437-10.407-.222-.553-.503-1.063-.826-1.536l7.107-21.372-6.065-2.016c-.002-.001-.003-.001-.005-.002l-3.593-1.195 1.401-4.213 9.663 3.213 1.424-4.28c1.195-3.593-5.121-8.928-10.55-10.733-5.431-1.806-7.923.601-9.117 4.192l-1.425 4.282 2.572.855-1.413 4.25c-2.821-.597-5.699 1.005-6.632 3.806-.931 2.801.416 5.808 3.032 7.021l-1.743 5.241c-.683 2.053.427 4.268 2.48 4.951 2.054.683 4.27-.428 4.953-2.48l1.73-5.203 2.23.741-3.153 9.481c-.829.053-1.664.232-2.477.559l-21.983 8.844-8.467-18.051-3.512-7.488-.162-.345c-.613-1.307-1.538-2.365-2.641-3.139l5.528-.715c1.732-.225 3.343-1.009 4.588-2.234l36.612-36.063c3.147-3.101 3.186-8.166.085-11.313-3.101-3.148-8.165-3.186-11.313-.086l-23.478 23.125c1.475 11.209-4.693 22.468-15.637 26.939-3.086 1.26-6.328 1.899-9.637 1.899-9.369 0-17.801-5.056-22.265-13.092l-4.073.527-3.727.482c-3.735.483-6.524 3.471-6.918 7.055-.205.429-.385.875-.511 1.352l-16.674 63.106c-1.36 3.083-1.49 6.699-.039 10.032l19.031 43.719-21.146 45.742c-2.896 6.267-.165 13.694 6.102 16.592 1.698.785 3.481 1.156 5.237 1.156 4.722 0 9.242-2.689 11.354-7.258l23.5-50.834c1.497-3.238 1.539-6.963.114-10.234l-8.47-19.456 24.646 27.247 1.367 47.393c.196 6.778 5.752 12.14 12.488 12.14.122 0 .245-.002.367-.005 6.9-.199 12.334-5.955 12.135-12.855l-1.5-52c-.086-2.974-1.229-5.819-3.225-8.025l-29-32.059 11.209-44.013 3.344 7.129 3.412 7.273c1.358 2.888 4.232 4.603 7.249 4.603zm22.758-46.412c.547-1.643 2.32-2.531 3.961-1.985s2.53 2.319 1.985 3.962c-.546 1.641-2.321 2.53-3.962 1.984s-2.53-2.32-1.984-3.961z"/><path d="m217.844 116.222c11.054-4.516 16.572-16.816 12.819-27.978-5.096 1.351-9.699 1.852-12.958 1.467 2.166-.602 4.435-1.368 6.75-2.313 10.992-4.49 18.691-11.102 17.194-14.765-1.497-3.665-11.623-2.995-22.615 1.495-.376.154-.738.315-1.106.474-5.282-2.184-11.392-2.371-17.102-.038-11.503 4.699-17.019 17.835-12.32 29.338 4.7 11.505 17.835 17.019 29.338 12.32z"/><path d="m289.349 132.658c0 8.008 6.492 14.5 14.5 14.5s14.5-6.492 14.5-14.5-6.492-14.5-14.5-14.5-14.5 6.492-14.5 14.5zm13.375-10.437v7.66c-.015.006-.031.009-.046.015l-5.408-5.408c1.526-1.232 3.401-2.047 5.454-2.267zm-7.046 3.858 5.408 5.408c-.006.015-.009.031-.015.046h-7.66c.22-2.052 1.035-3.928 2.267-5.454zm-2.267 7.704h7.66c.006.015.009.031.015.046l-5.408 5.408c-1.232-1.526-2.047-3.401-2.267-5.454zm3.858 7.046 5.408-5.408c.015.006.031.009.046.015v7.66c-2.052-.22-3.927-1.035-5.454-2.267zm7.705 2.267v-7.66c.015-.006.031-.009.046-.015l5.408 5.408c-1.526 1.232-3.402 2.047-5.454 2.267zm7.045-3.858-5.408-5.408c.006-.015.009-.031.015-.046h7.66c-.22 2.052-1.035 3.927-2.267 5.454zm2.267-7.705h-7.66c-.006-.015-.009-.031-.015-.046l5.408-5.408c1.232 1.526 2.047 3.402 2.267 5.454zm-3.858-7.045-5.408 5.408c-.015-.006-.031-.009-.046-.015v-7.66c2.052.22 3.928 1.035 5.454 2.267z"/><path d="m258.454 275.37h62.668v17.51h-62.668z"/><path d="m321.122 273.17v-11.623h-16.584v-7.667h2.875v-3h-35.25v3h2.874v7.667h-16.583v11.623zm-43.086-17.792h23.5v6.169h-23.5z"/><path d="m73.432 250.969v1.926c0 10.25 8.34 18.59 18.59 18.59h5.607v.014c0 1.1.9 2 2 2s2-.9 2-2v-.014h49.739l3.698-8h-53.437v-.319c0-1.1-.9-2-2-2s-2 .9-2 2v.319h-5.607c-5.839 0-10.59-4.751-10.59-10.59v-1.926c24.831-.679 48.508-7.69 49.748-21.035h-107.496c1.24 13.345 24.917 20.356 49.748 21.035z"/><path d="m131.242 205.218h24.908l-3.482-8h-21.425v-118.667h14.565c0 1.1.9 2 2 2s2-.9 2-2h9.833c6.708 0 12.166-5.458 12.166-12.167v-4c0-2.481 2.019-4.5 4.5-4.5h4.5v.167c0 1.1.9 2 2 2s2-.9 2-2v-.167h115.667v39.333h-.333c-1.1 0-2 .9-2 2 0 1.1.9 2 2 2h.333v14.274c1.093-.215 2.22-.334 3.375-.334 1.603 0 3.149.235 4.625.64v-14.581c1.1 0 2-.9 2-2 0-1.1-.9-2-2-2v-62.707c0-3.239 2.636-5.875 5.875-5.875h16.458v-8h-16.458c-7.65 0-13.875 6.224-13.875 13.875v15.375h-115.667v-.167c0-1.1-.9-2-2-2s-2 .9-2 2v.167h-4.5c-6.893 0-12.5 5.607-12.5 12.5v4c0 2.298-1.869 4.167-4.166 4.167h-9.833v-.334c0-1.1-.9-2-2-2s-2 .9-2 2v.334h-14.565v-13.417h-107.622v13.417h-23.288v8h23.288v118.667h-23.621v8h23.621v21.285h107.621z"/><path d="m97.137 33.989v-10.041h-14.711v-2.681c3.66-1.854 6.174-5.642 6.174-10.025 0-6.209-5.034-11.242-11.242-11.242-6.209 0-11.242 5.033-11.242 11.242 0 4.383 2.514 8.171 6.174 10.025v2.681h-14.564v10.041c-18.306 2.676-33.07 9.25-34.042 19.715h107.495c-.972-10.466-15.736-17.039-34.042-19.715zm-28.617-22.747c0-4.881 3.957-8.838 8.838-8.838s8.838 3.957 8.838 8.838-3.957 8.838-8.838 8.838c-4.882 0-8.838-3.957-8.838-8.838z"/><path d="m78.563 12.386c.461-.485.567-1.174.335-1.757l3.995-4.207-1.007-.957-3.996 4.207c-.594-.201-1.277-.06-1.738.426s-.567 1.174-.335 1.758l-1.277 1.344 1.007.957 1.277-1.345c.595.201 1.278.06 1.739-.426z"/></g></svg>