<?xml version="1.0" encoding="iso-8859-1"?>
<!-- Generator: Adobe Illustrator 19.0.0, SVG Export Plug-In . SVG Version: 6.00 Build 0)  -->
<svg version="1.1" id="Capa_1" xmlns="http://www.w3.org/2000/svg" xmlns:xlink="http://www.w3.org/1999/xlink" x="0px" y="0px"
	 viewBox="0 0 511.999 511.999" style="enable-background:new 0 0 511.999 511.999;" xml:space="preserve">
<path fill="currentColor" opacity="0.3" d="M157.245,130.375c-86.453,0-156.611,69.769-157.241,156.074
	c-0.633,86.773,70.467,158.416,157.242,158.415c33.399,0,64.36-10.42,89.824-28.178c5.366-3.742,12.492-3.742,17.858,0
	c25.464,17.758,56.425,28.178,89.824,28.178c86.774,0.001,157.874-71.642,157.242-158.414
	c-0.629-86.306-70.787-156.076-157.241-156.076c-33.403,0-64.367,10.423-89.834,28.183c-5.361,3.739-12.483,3.739-17.843,0
	C221.612,140.796,190.647,130.375,157.245,130.375z"/>
<path fill="currentColor" d="M475.75,286.719v0.88c0,7.602-0.715,15.111-2.113,22.444c-4.474,23.573-15.992,45.375-33.506,62.91
	c-22.983,22.993-53.298,35.66-85.375,35.66c-24.878,0-48.772-7.488-69.093-21.657c-17.742-12.377-41.584-12.377-59.326,0
	c-20.321,14.169-44.215,21.657-69.093,21.657c-32.076,0-62.403-12.667-85.375-35.66C48.897,349.97,36.25,319.655,36.25,287.599
	v-0.891c0.176-24.391,7.54-47.664,21.067-67.364c4.278-6.245,9.177-12.128,14.666-17.576c22.817-22.662,53.102-35.142,85.261-35.142
	c24.878,0,48.772,7.488,69.093,21.667c17.742,12.367,41.584,12.367,59.316,0c20.331-14.179,44.226-21.667,69.104-21.667
	c32.159,0,62.444,12.481,85.261,35.142C462.824,224.42,475.511,254.59,475.75,286.719z"/>
<path fill="currentColor" opacity="0.8" d="M475.75,286.719v0.88c0,7.602-0.715,15.111-2.113,22.444c-4.257,6.245-9.156,12.149-14.635,17.628
	c-22.972,22.993-53.298,35.66-85.375,35.66c-24.868,0-48.762-7.488-69.083-21.657c-17.742-12.377-41.584-12.377-59.337,0
	c-20.311,14.169-44.205,21.657-69.083,21.657c-32.076,0-62.403-12.657-85.375-35.66c-22.972-22.983-35.619-53.298-35.619-85.354
	v-0.88c0.062-7.499,0.787-14.883,2.185-22.092c4.278-6.245,9.177-12.128,14.666-17.576c22.817-22.662,53.102-35.142,85.261-35.142
	c24.878,0,48.772,7.488,69.093,21.667c17.742,12.367,41.584,12.367,59.316,0c20.331-14.179,44.226-21.667,69.104-21.667
	c32.159,0,62.444,12.481,85.261,35.142C462.824,224.42,475.511,254.59,475.75,286.719z"/>
<g>
	<path fill="currentColor" opacity="0.6" d="M136.626,265.727c-5.445,0-10.697-1.975-14.795-5.563c-0.019-0.017-0.037-0.032-0.053-0.047
		c-1.267-1.113-2.892-1.727-4.579-1.727c-1.684,0-3.308,0.613-4.574,1.728c-4.106,3.614-9.377,5.603-14.844,5.603
		c-5.464,0-10.735-1.989-14.839-5.6c-3.221-2.834-3.535-7.742-0.701-10.963c2.834-3.221,7.743-3.534,10.963-0.7
		c1.267,1.114,2.892,1.728,4.577,1.728c1.686,0,3.312-0.614,4.579-1.729c4.104-3.613,9.373-5.602,14.839-5.602
		c5.448,0,10.702,1.975,14.799,5.563c0.019,0.017,0.037,0.032,0.053,0.046c1.267,1.114,2.891,1.728,4.575,1.728
		c1.685,0,3.31-0.613,4.577-1.728c3.221-2.834,8.129-2.519,10.963,0.703c2.833,3.221,2.519,8.129-0.703,10.962
		C147.358,263.739,142.088,265.727,136.626,265.727z"/>
	<path fill="currentColor" opacity="0.6" d="M207.114,320.154c-5.447,0-10.7-1.976-14.797-5.564c-0.02-0.017-0.036-0.031-0.053-0.046
		c-1.265-1.112-2.891-1.725-4.577-1.725c-1.685,0-3.309,0.613-4.574,1.727c-4.106,3.614-9.377,5.603-14.844,5.603
		c-5.466,0-10.736-1.989-14.84-5.6c-3.22-2.834-3.533-7.743-0.699-10.963c2.833-3.22,7.743-3.535,10.963-0.699
		c1.266,1.113,2.89,1.727,4.576,1.727s3.311-0.613,4.577-1.728c4.103-3.613,9.373-5.602,14.841-5.602
		c5.449,0,10.702,1.975,14.799,5.563c0.019,0.017,0.036,0.032,0.053,0.046c1.266,1.113,2.89,1.727,4.575,1.727
		c1.685,0,3.31-0.613,4.578-1.728c3.221-2.833,8.13-2.518,10.963,0.704c2.832,3.222,2.518,8.13-0.705,10.962
		C217.846,318.166,212.578,320.154,207.114,320.154z"/>
	<path fill="currentColor" opacity="0.6" d="M291.969,249.824c-5.449,0-10.701-1.975-14.797-5.563c-0.019-0.016-0.036-0.031-0.053-0.046
		c-1.267-1.113-2.892-1.727-4.579-1.727c-1.684,0-3.308,0.613-4.574,1.728c-4.105,3.613-9.376,5.602-14.843,5.602
		s-10.737-1.989-14.841-5.6c-3.22-2.834-3.533-7.743-0.699-10.963c2.833-3.22,7.743-3.534,10.963-0.699
		c1.266,1.113,2.891,1.727,4.577,1.727s3.311-0.613,4.577-1.728c4.105-3.613,9.374-5.602,14.84-5.602
		c5.448,0,10.701,1.975,14.799,5.562c0.02,0.017,0.038,0.033,0.055,0.047c1.265,1.112,2.889,1.726,4.575,1.726
		c1.685,0,3.309-0.613,4.576-1.727c3.221-2.835,8.129-2.519,10.963,0.702c2.833,3.221,2.519,8.129-0.703,10.963
		C302.702,247.835,297.433,249.824,291.969,249.824z"/>
	<path fill="currentColor" opacity="0.6" d="M413.033,295.148c-5.445,0-10.697-1.974-14.793-5.561c-0.02-0.017-0.038-0.033-0.055-0.047
		c-1.267-1.113-2.893-1.727-4.579-1.727c-1.684,0-3.308,0.613-4.574,1.728c-4.104,3.613-9.375,5.603-14.843,5.603
		c-5.467,0-10.737-1.989-14.841-5.601c-3.22-2.834-3.533-7.743-0.699-10.963c2.833-3.22,7.743-3.534,10.963-0.699
		c1.266,1.113,2.891,1.727,4.577,1.727s3.311-0.613,4.577-1.728c4.104-3.614,9.374-5.603,14.84-5.603
		c5.447,0,10.7,1.974,14.797,5.561c0.02,0.017,0.038,0.033,0.055,0.048c1.267,1.113,2.891,1.727,4.575,1.727
		c1.685,0,3.31-0.613,4.578-1.728c3.222-2.833,8.13-2.517,10.963,0.705s2.517,8.13-0.705,10.962
		C423.763,293.162,418.495,295.148,413.033,295.148z"/>
	<path fill="currentColor" opacity="0.6" d="M345.129,359.659c-5.449,0-10.701-1.975-14.797-5.563c-0.019-0.016-0.036-0.031-0.053-0.046
		c-1.267-1.113-2.892-1.727-4.579-1.727c-1.684,0-3.308,0.613-4.574,1.728c-4.105,3.613-9.376,5.602-14.843,5.602
		c-5.466,0-10.736-1.989-14.84-5.6c-3.22-2.834-3.533-7.743-0.699-10.963c2.834-3.22,7.743-3.535,10.963-0.699
		c1.266,1.113,2.89,1.727,4.576,1.727s3.311-0.613,4.577-1.728c4.105-3.613,9.374-5.602,14.84-5.602
		c5.448,0,10.701,1.975,14.799,5.562c0.02,0.017,0.038,0.033,0.055,0.047c1.265,1.112,2.889,1.726,4.575,1.726
		c1.685,0,3.309-0.613,4.576-1.727c3.221-2.835,8.129-2.519,10.963,0.702c2.833,3.221,2.519,8.129-0.703,10.963
		C355.861,357.67,350.593,359.659,345.129,359.659z"/>
</g>
<path fill="currentColor" opacity="0.9" d="M455.895,67.135h-18.62c-16.29,0-29.541,13.252-29.541,29.541V198.44h-51.786V96.676
	c0-7.723,6.283-14.005,14.005-14.005h18.62c4.291,0,7.768-3.478,7.768-7.768c0-4.29-3.477-7.768-7.768-7.768h-18.62
	c-16.29,0-29.541,13.252-29.541,29.541v161.672c0,4.29,3.477,7.768,7.768,7.768c4.291,0,7.768-3.478,7.768-7.768v-17.443h51.786
	v17.443c0,4.29,3.477,7.768,7.768,7.768s7.768-3.478,7.768-7.768V96.676c0-7.723,6.283-14.005,14.005-14.005h18.62
	c4.291,0,7.768-3.478,7.768-7.768C463.663,70.613,460.186,67.135,455.895,67.135z M355.947,225.369v-11.393h51.786v11.393H355.947z"
	/>
<g>
</g>
<g>
</g>
<g>
</g>
<g>
</g>
<g>
</g>
<g>
</g>
<g>
</g>
<g>
</g>
<g>
</g>
<g>
</g>
<g>
</g>
<g>
</g>
<g>
</g>
<g>
</g>
<g>
</g>
</svg>
