<svg id="Layer_1" height="512" viewBox="0 0 50 50" width="512" xmlns="http://www.w3.org/2000/svg"><g><g><g><path d="m40.8031 11.9544h-31.6041l-8.197 23.2203 4.8133 1.9695 3.3837-18.2192h31.6041l3.3836 18.2192 4.8133-1.9695z" fill="#e4e4e3"/><path d="m49 35.1737-4.8164 1.9692-.8287-2.7569h-36.7098l-.8287 2.7569-4.8164-1.9692.3364-.7877 7.8605-22.4338h31.6062l7.8606 22.4338z" fill="#e4e4e3"/><path d="m11.083 14.582h27.836v4.694h-27.836z" fill="#59b1e3"/><path d="m11.083 14.5819v4.6942l-2.9802 16.8816-2.7941-1.7347z" fill="#35a9d9"/><path d="m38.9191 14.5819v4.6942l2.9802 16.8816 2.7941-1.7347z" fill="#35a9d9"/><path d="m41.8993 36.1577h-33.7965l2.9802-16.8816h27.8361z" fill="#7ac1e1"/><path d="m49 35.1737v4.8154h-48v-4.8154l.3364-.7877h47.3273z" fill="#d2d2d0"/><g fill="#7b7a7a"><path d="m15.287 10.011h.75v11.79h-.75z"/><path d="m20.76 10.011h.75v11.79h-.75z"/><g><path d="m16.04 12.876h4.72v.821h-4.72z"/><path d="m16.04 15.496h4.72v.821h-4.72z"/><path d="m16.04 18.116h4.72v.821h-4.72z"/></g></g></g><g fill="#a3ddf1"><path d="m29.3507 25.3797c-.234-.189-.1687-.4935.0739-.7068.7718-.6703 2.2645-.2423 2.3781-.3726.4383-.3303-.5479-1.6205 3.7064-1.0655-2.371.5901-2.4166-.0034-2.6824 1.1312-.3964 1.0714-2.153.1394-3.0498.5198-.2329.0953-.4362.2646-.4262.4939z"/><path d="m20.4156 25.6966c-.3601-.2909-.0703-.9883 1.171-1.0839.4052-.0483.8525.0278 1.0896.0253.8152-.0008-.7768-1.6963 3.8977-1.0864-2.371.5901-2.4166-.0034-2.6824 1.1312-.3227.872-1.8421.4406-2.2681.4186-.5509-.0255-1.2274.1452-1.2078.5952z"/><path d="m14.9765 30.0114c-.3601-.2909-.0703-.9883 1.171-1.0839.4052-.0483.8525.0278 1.0896.0253.7462-.0007-.7281-1.6899 3.8977-1.0864-.6582.1638-1.4147.2316-1.9916.339-1.079.2754-.2569.8886-1.1818 1.2411-.612.2422-1.1996-.0004-1.7771-.0303-.5508-.0255-1.2274.1453-1.2078.5952z"/><path d="m22.3045 31.7514c-.234-.189-.1687-.4935.0739-.7068.835-.7252 2.3118-.1411 2.4329-.4603.1002-.1673-.0343-1.0399 1.5033-1.1199.7905-.033 1.4271.048 2.1483.1421-2.371.5901-2.4166-.0034-2.6824 1.1312-.1698.4589-.8104.5944-1.3002.547-.5217-.0616-1.2288-.2482-1.7496-.0272-.2328.0953-.4362.2645-.4262.4939z"/><path d="m32.1121 31.1587c-.234-.189-.1687-.4935.0739-.7068.7718-.6703 2.2645-.2423 2.3781-.3726.4383-.3303-.5479-1.6205 3.7064-1.0655-2.371.5901-2.4166-.0034-2.6824 1.1312-.4226 1.1421-2.0902.1127-3.0498.5198-.2329.0953-.4363.2646-.4262.4939z"/><path d="m28.859 28.599c-.2354-.1902-.046-.6461.7655-.7085.2649-.0316.5573.0182.7123.0165.4624-.0004-.4441-1.1006 2.548-.7102-.4303.1071-.9248.1514-1.3019.2216-.7054.18-.168.5809-.7725.8113-.5622.2225-1.1383-.1804-1.6728.0463-.1522.0624-.2851.173-.2786.323z"/><path d="m27.2398 22.1159c-.2354-.1902-.046-.6461.7655-.7085.2649-.0316.5573.0182.7123.0165.4803-.0005-.4308-1.0988 2.548-.7102-1.5352.3821-1.5798-.0021-1.7535.7395-.111.3-.5298.3886-.85.3576-.341-.0402-.8033-.1622-1.1438-.0178-.1521.0623-.2851.173-.2785.3229z"/><path d="m14.9261 25.2975c-.2354-.1902-.046-.6461.7655-.7085.2649-.0316.5573.0182.7123.0165.5266-.0005-.4957-1.1073 2.548-.7102-1.5352.3821-1.5798-.0021-1.7535.7395-.2592.7004-1.4074.0911-1.9937.3398-.1522.0624-.2851.173-.2786.3229z"/><path d="m11.1782 32.5014c-.2354-.1902-.046-.6461.7655-.7085.2649-.0316.5573.0182.7123.0165.6211-.0006-.5737-1.1175 2.548-.7102-1.5352.3821-1.5798-.0021-1.7535.7395-.2617.7073-1.404.0896-1.9937.3398-.1522.0623-.2852.173-.2786.3229z"/></g></g></g></svg>