<svg id="Layer_1" enable-background="new 0 0 551.131 312.398" height="512" viewBox="0 0 551.131 312.398" width="512" xmlns="http://www.w3.org/2000/svg"><g><path d="m191.594 312.398h359.537v-18.777h-310.494l26.24-33.157-21.626-9.146z"/><path d="m387.3 108.299v58.908h2.525v-62.099l.105-.132h161.201v-6.654h-171.479l-51.855 59.029 14.368 7.979z"/><path d="m332.104 178.044-15.112-8.392-59.656 67.909 21.067 8.339z"/><path d="m473.839 137.244c4.375 4.016 21.675 4.016 26.048 0 2.187 2.008 7.631 3.047 13.023 3.047.553 0 1-.447 1-1s-.447-1-1-1c-7.779 0-12.023-2.017-12.023-3.053 0-.553-.447-1-1-1s-1 .447-1 1c0 1.036-4.244 3.053-12.023 3.053-7.78 0-12.024-2.017-12.024-3.053 0-.553-.447-1-1-1s-1 .447-1 1c0 1.036-4.244 3.053-12.023 3.053s-12.023-2.017-12.023-3.053c0-.553-.447-1-1-1s-1 .447-1 1c0 1.036-4.244 3.053-12.023 3.053-.553 0-1 .447-1 1s.447 1 1 1c5.393 0 10.837-1.039 13.023-3.047 4.371 4.016 21.672 4.016 26.045 0z"/><path d="m369.349 177.635c2.396 2.012 7.857 2.948 13.023 2.948s10.628-.937 13.024-2.948c2.396 2.012 7.857 2.948 13.023 2.948s10.627-.937 13.023-2.948c2.396 2.012 7.857 2.948 13.023 2.948.69 0 1.25-.56 1.25-1.25s-.56-1.25-1.25-1.25c-7.647 0-11.773-1.989-11.773-2.803 0-.69-.56-1.25-1.25-1.25s-1.25.56-1.25 1.25c0 .813-4.126 2.803-11.773 2.803s-11.773-1.989-11.773-2.803c0-.69-.56-1.25-1.25-1.25s-1.25.56-1.25 1.25c0 .813-4.126 2.803-11.774 2.803-7.647 0-11.773-1.989-11.773-2.803 0-.69-.56-1.25-1.25-1.25s-1.25.56-1.25 1.25c0 .488-1.495 1.397-4.332 2.047l3.051 1.694c1.02-.386 1.888-.846 2.531-1.386z"/><path d="m449.674 255.991c4.051 0 10.208-.659 13.023-2.844 2.815 2.185 8.973 2.844 13.023 2.844s10.208-.659 13.023-2.845c2.815 2.186 8.974 2.845 13.024 2.845s10.208-.659 13.023-2.844c2.815 2.185 8.973 2.844 13.023 2.844.828 0 1.5-.672 1.5-1.5s-.672-1.5-1.5-1.5c-7.427 0-11.258-1.863-11.523-2.553 0-.828-.668-1.526-1.496-1.526-.769 0-1.398.556-1.486 1.296-.01.063-.016.129-.018.195-.323.752-4.152 2.588-11.523 2.588-7.427 0-11.259-1.863-11.524-2.553 0-.828-.668-1.526-1.496-1.526-.769 0-1.398.555-1.486 1.296-.01.063-.016.129-.018.195-.323.752-4.152 2.588-11.523 2.588-7.427 0-11.258-1.863-11.523-2.553 0-.828-.668-1.526-1.496-1.526-.769 0-1.398.555-1.486 1.296-.01.063-.016.129-.018.195-.323.752-4.152 2.588-11.523 2.588-.828 0-1.5.672-1.5 1.5s.672 1.5 1.5 1.5z"/><path d="m536.77 179.333c0-.69-.56-1.25-1.25-1.25-7.647 0-11.773-1.989-11.773-2.803 0-.69-.56-1.25-1.25-1.25s-1.25.56-1.25 1.25c0 .813-4.126 2.803-11.773 2.803-7.648 0-11.774-1.989-11.774-2.803 0-.69-.56-1.25-1.25-1.25s-1.25.56-1.25 1.25c0 .813-4.126 2.803-11.773 2.803s-11.773-1.989-11.773-2.803c0-.69-.56-1.25-1.25-1.25s-1.25.56-1.25 1.25c0 .813-4.126 2.803-11.773 2.803-.69 0-1.25.56-1.25 1.25s.56 1.25 1.25 1.25c5.166 0 10.627-.937 13.023-2.948 2.396 2.012 7.857 2.948 13.023 2.948s10.627-.937 13.023-2.948c2.396 2.012 7.858 2.948 13.024 2.948s10.627-.937 13.023-2.948c2.396 2.012 7.857 2.948 13.023 2.948.691 0 1.25-.559 1.25-1.25z"/><path d="m38.774 248.932h16.716v6.25h-11.77v3.794h58.883v-3.794h-7.375v-6.25h7.639c2.741 0 4.64-3.83 5.701-9.138h4.571v.558c0 2.622 2.145 4.766 4.766 4.766h6.874c2.622 0 4.766-2.145 4.766-4.766v-2.966h3.858v-6.619c8.691.389 22.198 1.164 35.747 2.613 18.096 1.935 29.122 4.301 35.833 6.51-.836.246-1.677.501-2.514.761-32.07-.669-53.438 4.451-57.289 13.773-1.269 3.072-.408 6.334 2.363 8.95 2.009 1.897 5.203 3.549 9.357 4.659.008.154.024.307.046.459.326 2.204 2.04 3.851 5.096 4.892 3.018 1.029 7.047 1.495 11.631 1.495 17.21-.001 42.213-6.57 50.646-14.588 3.425-3.256 3.516-6.14 2.989-7.984-.788-2.762-3.494-5.169-8.193-7.259-.345-1.207-1.071-2.533-2.648-3.912 10.877-2.328 20.49-2.844 25.646-.201l1.295.664c1.355.695 2.771 1.417 4.213 2.149 7.529 3.818 16.182 7.997 25.518 11.153-.659.984-1.095 2.032-1.269 3.145-.256 1.638-.423 3.069-.468 4.332-.087 2.408.291 4.176 1.501 5.381 2.027 2.021 5.196 1.512 10.444.669 5.438-.872 13.657-2.188 25.244-1.51 12.312.737 15.441-5.019 16.934-12.22.063-.028.122-.055.185-.084 4.076-1.865 8.651-4.443 7.836-7.855-.437-1.828-2.439-3.115-5.983-3.854 2.063-9.157 6.912-18.906 24.533-25.473.758 1.923 2.884 2.985 4.889 2.364l1.367-.424.804 2.594c.267.863 1.192 1.35 2.055 1.083s1.35-1.192 1.083-2.055l-.804-2.594 8.687-2.692.804 2.594c.267.863 1.192 1.35 2.055 1.083s1.35-1.192 1.083-2.055l-.804-2.594 8.687-2.692.804 2.594c.267.863 1.192 1.35 2.055 1.083s1.35-1.192 1.083-2.055l-.804-2.594 4.131-1.28 2.435-.754 2.122-.657.804 2.594c.267.863 1.192 1.35 2.055 1.083s1.35-1.192 1.083-2.055l-.804-2.594 8.687-2.692.804 2.594c.267.863 1.192 1.35 2.055 1.083s1.35-1.192 1.083-2.055l-.804-2.594 8.687-2.692.804 2.594c.267.863 1.192 1.35 2.054 1.083.863-.267 1.35-1.192 1.083-2.055l-.804-2.594 1.367-.424c2.102-.651 3.288-2.903 2.637-5.005l-1.371-4.424c-.651-2.101-2.903-3.288-5.005-2.637l-23.103 7.158-7.932 2.458-131.569-73.07c-.943 1.13-2.113 2.038-3.429 2.671l129.71 72.038-7.933 2.458-20.738 6.425c-2.101.651-3.288 2.903-2.637 5.005l.274.885c-19.837 7.338-25.114 18.688-27.299 28.735-2.596-.215-5.691-.254-9.281-.111-9.472.377-21.844 2.166-30.802 5.675-2.793 1.094-5.265 2.351-7.199 3.79-9.579-3.048-18.51-7.304-26.258-11.219-1.653-.835-3.272-1.661-4.81-2.449l-1.297-.665c-6.868-3.519-19.177-2.513-32.36.732-6.664-3.113-19.028-6.249-42.023-8.706-13.729-1.468-27.408-2.248-36.15-2.637v-6.241h-3.858v-3.752c0-2.622-2.145-4.766-4.766-4.766h-6.874c-2.622 0-4.766 2.145-4.766 4.766v.558h-4.572c-1.061-5.308-2.96-9.138-5.701-9.138h-2.959v-14.168c0-4.344-2.368-8.336-6.179-10.42l-9.192-5.025-3.357 6.143 9.192 5.025c1.564.855 2.537 2.494 2.537 4.277v14.168h-3.23c-1.48 0-2.713 1.12-3.703 2.981h-9.894c-.99-1.861-2.223-2.981-3.703-2.981h-33.608c-8.943 0-8.943 40.741 0 40.741zm347.936-48.683c1.151 0 2.084.933 2.084 2.084s-.933 2.084-2.084 2.084-2.084-.933-2.084-2.084.933-2.084 2.084-2.084zm-60.347 49.488c.144-.962.291-1.943.455-2.938 1.254.229 2.166.519 2.656.851-.308.367-1.106 1.103-3.127 2.191.005-.034.01-.069.016-.104zm-17.536 13.189c-12.022-.709-20.501.652-26.112 1.553-3.002.48-6.403 1.027-6.989.446-.229-.229-.679-1.296.097-6.263.129-.828.587-1.659 1.348-2.479 13.81 4.113 28.887 5.649 43.785.36-1.442 4.541-4.244 6.846-12.129 6.383zm14.013-16.586c-.155.956-.296 1.893-.433 2.804-.144.952-.279 1.862-.422 2.726-13.566 5.538-27.546 4.75-40.579 1.324 2.34-1.211 5.361-2.346 8.968-3.35 11.617-3.232 24.655-4.036 32.466-3.504zm-164.812 17.908c-3.471-.914-6.114-2.249-7.739-3.783-1.564-1.477-2.039-2.995-1.412-4.514 1.702-4.12 12.595-10.531 42.072-11.288-10.745 4.145-20.442 9.026-26.418 13.312-3.143 2.254-5.302 4.333-6.503 6.273zm60.865-14.892c3.419 1.745 4.339 3.241 4.57 4.049.325 1.14-.314 2.481-1.899 3.988-9.741 9.262-45.116 16.671-58.229 12.206-.495-.169-.928-.354-1.285-.549 10.697 1.444 25.643-.293 42.435-8.389 8.247-3.976 12.957-7.649 14.408-11.305zm-3.718-1.596c-.662 1.816-3.342 4.917-12.428 9.298-16.123 7.774-30.476 9.396-40.371 8.043.878-1.004 2.274-2.289 4.487-3.875 8.069-5.786 22.187-12.157 36.295-16.559.241.006.488.012.731.018 4.864 1.013 8.527 2.062 11.286 3.075zm-125.497 1.172h1.486v6.25h-31.61v-6.25h12.824c1.479 0 2.713-1.12 3.703-2.981h9.894c.99 1.861 2.223 2.981 3.703 2.981zm-41.87-27.123h24.39c.696 0 1.265.569 1.265 1.265s-.569 1.265-1.265 1.265h-24.39c-.696 0-1.265-.569-1.265-1.265s.569-1.265 1.265-1.265zm0 5.488h24.39c.696 0 1.265.569 1.265 1.265s-.569 1.265-1.265 1.265h-24.39c-.696 0-1.265-.569-1.265-1.265s.569-1.265 1.265-1.265zm0 5.488h24.39c.696 0 1.265.569 1.265 1.265s-.569 1.265-1.265 1.265h-24.39c-.696 0-1.265-.569-1.265-1.265s.569-1.265 1.265-1.265z"/><path d="m133.605 267.863h3.65c1.497 0 2.722-1.225 2.722-2.722s-1.225-2.722-2.722-2.722h-109.637c-.4-2.293-2.01-4.164-4.15-4.938v-84.485c0-6.96-3.734-13.465-9.745-16.977l-10.714-6.256c-.953-.556-2.179-.234-2.735.719-.557.954-.235 2.179.719 2.736l10.714 6.255c4.788 2.797 7.762 7.979 7.762 13.522v84.357c-2.328.681-4.105 2.639-4.529 5.066h-.161c-1.497 0-2.722 1.225-2.722 2.722s1.225 2.722 2.722 2.722h20.097v4.993l-2.032 1.124c-1.539-1.881-3.877-3.083-6.498-3.083-4.635 0-8.392 3.757-8.392 8.392s3.757 8.392 8.392 8.392 8.392-3.757 8.392-8.392c0-.939-.161-1.839-.445-2.681l2.809-1.554c.478-.264.774-.767.774-1.313v-5.878h92.73v4.993l-2.032 1.124c-1.539-1.881-3.877-3.083-6.498-3.083-4.635 0-8.392 3.757-8.392 8.392s3.757 8.392 8.392 8.392 8.392-3.757 8.392-8.392c0-.939-.161-1.839-.445-2.681l2.809-1.554c.478-.264.774-.767.774-1.313v-5.877zm-102.667 11.425c0 2.537-2.056 4.593-4.593 4.593s-4.593-2.056-4.593-4.593 2.056-4.593 4.593-4.593c1.179 0 2.244.457 3.057 1.188l-3.783 2.093c-.725.401-.987 1.313-.586 2.038.273.495.786.774 1.314.774.246 0 .495-.061.725-.188l3.788-2.095c.043.256.078.515.078.783zm95.73 0c0 2.537-2.056 4.593-4.593 4.593s-4.593-2.056-4.593-4.593 2.056-4.593 4.593-4.593c1.179 0 2.244.457 3.057 1.188l-3.783 2.093c-.725.401-.987 1.313-.586 2.038.273.495.786.774 1.314.774.246 0 .495-.061.725-.188l3.788-2.095c.043.256.078.515.078.783z"/><path d="m129.735 54.215-1.942 3.497 41.765 23.195c.497-1.254 1.014-2.492 1.557-3.711z"/><path d="m170.034 200.528c-3.812 5.756-2.236 13.513 3.52 17.324 2.124 1.406 4.52 2.079 6.89 2.079 4.053 0 8.028-1.967 10.434-5.599 13.859-20.927 18.563-40.209 19.022-56.167l-28.147-22.879c4.736 14.734 6.422 37.85-11.719 65.242z"/><path d="m175.608 73.085c-4.672 9.035-7.73 18.472-10.462 31.329-.651 4.855-.217 8.708.938 11.809.61 2.596 2.04 5.021 4.27 6.833l45.213 36.751 16.396 51.768c1.688 5.326 6.609 8.729 11.914 8.729 1.25 0 2.521-.189 3.777-.587 6.581-2.084 10.227-9.109 8.143-15.691l-17.525-55.333c-.737-2.326-2.139-4.386-4.032-5.925l-35.098-28.529c.504-1.93 1.097-3.859 1.758-5.781-1.909-1.826-3.106-4.338-3.204-7.065l-1.436-40.234c-.202-5.676 4.251-10.458 9.927-10.661.123-.004.245-.007.366-.007 5.573 0 10.095 4.363 10.295 9.933l.529 14.842c.771-1.33 1.52-2.623 2.225-3.858 5.898-8.511 6.149-20.998-1.258-25.744-.834-.534-1.746-.999-2.714-1.392-.12-.057-.236-.12-.361-.172-.485-.202-5.1-2.074-11.56-3.101-10.706-1.702-26.483-1.081-36.943 13.326-2.271 3.128-1.981 7.433.69 10.227l6.498 6.801z"/><path d="m247.734 125.527c3.137 0 6.114-1.857 7.392-4.935 1.694-4.081-.241-8.762-4.321-10.456l-35.006-14.531-1.252-35.1c-.158-4.415-3.885-7.865-8.28-7.71-4.416.158-7.867 3.865-7.71 8.28l1.436 40.234c.111 3.128 2.037 5.904 4.928 7.104l39.75 16.5c1.002.417 2.041.614 3.063.614z"/><path d="m274.216 22.566c.892-3.857-7.764-9.153-19.333-11.83-.396-.092-.785-.168-1.177-.251-3.054-4.832-7.936-8.51-13.946-9.901-12.106-2.801-24.192 4.744-26.992 16.85-2.801 12.108 4.744 24.192 16.85 26.992 11.106 2.569 22.185-3.567 26.105-13.944-1.954-.558-3.99-1.253-6.058-2.083-10.819-4.341-18.454-10.739-17.334-14.448.705 3.714 8.794 8.315 19.321 10.75 7.945 1.838 15.197 1.962 19.25.612 1.85-.617 3.034-1.54 3.314-2.747z"/><path d="m313.745 277.818c-33.507-1.757-43.102 3.443-43.494 3.665l.987 1.74c.091-.053 9.479-5.139 42.401-3.407 9.502.485 16.894-2.058 22.009-7.598 9.966-10.797 7.684-28.896 7.582-29.66l-1.982.264c.023.179 2.255 17.947-7.075 28.047-4.692 5.078-11.571 7.421-20.428 6.949z"/><path d="m346.921 250.911-1.279.232c.181.998 4.141 24.541-20.018 32.106l.389 1.24c25.266-7.911 20.954-33.322 20.908-33.578z"/><path d="m297.302 236.206.443 1.223c.103-.037 10.263-3.668 17.524-.581l.508-1.197c-7.723-3.284-18.041.398-18.475.555z"/></g></svg>