<svg id="Layer_1" enable-background="new 0 0 500 500" viewBox="0 0 500 500" xmlns="http://www.w3.org/2000/svg"><g clip-rule="evenodd" fill-rule="evenodd"><path d="m116.958 318.91h49.287c14.581 0 26.474-11.893 26.474-26.474v-1.821c0-14.581-11.893-26.474-26.474-26.474h-13.687c-23.154 0-41.992-18.776-41.992-42.251 0-23.128 18.864-41.992 41.992-41.992h147.525c75.462 0 108.553 28.967 114.245 111.412 5.679 82.264-33.948 132.574-117.44 132.574h-179.93c-28.659 0-52.033-23.374-52.033-52.033v-.908c0-28.659 23.374-52.033 52.033-52.033zm160.093 65.77h26.451c3.555 0 6.437-2.882 6.437-6.437s-2.882-6.437-6.437-6.437h-26.451c-3.555 0-6.437 2.882-6.437 6.437 0 3.554 2.882 6.437 6.437 6.437zm-171.049 0h38.671c3.555 0 6.437-2.882 6.437-6.437s-2.882-6.437-6.437-6.437h-38.671c-3.555 0-6.437 2.882-6.437 6.437-.001 3.554 2.882 6.437 6.437 6.437zm65.059 0h14.771c3.555 0 6.437-2.882 6.437-6.437s-2.882-6.437-6.437-6.437h-14.771c-3.555 0-6.437 2.882-6.437 6.437 0 3.554 2.882 6.437 6.437 6.437zm77.672-100.41h54.769c3.555 0 6.437-2.882 6.437-6.437s-2.882-6.437-6.437-6.437h-54.769c-3.555 0-6.437 2.882-6.437 6.437 0 3.554 2.882 6.437 6.437 6.437zm28.318 50.205h26.451c3.555 0 6.437-2.882 6.437-6.437s-2.882-6.437-6.437-6.437h-26.451c-3.555 0-6.437 2.882-6.437 6.437s2.882 6.437 6.437 6.437z" fill="#60b7fe"/><path d="m142.763 126.504c-.08-.366-.128-.743-.143-1.129l-2.8-22.123c-.407-3.219-2.101-5.983-4.501-7.843-7.067-5.478-17.123-1.452-18.849 6.976-.708 3.472-4.097 5.712-7.569 5.004s-5.712-4.097-5.004-7.569c3.648-17.808 24.766-25.813 39.267-14.57 4.996 3.874 8.525 9.65 9.379 16.393l2.158 17.047h52.505l-1.954-15.438c-.407-3.219-2.101-5.983-4.501-7.843-7.066-5.478-17.122-1.452-18.849 6.976-.708 3.472-4.097 5.712-7.569 5.004-3.471-.708-5.712-4.097-5.004-7.569 3.648-17.809 24.766-25.812 39.267-14.57 4.997 3.874 8.525 9.65 9.379 16.393l2.799 22.11c.079.364.127.739.142 1.123l3.324 26.262c.079.363.127.738.142 1.122l3.325 26.263c.079.363.127.738.142 1.121l3.309 26.141c.444 3.513-2.044 6.722-5.557 7.166s-6.722-2.044-7.166-5.557l-2.666-21.061h-52.505l2.462 19.452c.444 3.513-2.044 6.722-5.557 7.166s-6.722-2.044-7.166-5.557l-3.307-26.121c-.08-.366-.128-.743-.143-1.13l-3.323-26.255c-.08-.366-.128-.743-.143-1.129zm44.241 5.061h-30.673l1.837 14.51h52.505l-1.837-14.51zm27.135 41.895-1.837-14.51h-52.505l1.837 14.51z" fill="#4187b5"/><path d="m330.589 104.589h31.517v330.928c0 8.668-7.091 15.759-15.759 15.759s-15.759-7.091-15.759-15.759v-330.928z" fill="#fa6e85"/><path d="m263.391 103.905-5.255-55.18h172.291l-5.255 55.18c-.781 8.195-7.604 14.399-15.836 14.399h-130.109c-8.232 0-15.055-6.204-15.836-14.399z" fill="#fa6e85"/><path d="m262.201 91.412-4.065-42.687h172.291l-4.065 42.687z" fill="#19cfba"/><g fill="#ffbf31"><path d="m389.757 187.14c16.974 5.69 30.139 26.667 32.832 52.877 2.694-26.21 15.858-47.188 32.833-52.877-16.974-5.69-30.139-26.666-32.833-52.875-2.694 26.209-15.859 47.185-32.832 52.875z"/><path d="m44.578 254.059c14.341 4.954 25.464 23.216 27.739 46.034 2.276-22.817 13.398-41.08 27.74-46.034-14.341-4.953-25.463-23.215-27.74-46.031-2.276 22.816-13.398 41.078-27.739 46.031z"/><path d="m188.531 346.44c18.453 5.449 32.765 25.537 35.693 50.637 2.929-25.099 17.24-45.188 35.694-50.637-18.453-5.449-32.765-25.536-35.694-50.634-2.929 25.097-17.241 45.185-35.693 50.634z"/></g></g></svg>