<svg id="Layer_1" enable-background="new 0 0 512 512" height="512" viewBox="0 0 512 512" width="512" xmlns="http://www.w3.org/2000/svg"><g><path d="m229.071 174h53.857v188.5h-53.857z" fill="#f0cbac"/><path d="m252.929 174h30v188.5h-30z" fill="#e4b591"/><path d="m448 400.5h-384v-19.357c0-10.296 8.347-18.643 18.643-18.643h346.714c10.296 0 18.643 8.347 18.643 18.643z" fill="#e4b591"/><path d="m429.357 362.5h-30c10.296 0 18.643 8.347 18.643 18.643v19.357h30v-19.357c0-10.296-8.347-18.643-18.643-18.643z" fill="#d29d77"/><path d="m489.5 504.5h-467c-8.284 0-15-6.716-15-15 0-8.284 6.716-15 15-15h467c8.284 0 15 6.716 15 15 0 8.284-6.716 15-15 15z" fill="#d67b42"/><path d="m489.5 474.5h-30c8.284 0 15 6.716 15 15s-6.716 15-15 15h30c8.284 0 15-6.716 15-15s-6.716-15-15-15z" fill="#be652b"/><path d="m56.266 400.5h399.468c5.67 0 10.266 4.596 10.266 10.266v63.734h-420v-63.734c0-5.67 4.596-10.266 10.266-10.266z" fill="#f0cbac"/><path d="m455.734 400.5h-30c5.67 0 10.266 4.596 10.266 10.266v63.734h30v-63.734c0-5.67-4.596-10.266-10.266-10.266z" fill="#e4b591"/><path d="m282.93 97.706v26.294h-53.86v-26.294c0-6.636 2.087-13.103 5.965-18.488 3.878-5.384 5.965-11.852 5.965-18.487v-38.231c0-8.284 6.716-15 15-15 8.284 0 15 6.716 15 15v38.231c0 6.636 2.087 13.103 5.965 18.488 3.878 5.384 5.965 11.851 5.965 18.487z" fill="#f0cbac"/><path d="m276.965 79.218c-3.878-5.384-5.965-11.852-5.965-18.487v-38.231c0-8.284-6.716-15-15-15s-15 6.716-15 15v38.231c0 6.635 2.087 13.103 5.965 18.488s5.965 11.852 5.965 18.488v26.293h30v-26.294c0-6.636-2.087-13.103-5.965-18.488z" fill="#e4b591"/><path d="m321.422 174h-130.844c-15.231 0-27.578-12.347-27.578-27.578v-15.986c0-3.555 2.882-6.437 6.437-6.437h173.127c3.555 0 6.437 2.882 6.437 6.437v15.986c-.001 15.231-12.348 27.578-27.579 27.578z" fill="#e4b591"/><path d="m342.563 124h-30c3.555 0 6.437 2.882 6.437 6.437v15.986c0 15.23-12.347 27.577-27.578 27.577h30c15.231 0 27.578-12.347 27.578-27.578v-15.986c0-3.554-2.882-6.436-6.437-6.436z" fill="#d29d77"/><circle cx="256" cy="270.266" fill="#fde6cd" r="62.266"/><path d="m256 208c-5.173 0-10.194.642-15 1.831 27.14 6.715 47.266 31.219 47.266 60.435s-20.126 53.72-47.266 60.434c4.806 1.189 9.827 1.831 15 1.831 34.388 0 62.266-27.877 62.266-62.266s-27.878-62.265-62.266-62.265z" fill="#f0cbac"/><g><path d="m160.619 362.5c0-243.191 32.722-238.5 32.722-238.5h24.298s-13.171-29.553-46.869-23.413c-69.748 12.708-64.222 261.913-64.222 261.913z" fill="#bbf7ff"/><path d="m208.367 111.406c-.013-.011-77.748-64.628-77.748 251.094h30c0-243.191 32.722-238.5 32.722-238.5h24.298c.001 0-2.848-6.379-9.272-12.594z" fill="#8bf0ff"/><path d="m351.381 362.5c0-243.191-32.722-238.5-32.722-238.5h-24.299s13.171-29.553 46.869-23.413c69.749 12.708 64.223 261.913 64.223 261.913z" fill="#bbf7ff"/><path d="m341.229 100.587c-9.486-1.728-17.345-.628-23.742 1.845 63.153 26.042 57.965 260.068 57.965 260.068h30s5.526-249.206-64.223-261.913z" fill="#8bf0ff"/></g><g><path d="m489.5 467h-16v-56.234c0-9.796-7.97-17.766-17.766-17.766h-.234v-11.857c0-14.415-11.728-26.143-26.143-26.143h-16.307c.197-27.497-.552-121.783-18.534-189.086-1.069-4.002-5.178-6.376-9.182-5.311-4.002 1.069-6.38 5.181-5.311 9.182 17.299 64.746 18.146 158.514 18.01 185.215h-39.163c-.382-136.182-11.237-217.319-31.453-234.844-2.612-2.264-5.031-3.173-6.882-3.498-.074-.015-.15-.023-.225-.037-.066-.01-.133-.021-.197-.03-.236-.035-.476-.059-.719-.072-.101-.007-.199-.012-.295-.015-.033 0-.066-.005-.1-.005h-.051c-.153-.003-.3-.004-.437 0h-9.387c6.133-5.761 16.088-11.209 30.76-8.534 11.687 2.129 22.032 13.538 30.752 33.909 1.63 3.808 6.039 5.576 9.846 3.943 3.808-1.629 5.573-6.038 3.943-9.846-10.823-25.288-24.904-39.677-41.852-42.765-27.013-4.917-44.435 10.359-52.145 22.398v-17.9c0-3.601-.486-7.135-1.433-10.532.334.011.668.026 1.003.026 16.817 0 30.5-13.683 30.5-30.5s-13.681-30.498-30.498-30.498c-4.003 0-7.897.796-11.5 2.264v-5.964c0-12.406-10.094-22.5-22.5-22.5s-22.5 10.094-22.5 22.5v5.964c-3.603-1.468-7.497-2.264-11.5-2.264-16.817 0-30.5 13.683-30.5 30.5s13.683 30.5 30.5 30.5c.335 0 .669-.015 1.003-.026-.947 3.397-1.433 6.931-1.433 10.532v17.9c-7.711-12.039-25.14-27.315-52.145-22.398-20.174 3.676-36.248 23.398-47.777 58.621-8.416 25.712-14.628 59.946-18.463 101.751-.378 4.125 2.659 7.775 6.783 8.154 4.135.381 7.776-2.658 8.154-6.783 11.133-121.359 38.606-144.183 53.992-146.985 14.679-2.676 24.633 2.776 30.762 8.534h-9.388c-.125-.003-.258-.002-.396 0h-.092c-.075 0-.147.009-.221.011-.028.001-.056.002-.084.004-.431.017-.854.064-1.262.151-1.848.33-4.251 1.238-6.849 3.49-20.217 17.525-31.072 98.662-31.454 234.844h-39.168c-.068-11.995.052-37.517 1.774-67.699.235-4.136-2.926-7.68-7.061-7.916-4.136-.22-7.679 2.925-7.916 7.061-1.737 30.44-1.865 56.27-1.797 68.555h-16.319c-14.415-.001-26.143 11.727-26.143 26.142v11.857h-.234c-9.796 0-17.766 7.97-17.766 17.766v56.234h-16c-12.406 0-22.5 10.094-22.5 22.5s10.094 22.5 22.5 22.5h297.885c4.143 0 7.5-3.357 7.5-7.5s-3.357-7.5-7.5-7.5h-297.885c-4.136 0-7.5-3.364-7.5-7.5s3.364-7.5 7.5-7.5h467c4.136 0 7.5 3.364 7.5 7.5s-3.364 7.5-7.5 7.5h-137.115c-4.143 0-7.5 3.357-7.5 7.5s3.357 7.5 7.5 7.5h137.115c12.406 0 22.5-10.094 22.5-22.5s-10.094-22.5-22.5-22.5zm-214.07-263.726c-6.172-1.793-12.687-2.774-19.43-2.774s-13.257.98-19.43 2.774v-21.774h38.859v21.774zm-19.43 12.226c27.864 0 50.918 20.922 54.317 47.879h-108.634c3.399-26.957 26.453-47.879 54.317-47.879zm54.161 62.879c-3.933 26.364-26.719 46.652-54.161 46.652s-50.229-20.288-54.161-46.652zm-73.591 58.879c6.172 1.793 12.687 2.774 19.43 2.774s13.257-.98 19.43-2.774v17.742h-38.86zm53.86-6.352c18.851-10.745 32.228-30.012 34.849-52.527h1.721c4.143 0 7.5-3.357 7.5-7.5s-3.357-7.5-7.5-7.5h-1.577c-2.269-23.042-15.8-42.813-34.993-53.754v-28.125h30.99c4.071 0 8.091-.717 11.875-2.078 6.805 39.756 10.36 98.707 10.575 175.578h-53.44zm-.43-289.706c8.547 0 15.5 6.953 15.5 15.5s-6.953 15.5-15.5 15.5c-3.867 0-7.473-1.397-10.3-3.945-.79-2.407-1.2-4.938-1.2-7.525v-14.412c2.92-3.234 7.083-5.118 11.5-5.118zm-34-26.2c4.136 0 7.5 3.364 7.5 7.5v21.185.023 17.022c0 8.26 2.552 16.168 7.379 22.872 2.978 4.133 4.551 9.01 4.551 14.104v18.794h-38.86v-18.794c0-5.094 1.573-9.971 4.551-14.104 4.827-6.703 7.379-14.611 7.379-22.871v-17.023c0-.008 0-.016 0-.023v-21.185c0-4.136 3.364-7.5 7.5-7.5zm-49.5 41.7c0-8.547 6.953-15.5 15.5-15.5 4.417 0 8.58 1.884 11.5 5.118v14.412c0 2.588-.41 5.118-1.2 7.525-2.827 2.547-6.433 3.945-10.3 3.945-8.547 0-15.5-6.953-15.5-15.5zm-12.097 74.8h123.193c1.494 1.313 7.155 7.735 12.77 32.889-2.746 1.378-5.773 2.111-8.947 2.111h-130.839c-3.174 0-6.201-.732-8.947-2.111 5.616-25.154 11.276-31.576 12.77-32.889zm-15.697 47.922c3.784 1.361 7.804 2.078 11.875 2.078h30.99v28.125c-19.193 10.94-32.724 30.712-34.993 53.754h-1.578c-4.143 0-7.5 3.357-7.5 7.5s3.357 7.5 7.5 7.5h1.721c2.621 22.515 15.998 41.782 34.849 52.527v24.094h-53.44c.216-76.871 3.77-135.822 10.576-175.578zm-107.206 201.721c0-6.145 4.998-11.143 11.143-11.143h346.715c6.145 0 11.143 4.998 11.143 11.143v11.857h-369v-11.857zm-18 85.857v-56.234c0-1.525 1.24-2.766 2.766-2.766h399.469c1.525 0 2.766 1.24 2.766 2.766v56.234z"/><path d="m89 423c-4.143 0-7.5 3.357-7.5 7.5v14c0 4.143 3.357 7.5 7.5 7.5s7.5-3.357 7.5-7.5v-14c0-4.143-3.357-7.5-7.5-7.5z"/><path d="m136.714 423c-4.143 0-7.5 3.357-7.5 7.5v14c0 4.143 3.357 7.5 7.5 7.5s7.5-3.357 7.5-7.5v-14c0-4.143-3.358-7.5-7.5-7.5z"/><path d="m184.429 423c-4.143 0-7.5 3.357-7.5 7.5v14c0 4.143 3.357 7.5 7.5 7.5s7.5-3.357 7.5-7.5v-14c0-4.143-3.358-7.5-7.5-7.5z"/><path d="m232.143 423c-4.143 0-7.5 3.357-7.5 7.5v14c0 4.143 3.357 7.5 7.5 7.5s7.5-3.357 7.5-7.5v-14c0-4.143-3.358-7.5-7.5-7.5z"/><path d="m279.857 423c-4.143 0-7.5 3.357-7.5 7.5v14c0 4.143 3.357 7.5 7.5 7.5s7.5-3.357 7.5-7.5v-14c0-4.143-3.357-7.5-7.5-7.5z"/><path d="m327.571 423c-4.143 0-7.5 3.357-7.5 7.5v14c0 4.143 3.357 7.5 7.5 7.5s7.5-3.357 7.5-7.5v-14c0-4.143-3.357-7.5-7.5-7.5z"/><path d="m375.286 423c-4.143 0-7.5 3.357-7.5 7.5v14c0 4.143 3.357 7.5 7.5 7.5s7.5-3.357 7.5-7.5v-14c0-4.143-3.357-7.5-7.5-7.5z"/><path d="m423 423c-4.143 0-7.5 3.357-7.5 7.5v14c0 4.143 3.357 7.5 7.5 7.5s7.5-3.357 7.5-7.5v-14c0-4.143-3.357-7.5-7.5-7.5z"/></g></g></svg>