<?xml version="1.0"?>
<svg xmlns="http://www.w3.org/2000/svg" viewBox="0 0 64 64"><g data-name="22 Pool clean" id="_22_Pool_clean"><g><path d="M47.564,38.654A1.923,1.923,0,0,1,49,37.978h0a1.927,1.927,0,0,1,1.44.681A3.926,3.926,0,0,0,53.369,40a3.826,3.826,0,0,0,2.2-.7,1,1,0,0,0-1.146-1.639,1.858,1.858,0,0,1-2.5-.337A3.9,3.9,0,0,0,49,35.978h0a3.9,3.9,0,0,0-2.926,1.343,1.852,1.852,0,0,1-2.5.33,1,1,0,0,0-1.148,1.639A3.852,3.852,0,0,0,47.564,38.654Z"/><path d="M25.574,46.651a1,1,0,0,0-1.148,1.639,3.853,3.853,0,0,0,5.138-.636A1.923,1.923,0,0,1,31,46.978h0a1.927,1.927,0,0,1,1.44.681A3.926,3.926,0,0,0,35.369,49a3.826,3.826,0,0,0,2.2-.7,1,1,0,0,0-1.146-1.639,1.857,1.857,0,0,1-2.5-.337A3.9,3.9,0,0,0,31,44.978h0a3.9,3.9,0,0,0-2.926,1.343A1.852,1.852,0,0,1,25.574,46.651Z"/><path d="M40.181,55.9a1,1,0,0,0,.245,1.394,3.853,3.853,0,0,0,5.138-.636A1.923,1.923,0,0,1,47,55.978h0a1.927,1.927,0,0,1,1.44.681A3.926,3.926,0,0,0,51.369,58a3.826,3.826,0,0,0,2.2-.7,1,1,0,0,0-1.146-1.639,1.857,1.857,0,0,1-2.5-.337A3.9,3.9,0,0,0,47,53.978h0a3.9,3.9,0,0,0-2.926,1.343,1.853,1.853,0,0,1-2.5.33A1,1,0,0,0,40.181,55.9Z"/><path d="M20.427,55.655a1.857,1.857,0,0,1-2.5-.337A3.9,3.9,0,0,0,15,53.978h0a3.9,3.9,0,0,0-2.926,1.343,1.853,1.853,0,0,1-2.5.33A1,1,0,0,0,8.426,57.29a3.853,3.853,0,0,0,5.138-.636A1.923,1.923,0,0,1,15,55.978h0a1.927,1.927,0,0,1,1.44.681A3.926,3.926,0,0,0,19.369,58a3.826,3.826,0,0,0,2.2-.7,1,1,0,0,0-1.146-1.639Z"/><path d="M.837,21.857A9.759,9.759,0,0,1,8.884,29.9a1,1,0,0,0,1.974,0,9.76,9.76,0,0,1,8.047-8.047,1,1,0,0,0,0-1.972,9.76,9.76,0,0,1-8.047-8.047,1,1,0,0,0-1.974,0A9.759,9.759,0,0,1,.837,19.885a1,1,0,0,0,0,1.972Zm9.034-6.545a11.772,11.772,0,0,0,5.559,5.559A11.772,11.772,0,0,0,9.871,26.43a11.764,11.764,0,0,0-5.559-5.559A11.764,11.764,0,0,0,9.871,15.312Z"/><path d="M26.776,34.32a6.648,6.648,0,0,1-5.482-5.482,1,1,0,0,0-1.974,0,6.648,6.648,0,0,1-5.483,5.482,1,1,0,0,0,0,1.973,6.65,6.65,0,0,1,5.483,5.483,1,1,0,0,0,1.974,0,6.65,6.65,0,0,1,5.482-5.483,1,1,0,0,0,0-1.973Zm-6.469,4.31a8.647,8.647,0,0,0-3.323-3.323,8.657,8.657,0,0,0,3.323-3.324,8.657,8.657,0,0,0,3.323,3.324A8.647,8.647,0,0,0,20.307,38.63Z"/><path d="M17.837,8.293a6.65,6.65,0,0,1,5.483,5.483,1,1,0,0,0,1.974,0,6.65,6.65,0,0,1,5.482-5.483,1,1,0,0,0,0-1.973A6.648,6.648,0,0,1,25.294.838a1,1,0,0,0-1.974,0A6.648,6.648,0,0,1,17.837,6.32a1,1,0,0,0,0,1.973Zm6.47-4.31A8.657,8.657,0,0,0,27.63,7.307a8.647,8.647,0,0,0-3.323,3.323,8.647,8.647,0,0,0-3.323-3.323A8.657,8.657,0,0,0,24.307,3.983Z"/><path d="M63.968,60.568,58.245,22.553A2.983,2.983,0,0,0,55.278,20H49V18a4,4,0,0,0-8,0v6H33V18a2,2,0,0,1,4,0,1,1,0,0,0,2,0,4,4,0,0,0-8,0v2H23a1,1,0,0,0,0,2h8v9a1,1,0,0,0,2,0V26h8v5a1,1,0,0,0,2,0V22H55.278a1,1,0,0,1,.99.851L61.99,60.858A1,1,0,0,1,61,62H3a1,1,0,0,1-.991-1.135L6.7,29.689a1,1,0,1,0-1.977-.3L.031,60.575A3,3,0,0,0,3,64H61a3,3,0,0,0,2.968-3.432ZM43,18a2,2,0,0,1,4,0v2H43Z"/></g></g></svg>
