<svg id="Capa_1" enable-background="new 0 0 511.998 511.998" height="512" viewBox="0 0 511.998 511.998" width="512" xmlns="http://www.w3.org/2000/svg"><g fill="#0284c7"><g><g><path d="m72.894 182.275c-3.282-2.526-7.991-1.914-10.518 1.369-18.214 23.665-27.733 51.907-27.529 81.671.245 35.413 14.221 68.667 39.354 93.638 25.145 24.983 58.514 38.742 93.963 38.742 17.729 0 34.934-3.417 51.138-10.156 20.835-8.666 42.657-13.059 64.861-13.059 14.27 0 28.419 1.861 42.051 5.531.168.046.338.088.507.129l.157.039c4.007 1.048 8.106-1.347 9.156-5.354s-1.347-8.106-5.354-9.156l-.562-.141c-14.907-4.013-30.369-6.048-45.955-6.048-24.191 0-47.951 4.781-70.621 14.209-14.369 5.976-29.637 9.005-45.378 9.005-31.46 0-61.076-12.21-83.391-34.382-22.306-22.162-34.709-51.674-34.926-83.1-.181-26.388 8.262-51.43 24.416-72.42 2.527-3.281 1.914-7.99-1.369-10.517z"/><path d="m473.636 162.178c-2.735-3.11-7.475-3.415-10.585-.679-3.11 2.735-3.414 7.474-.679 10.585 22.116 25.148 34.412 57.599 34.622 91.376.243 37.464-14.16 72.729-40.557 99.297-26.399 26.57-61.562 41.204-99.014 41.204-12.327 0-24.56-1.612-36.362-4.792-30.573-8.225-64.005-5.849-94.141 6.688-18.61 7.747-38.378 11.674-58.757 11.674-83.873 0-152.581-68.224-153.16-152.082-.543-78.323 58.224-144.112 135.184-153.178v20.011c-8.458 1.151-16.788 3.111-24.838 5.875-13.68 4.695-26.488 11.608-38.068 20.547-3.279 2.531-3.885 7.241-1.354 10.52 1.478 1.914 3.698 2.917 5.942 2.917 1.6 0 3.213-.51 4.577-1.563 10.282-7.937 21.645-14.071 33.773-18.233 6.484-2.227 13.174-3.862 19.968-4.909v35.281c0 6.893 5.607 12.5 12.5 12.5h32.802c6.893 0 12.5-5.607 12.5-12.5v-29.783c2.073.741 4.135 1.526 6.166 2.386 21.755 9.191 45.024 13.851 69.159 13.851 15.946 0 31.946-2.067 47.563-6.146 8.349-2.189 17.018-3.328 25.808-3.385l.749-.01c27.984 0 54.235 10.762 73.916 30.302 19.687 19.547 30.627 45.737 30.804 73.748.187 28.11-10.62 54.573-30.432 74.515-18.76 18.891-43.719 29.843-70.279 30.84-4.139.155-7.369 3.637-7.213 7.776.152 4.043 3.478 7.219 7.49 7.219.095 0 .19-.001.286-.005 30.373-1.14 58.912-13.662 80.359-35.259 22.647-22.797 35.002-53.05 34.789-85.183-.203-31.999-12.716-61.936-35.236-84.295-22.509-22.349-52.513-34.658-84.575-34.657l-.797.01c-9.999.064-19.916 1.368-29.467 3.873-14.373 3.753-29.097 5.657-43.765 5.657-22.119 0-43.423-4.262-63.316-12.667-3.929-1.663-7.952-3.121-12.008-4.386v-20.663c6.709 1.803 13.319 4.063 19.735 6.774 28.979 12.246 62.481 14.408 94.34 6.087 11.118-2.912 22.67-4.432 34.333-4.516 29.88-.21 58.44 8.792 82.497 26.036 1.324.949 2.851 1.405 4.363 1.405 2.335 0 4.638-1.088 6.102-3.131 2.413-3.367 1.64-8.052-1.726-10.465-26.652-19.105-58.248-29.049-91.344-28.845-12.909.094-25.703 1.777-38.021 5.004-28.671 7.488-58.755 5.574-84.706-5.393-8.285-3.5-16.864-6.321-25.574-8.437v-9.009c0-6.893-5.607-12.5-12.5-12.5h-32.802c-6.893 0-12.5 5.607-12.5 12.5v5.216c-39.909 4.302-76.874 22.812-104.726 52.607-29.611 31.679-45.754 72.791-45.457 115.765.309 44.669 17.938 86.616 49.642 118.112 31.718 31.512 73.808 48.866 118.519 48.866 22.368 0 44.076-4.315 64.521-12.825 27.089-11.271 57.092-13.42 84.478-6.053 13.071 3.522 26.617 5.308 40.261 5.308 41.476 0 80.419-16.206 109.654-45.631 29.233-29.424 45.185-68.478 44.916-109.965-.234-37.39-13.856-73.325-38.359-101.187zm-308.448-67.711h27.802v85.751h-27.802z"/><path d="m155.732 254.274c-16.345 0-29.643 13.297-29.643 29.642s13.297 29.643 29.643 29.643 29.643-13.297 29.643-29.643c0-16.345-13.298-29.642-29.643-29.642zm0 44.284c-8.074 0-14.643-6.569-14.643-14.643s6.569-14.642 14.643-14.642 14.643 6.568 14.643 14.642-6.569 14.643-14.643 14.643z"/><path d="m155.732 222.491c-33.87 0-61.425 27.555-61.425 61.424s27.555 61.425 61.425 61.425h67.189c4.142 0 7.5-3.358 7.5-7.5s-3.358-7.5-7.5-7.5h-27.037c6.268-5.428 11.436-12.091 15.104-19.62h107.207c4.142 0 7.5-3.358 7.5-7.5s-3.358-7.5-7.5-7.5h-102.189c.747-3.823 1.15-7.767 1.15-11.805 0-33.869-27.554-61.424-61.424-61.424zm0 107.85c-25.599 0-46.425-20.826-46.425-46.425s20.826-46.424 46.425-46.424 46.424 20.826 46.424 46.424-20.825 46.425-46.424 46.425z"/><path d="m407.279 224.993c0-4.142-3.358-7.5-7.5-7.5h-80.456c-4.142 0-7.5 3.358-7.5 7.5s3.358 7.5 7.5 7.5h80.456c4.142 0 7.5-3.357 7.5-7.5z"/><path d="m364.262 201.764c4.142 0 7.5-3.358 7.5-7.5s-3.358-7.5-7.5-7.5h-18.121c-4.142 0-7.5 3.358-7.5 7.5s3.358 7.5 7.5 7.5z"/><path d="m359.426 310.721h13.534c4.142 0 7.5-3.358 7.5-7.5s-3.358-7.5-7.5-7.5h-13.534c-4.142 0-7.5 3.358-7.5 7.5s3.358 7.5 7.5 7.5z"/><path d="m256.287 200.535h-36.967c-4.142 0-7.5 3.358-7.5 7.5s3.358 7.5 7.5 7.5h36.966c4.142 0 7.5-3.358 7.5-7.5s-3.357-7.5-7.499-7.5z"/><path d="m238.669 253.699c0 4.142 3.358 7.5 7.5 7.5h17.396c4.142 0 7.5-3.358 7.5-7.5s-3.358-7.5-7.5-7.5h-17.396c-4.142 0-7.5 3.358-7.5 7.5z"/></g></g></g></svg>