<svg id="Capa_1" enable-background="new 0 0 512 512" viewBox="0 0 512 512" xmlns="http://www.w3.org/2000/svg"><g><g><g><g><path d="m473.34 196.943-52.28 6.73-230.85 28.65c-33.98 0-61.38-28.21-60.05-62.49 1.17-30.5 25.49-55.54 55.94-57.58 7.85-.53 15.41.47 22.41 2.7 4.73 1.51 9.2 3.59 13.34 6.16 1.16-5.54 4.2-10.71 9.04-14.44 9.1-7.01 21.54-6.63 30.18.15 2.67-4.31 6.25-7.98 10.48-10.76 5.44-3.56 11.95-5.64 18.94-5.64 7.13 0 13.75 2.16 19.25 5.86 1.28.85 2.97.67 3.97-.49 11.02-12.64 27.23-20.63 45.31-20.63 24.44 0 45.45 14.59 54.84 35.53.54 1.2 1.81 1.88 3.11 1.71 1.51-.19 3.501 1.051 5.051 1.051 16.56 0 28.367 9.666 33.097 24.666 1.1 3.52 1.797 7.113 1.797 10.993 0 1.3.556 4.272.426 5.532.26 0 2.038-.225 2.298-.255l.17.426c7.74-.35 13.558 2.421 18.638 9.021 8.29 10.76 5.643 24.816-5.107 33.106z" fill="#f2fbff"/><path d="m475.3 196.943-54.24 6.73c.81-3.37 2.28-7.08 4.54-11.16 26.89-48.6-8.63-80.11-8.63-80.11 1.51-.19 3.04-.29 4.59-.29 16.56 0 30.59 10.88 35.32 25.88 1.1 3.52-3.625 5.538-3.625 9.418 0 1.3 5.255 4.292 5.125 5.552.26 0 .51-.01.77-.04h.01c7.74-.35 15.52 2.93 20.6 9.53 8.29 10.76 6.29 26.2-4.46 34.49z" fill="#e4f3f7"/></g><g><path d="m375.553 223.457c-23.489 0-42.599-19.11-42.599-42.599 0-4.142 3.357-7.5 7.5-7.5s7.5 3.358 7.5 7.5c0 15.218 55.198 15.218 55.198 0 0-4.142 3.357-7.5 7.5-7.5s7.5 3.358 7.5 7.5c0 23.489-19.11 42.599-42.599 42.599z" fill="#e4f3f7"/></g><path d="m25.654 232.323h456.452v233.257h-456.452z" fill="#c38f86"/><path d="m467.128 232.323h19.218v233.257h-19.218z" fill="#b87d72"/><path d="m321.282 417.56-128.197-5.894-11.064-23.253 4.697-15.518c0-2.761 2.239-5 5-5h100.431l24.133 3c2.761 0 5 2.239 5 5z" fill="#7a6d79"/><path d="m320.282 367.895h-30c2.761 0 5 2.239 5 5v11.025c0 2.482-2.012 4.493-4.493 4.493h-108.768v26.147h113.261 34.654v-26.147l-4.654-15.518c0-2.762-2.238-5-5-5z" fill="#685e68"/><path d="m494.195 245.128-26.557 2h-449.833c-5.691 0-10.305-4.614-10.305-10.305v-34.029c0-5.691 4.614-10.305 10.305-10.305h449.663l26.727 2c5.691 0 8.305 2.614 8.305 8.305v34.029c0 5.692-2.614 8.305-8.305 8.305z" fill="#7a6d79"/><path d="m494.195 192.49h-30c5.691 0 10.305 4.614 10.305 10.305v34.029c0 5.691-4.614 10.305-10.305 10.305h30c5.691 0 10.305-4.614 10.305-10.305v-34.029c0-5.692-4.614-10.305-10.305-10.305z" fill="#685e68"/><path d="m403.15 180.863c-.01 15.22-12.38 27.59-27.6 27.59s-27.59-12.37-27.6-27.59z" fill="#f2fbff"/><path d="m201.778 185.599c0-5.776-4.682-10.458-10.458-10.458l-25.469-2h-77.517c-5.776 0-10.458 4.682-10.458 10.458v95.706l62.951 14.574 60.951-14.574z" fill="#a6e7f0"/><path d="m193.32 173.141h-30c5.776 0 10.458 4.682 10.458 10.458v102.651l30-6.946v-95.706c0-5.775-4.682-10.457-10.458-10.457z" fill="#6bd9e7"/><g fill="#e4f3f7"><circle cx="440.891" cy="53.375" r="23.197"/><circle cx="114.964" cy="68.517" r="15.143"/><circle cx="57.692" cy="124.347" r="20.185"/></g><path d="m77.877 279.305v23.36c0 5.776 4.682 10.458 10.458 10.458h79.559l23.426-2c5.776 0 10.458-4.682 10.458-10.458l-.948-18.105-27.052-3.255z" fill="#f2fbff"/><path d="m173.778 279.305v23.36c0 5.776-4.682 10.458-10.458 10.458h30c5.776 0 10.458-4.682 10.458-10.458v-23.36z" fill="#e4f3f7"/><path d="m365.684 454.59h-221.368v-36.177c0-5.523 4.477-10 10-10h175.62l25.748 2c5.523 0 10 4.477 10 10z" fill="#7a6d79"/><path d="m357.684 408.413h-30c5.523 0 10 4.477 10 10v36.177h30v-36.177c0-5.522-4.477-10-10-10z" fill="#685e68"/><path d="m494.195 479.82-26.216 2h-450.174c-5.691 0-10.305-4.614-10.305-10.305v-12.278c0-5.691 4.614-10.305 10.305-10.305h449.323l27.067 2c5.691 0 8.305 2.614 8.305 8.305v12.278c0 5.692-2.614 8.305-8.305 8.305z" fill="#685e68"/><path d="m494.195 448.932h-30c5.691 0 10.305 4.614 10.305 10.305v12.278c0 5.691-4.614 10.305-10.305 10.305h30c5.691 0 10.305-4.614 10.305-10.305v-12.278c0-5.691-4.614-10.305-10.305-10.305z" fill="#554e56"/></g></g><g><path d="m323.462 129.132c-1.501 4.344-4.604 7.844-8.738 9.854-4.133 2.01-8.805 2.29-13.147.788-3.915-1.354-8.186.724-9.539 4.638-1.353 3.915.724 8.185 4.639 9.539 3.448 1.192 7.005 1.784 10.55 1.784 4.812 0 9.602-1.092 14.058-3.259 7.736-3.762 13.546-10.312 16.356-18.443 1.353-3.915-.724-8.186-4.639-9.539-3.916-1.355-8.186.724-9.54 4.638z"/><path d="m494.195 254.628c9.817 0 17.805-7.987 17.805-17.805v-34.029c0-9.818-7.987-17.805-17.805-17.805h-2.731c2.233-9.262.294-19.259-5.761-27.111-4.928-6.402-11.976-10.606-19.74-11.989-1.644-23.815-22.483-42.528-46.668-41.216-6.316-12.435-16.373-22.689-28.787-29.234-3.669-1.934-8.201-.527-10.133 3.136-1.932 3.664-.527 8.201 3.137 10.132 10.997 5.798 19.618 15.336 24.275 26.856 1.337 3.307 4.82 5.216 8.321 4.563 1.839-.341 3.673-.514 5.451-.514 15.322 0 27.951 11.735 29.382 26.688-4.377.987-8.533 2.909-12.224 5.567-3.41 2.353-4.267 7.023-1.914 10.433 1.455 2.109 3.797 3.241 6.18 3.241 1.469 0 2.952-.43 4.252-1.327 3.388-2.546 7.484-3.836 11.716-3.774 5.798-.439 11.352 2.02 14.87 6.592 4.013 5.205 4.642 12.174 1.803 17.957h-57.675c.132-1.36.204-2.738.204-4.132 0-4.142-3.357-7.5-7.5-7.5s-7.5 3.358-7.5 7.5c0 15.218-12.381 27.599-27.6 27.599-15.218 0-27.599-12.381-27.599-27.599 0-4.142-3.357-7.5-7.5-7.5s-7.5 3.358-7.5 7.5c0 1.394.072 2.772.204 4.132h-121.878v-1.387c0-9.903-8.057-17.96-17.96-17.96h-55.308c1.467-11.807 6.87-22.714 15.509-31.124 9.875-9.613 22.904-14.907 36.688-14.907 8.237 0 16.305 1.927 23.599 5.593-.157 6.878 2.233 13.676 6.834 18.948 1.482 1.699 3.562 2.568 5.653 2.568 1.75 0 3.507-.609 4.929-1.85 3.121-2.724 3.442-7.461.719-10.582-5.762-6.43-2.933-16.848 3.523-21.676 9.955-8.268 27.091-1.125 26.781 12.212 0 4.142 3.357 7.5 7.5 7.5s7.5-3.358 7.5-7.5c0-6.79-2.249-13.288-6.307-18.563 5.05-5.293 12.031-8.34 19.549-8.34 6.166 0 11.979 2.025 16.81 5.856 3.241 2.573 7.957 2.031 10.532-1.21 8.737-10.995 21.183-17.937 35.043-19.546 4.114-.478 7.062-4.201 6.585-8.315-.479-4.115-4.204-7.06-8.315-6.584-15.539 1.805-29.688 8.811-40.498 19.929-6.141-3.373-12.995-5.129-20.156-5.129-12.175 0-23.457 5.129-31.363 14.005-10.618-4.816-23.258-3.557-32.815 3.804-3.468 2.672-6.326 6.016-8.429 9.796-8.662-3.889-18.081-5.916-27.673-5.916-17.715 0-34.46 6.804-47.151 19.158-11.555 11.249-18.588 25.979-20.119 41.872h-34.61c-9.897 0-17.95 8.057-17.95 17.96v1.387h-52.575c-9.818.002-17.805 7.989-17.805 17.807v34.029c0 9.817 7.987 17.805 17.805 17.805h.35v186.805h-.345c-9.82 0-17.81 7.985-17.81 17.8v12.28c0 9.82 7.989 17.81 17.81 17.81h264.23c4.143 0 7.5-3.358 7.5-7.5s-3.357-7.5-7.5-7.5h-264.23c-1.549 0-2.81-1.26-2.81-2.81v-12.28c0-1.544 1.261-2.8 2.81-2.8h476.38c1.549 0 2.81 1.256 2.81 2.8v12.28c0 1.549-1.261 2.81-2.81 2.81h-177.15c-4.143 0-7.5 3.358-7.5 7.5s3.357 7.5 7.5 7.5h177.15c9.82 0 17.81-7.989 17.81-17.81v-12.28c0-9.815-7.989-17.8-17.81-17.8h-.345v-186.806zm-156.685-54.638c7.021 13.904 21.432 23.467 38.043 23.467s31.022-9.563 38.044-23.467h80.599c1.547 0 2.805 1.258 2.805 2.805v34.029c0 1.546-1.258 2.805-2.805 2.805h-282.916v-39.639zm22.674 241.443h-208.368v-23.02c0-1.378 1.121-2.5 2.5-2.5h203.367c1.379 0 2.5 1.122 2.5 2.5v23.02zm-223.826-120.81v17.189c0 1.724-.672 3.345-1.892 4.565-4.052 4.052-6.283 9.44-6.283 15.171v24.699c0 4.142 3.357 7.5 7.5 7.5s7.5-3.358 7.5-7.5v-24.699c0-1.725.671-3.346 1.891-4.565 4.053-4.053 6.284-9.44 6.284-15.171v-17.189h20.359v80.291h-17.401c-9.649 0-17.5 7.851-17.5 17.5v23.02h-26.88v-120.81h26.422zm74.922-17.96v-48.035h37.22v105.767h-61.782v-39.772h6.603c9.903 0 17.959-8.057 17.959-17.96zm-24.562 98.25v-25.519h138.564v25.519zm138.564-40.518h-61.782v-105.767h61.782zm-236.952-179.752h104.99c1.632 0 2.96 1.328 2.96 2.96v88.2h-55.19c-4.143 0-7.5 3.358-7.5 7.5s3.357 7.5 7.5 7.5h55.19v15.86c0 1.632-1.328 2.96-2.96 2.96h-104.99c-1.627 0-2.95-1.328-2.95-2.96v-15.86h20.71c4.143 0 7.5-3.358 7.5-7.5s-3.357-7.5-7.5-7.5h-20.71v-88.2c0-1.633 1.323-2.96 2.95-2.96zm-73.33 56.18v-34.029c0-1.547 1.258-2.805 2.805-2.805h52.575v39.639h-52.575c-1.547 0-2.805-1.258-2.805-2.805zm18.154 17.805h37.226v48.035c0 9.903 8.053 17.96 17.95 17.96h6.606v120.81h-23.391v-59.186c0-4.142-3.357-7.5-7.5-7.5s-7.5 3.358-7.5 7.5v59.186h-23.391zm445.692 186.805h-16.327v-37.026c0-8.445-3.288-16.384-9.261-22.357-3.139-3.138-4.867-7.312-4.867-11.75v-35.287c0-4.142-3.357-7.5-7.5-7.5s-7.5 3.358-7.5 7.5v35.287c0 8.446 3.289 16.386 9.261 22.357 3.139 3.139 4.867 7.312 4.867 11.75v37.026h-30.459v-58.94c0-4.142-3.357-7.5-7.5-7.5s-7.5 3.358-7.5 7.5v58.94h-26.876v-23.02c0-9.649-7.851-17.5-17.5-17.5h-17.401v-146.285h23.391v50.257c0 4.142 3.357 7.5 7.5 7.5s7.5-3.358 7.5-7.5v-50.257h23.387v92.865c0 4.142 3.357 7.5 7.5 7.5s7.5-3.358 7.5-7.5v-92.865h61.786v186.805z"/><path d="m294.391 334.003c4.143 0 7.5-3.358 7.5-7.5v-49.362c0-4.142-3.357-7.5-7.5-7.5s-7.5 3.358-7.5 7.5v49.362c0 4.142 3.357 7.5 7.5 7.5z"/><path d="m440.891 84.072c16.927 0 30.697-13.771 30.697-30.697s-13.771-30.697-30.697-30.697-30.697 13.771-30.697 30.697 13.77 30.697 30.697 30.697zm0-46.395c8.655 0 15.697 7.042 15.697 15.697s-7.042 15.697-15.697 15.697-15.697-7.042-15.697-15.697 7.041-15.697 15.697-15.697z"/><path d="m114.964 91.16c12.485 0 22.643-10.157 22.643-22.643s-10.157-22.643-22.643-22.643-22.643 10.158-22.643 22.643 10.158 22.643 22.643 22.643zm0-30.285c4.214 0 7.643 3.428 7.643 7.643s-3.429 7.643-7.643 7.643-7.643-3.428-7.643-7.643 3.429-7.643 7.643-7.643z"/><path d="m57.691 152.032c15.266 0 27.686-12.419 27.686-27.685s-12.42-27.686-27.686-27.686-27.686 12.419-27.686 27.686c.001 15.266 12.421 27.685 27.686 27.685zm0-40.37c6.995 0 12.686 5.691 12.686 12.686s-5.69 12.685-12.686 12.685-12.686-5.69-12.686-12.685 5.691-12.686 12.686-12.686z"/></g></g><g/><g/><g/><g/><g/><g/><g/><g/><g/><g/><g/><g/><g/><g/><g/></svg>