<svg id="Capa_1" enable-background="new 0 0 512 512" viewBox="0 0 512 512" xmlns="http://www.w3.org/2000/svg"><g><g><path d="m475.989 187.803 21.003 107.843c7.498 38.502-21.988 74.285-61.213 74.285h-359.557c-39.226 0-68.712-35.782-61.213-74.285l21.003-107.843z" fill="#bc9af4"/><path d="m173.611 219.757c0-10.829.7-21.495 2.057-31.954h-139.657l-21.003 107.843c-7.498 38.502 21.988 74.284 61.214 74.284h148.553c-32.079-41.54-51.164-93.628-51.164-150.173z" fill="#6864f7"/><path d="m502 164.936c0 12.629-10.238 22.867-22.867 22.867h-446.266c-12.629 0-22.867-10.238-22.867-22.867 0-12.629 10.238-22.867 22.867-22.867h446.267c12.628.001 22.866 10.238 22.866 22.867z" fill="#d2dcfd"/><path d="m186.135 142.07h-153.268c-12.629 0-22.867 10.237-22.867 22.866s10.238 22.867 22.867 22.867h142.802c2.045-15.762 5.582-31.055 10.466-45.733z" fill="#93b2f4"/></g><g><path d="m130.411 87.89c-8.551 0-16.332 3.362-22.09 8.834-5.758-5.472-13.539-8.834-22.09-8.834-17.694 0-32.09 14.396-32.09 32.09v22.09h20v-22.09c0-6.667 5.423-12.09 12.09-12.09s12.09 5.423 12.09 12.09v22.09h20v-22.09c0-6.667 5.423-12.09 12.09-12.09s12.09 5.423 12.09 12.09v22.09h20v-22.09c-.001-17.694-14.396-32.09-32.09-32.09z" fill="#d2dcfd"/><path d="m487.894 196.617c13.883-3.844 24.106-16.591 24.106-31.681 0-18.123-14.744-32.866-32.866-32.866h-446.267c-18.123 0-32.867 14.743-32.867 32.866 0 15.09 10.223 27.837 24.107 31.681l-18.914 97.117c-4.147 21.294 1.387 43.11 15.184 59.853 13.796 16.742 34.151 26.344 55.845 26.344h27.797v24.179h-11.544c-5.523 0-10 4.477-10 10s4.477 10 10 10h43.088c5.523 0 10-4.477 10-10s-4.477-10-10-10h-11.544v-24.179h121.981v24.179h-11.544c-5.523 0-10 4.477-10 10s4.477 10 10 10h43.088c5.522 0 10-4.477 10-10s-4.478-10-10-10h-11.544v-24.179h121.981v24.179h-11.544c-5.522 0-10 4.477-10 10s4.478 10 10 10h43.088c5.522 0 10-4.477 10-10s-4.478-10-10-10h-11.544v-24.179h27.797c21.694 0 42.05-9.603 55.846-26.345s19.33-38.558 15.183-59.852zm-467.894-31.681c0-7.094 5.772-12.866 12.867-12.866h446.267c7.095 0 12.866 5.772 12.866 12.866 0 7.095-5.771 12.867-12.866 12.867h-446.267c-7.095 0-12.867-5.772-12.867-12.867zm56.222 194.995c-15.698 0-30.427-6.948-40.411-19.063-9.983-12.115-13.988-27.901-10.987-43.31l19.428-99.754h59.767v162.128h-27.797zm47.797 0v-162.128h121.981v162.128zm141.981 0v-162.128h121.981v162.128zm210.189-19.064c-9.983 12.115-24.713 19.063-40.411 19.063h-27.797v-162.127h59.768l19.427 99.754c3.001 15.409-1.003 31.195-10.987 43.31z" fill="#052a75"/></g></g><g/><g/><g/><g/><g/><g/><g/><g/><g/><g/><g/><g/><g/><g/><g/></svg>