<svg preserveAspectRatio="none" width="100%" height="100%" overflow="visible" style="display: block;" viewBox="0 0 93 83.7079" fill="none" xmlns="http://www.w3.org/2000/svg">
<g id="Group">
<path id="Vector" d="M44.3474 51.4139C45.5904 51.4139 46.7889 51.759 47.8138 52.4118C48.4373 52.8087 49.284 52.6544 49.705 52.0664C50.1259 51.4786 49.9621 50.6802 49.3386 50.283C47.8617 49.3423 46.1358 48.845 44.3474 48.845C39.4259 48.845 35.422 52.6206 35.422 57.2617C35.422 61.9025 39.4259 65.6782 44.3474 65.6782C46.6818 65.679 48.7273 64.8145 50.1557 63.2057C50.6392 62.6621 50.5638 61.852 49.9874 61.3963C49.4113 60.9402 48.5519 61.0116 48.0686 61.555C47.148 62.5869 45.889 63.1089 44.3474 63.1093C40.9281 63.1093 38.1463 60.4862 38.1463 57.2617C38.1463 54.0371 40.9281 51.4139 44.3474 51.4139Z" fill="var(--fill-0, #FFF8F8)"/>
<path id="Vector_2" d="M56.5253 64.3936V50.8147C56.5253 50.1051 55.9156 49.5302 55.1631 49.5302C54.4107 49.5302 53.801 50.1051 53.801 50.8147V64.3936C53.801 65.1031 54.4107 65.678 55.1631 65.678C55.9156 65.678 56.5253 65.1031 56.5253 64.3936Z" fill="var(--fill-0, #FFF8F8)"/>
<path id="Vector_3" d="M68.7975 57.7227C68.868 54.2512 68.011 50.8068 66.3403 47.7396C68.0391 46.398 69.1219 44.3844 69.1219 42.1363C69.1219 38.1065 65.6452 34.828 61.3719 34.828C58.7641 34.828 56.4546 36.0503 55.0493 37.9179C52.3393 36.854 49.4665 36.3133 46.4943 36.3133C40.0936 36.3133 34.1441 38.9097 29.9967 43.1967C28.5877 42.0017 26.7676 41.3344 24.8277 41.3344C20.5544 41.3344 17.0777 44.6129 17.0777 48.6427C17.0777 50.8244 18.1138 52.8779 19.8757 54.2603C19.8546 54.4482 19.8432 54.6386 19.8432 54.8318C19.8432 57.4201 21.792 59.5869 24.3784 60.0974C24.6548 62.0947 25.2278 64.0344 26.0923 65.8681C26.3179 66.3468 26.8159 66.6311 27.3377 66.6311C27.5225 66.6311 27.7105 66.5953 27.8903 66.5201C28.5776 66.2319 28.8872 65.4729 28.5817 64.8246C27.8585 63.2908 27.366 61.6722 27.1117 60.005C29.4998 59.3624 31.2537 57.2874 31.2537 54.832C31.2537 52.8592 30.1211 51.1322 28.4377 50.1957C31.4722 43.3887 38.5916 38.8826 46.4942 38.8826C49.0615 38.8826 51.5435 39.3409 53.8867 40.2442C53.7149 40.848 53.6217 41.4822 53.6217 42.1366C53.6217 46.1662 57.0984 49.4447 61.3717 49.4447C62.2847 49.4447 63.1609 49.294 63.9749 49.0193C65.3523 51.5889 66.078 54.4473 66.078 57.35C66.078 67.5321 57.2928 75.8158 46.4942 75.8158C40.8713 75.8158 35.5132 73.5318 31.7935 69.5496C31.2962 69.0171 30.4353 68.9656 29.871 69.4347C29.3066 69.9034 29.2519 70.7152 29.7492 71.2475C30.6987 72.2639 31.7424 73.1824 32.8616 73.9969C32.577 74.7654 32.4329 75.5705 32.4329 76.3998C32.4329 80.4294 35.9096 83.7079 40.1829 83.7079C43.7225 83.7079 46.7359 81.5012 47.6512 78.3566C55.3197 77.9853 61.9762 73.9449 65.6828 68.0663C66.248 68.2384 66.8419 68.3276 67.4398 68.3276C70.5856 68.3276 73.1449 65.9142 73.1449 62.9478C73.1453 60.4391 71.3013 58.3012 68.7975 57.7227ZM20.9496 51.653C20.2177 50.8141 19.8021 49.7542 19.8021 48.6425C19.8021 46.0292 22.0566 43.9032 24.8279 43.9032C26.133 43.9032 27.3545 44.3694 28.2817 45.2002C27.2979 46.5081 26.4653 47.9337 25.8112 49.4579C25.7242 49.4541 25.6368 49.4516 25.5487 49.4516C23.6632 49.4517 21.989 50.3195 20.9496 51.653ZM28.5298 54.8316C28.5298 56.3815 27.1925 57.6426 25.5489 57.6426C23.9051 57.6426 22.5678 56.3815 22.5678 54.8316C22.5678 53.2817 23.9051 52.0207 25.5489 52.0207C27.1925 52.0207 28.5298 53.2819 28.5298 54.8316ZM40.1833 81.1388C37.412 81.1388 35.1576 79.0129 35.1576 76.3996C35.1576 76.0982 35.1884 75.8024 35.2464 75.5126C38.1403 77.1059 41.3981 78.0756 44.782 78.3215C43.998 80.0066 42.2258 81.1388 40.1833 81.1388ZM61.3721 46.8754C58.6008 46.8754 56.3464 44.7496 56.3464 42.1363C56.3464 39.523 58.6008 37.3969 61.3721 37.3969C64.1434 37.3969 66.3978 39.523 66.3978 42.1363C66.3978 44.7496 64.1434 46.8754 61.3721 46.8754ZM67.4401 65.7585C67.2781 65.7585 67.117 65.7447 66.9581 65.7203C67.7374 64.0331 68.2883 62.2319 68.5747 60.3507C69.6604 60.7743 70.4212 61.7835 70.4212 62.9476C70.421 64.4975 69.0838 65.7585 67.4401 65.7585Z" fill="var(--fill-0, #FFF8F8)"/>
<path id="Vector_4" d="M20.7882 38.5437C21.4187 38.5437 22.0115 38.312 22.4578 37.8914L29.3124 31.4276C30.3765 32.6822 32.0074 33.4569 33.7715 33.4569C36.9173 33.4569 39.4766 31.0434 39.4766 28.077C39.4766 26.4067 38.6564 24.8728 37.3252 23.8715L40.1818 21.1777C41.1023 20.3095 41.1023 18.897 40.182 18.029L36.6948 14.7387C36.2485 14.3181 35.6556 14.0864 35.025 14.0864C34.4484 14.0864 33.9046 14.2821 33.4743 14.637L21.6705 3.50609C19.2727 1.24525 16.0848 0 12.6942 0C9.30337 0 6.11543 1.24525 3.71808 3.50609C1.32054 5.76693 0 8.7731 0 11.9706C0 15.1679 1.32054 18.1741 3.71808 20.4351L15.5229 31.5668C15.1475 31.971 14.9402 32.4824 14.9395 33.0256C14.9388 33.6216 15.1845 34.1818 15.6313 34.6033L19.1184 37.8915C19.5646 38.312 20.1574 38.5437 20.7882 38.5437ZM33.7715 30.8881C32.743 30.8881 31.8004 30.3851 31.26 29.5911L35.3781 25.7079C36.2208 26.2164 36.7525 27.103 36.7525 28.077C36.7524 29.6269 35.4151 30.8881 33.7715 30.8881ZM20.6908 28.4997C20.1587 27.9982 19.2963 27.9982 18.7644 28.4997L17.444 29.7449L5.6445 18.6183C3.7613 16.8427 2.72427 14.4818 2.72427 11.9706C2.72427 9.45935 3.7613 7.0985 5.6445 5.32267C7.52751 3.54702 10.0311 2.56911 12.6942 2.56911C15.3572 2.56911 17.8608 3.54702 19.7438 5.32284L31.5421 16.4486L23.2571 24.2611C22.7251 24.7629 22.7251 25.576 23.2571 26.0777C23.789 26.5789 24.6513 26.5793 25.1835 26.0777L35.0248 16.7974L37.9986 19.6032L20.7876 35.8328L17.814 33.0287L20.6904 30.3164C21.2228 29.8146 21.2228 29.0015 20.6908 28.4997Z" fill="var(--fill-0, #FFF8F8)"/>
<path id="Vector_5" d="M89.272 3.50591C86.8743 1.24901 83.6871 -0.00120258 80.2945 0.000338784C76.9037 0.000338784 73.7161 1.24525 71.3193 3.50557L59.5138 14.6364C59.0835 14.2819 58.5401 14.0865 57.9637 14.0865C57.3329 14.0865 56.7401 14.3182 56.2937 14.7392L52.8068 18.0288C51.8864 18.8969 51.8864 20.3095 52.8068 21.1777L56.0614 24.2469C56.5934 24.7485 57.4559 24.7487 57.9876 24.247C58.5198 23.7454 58.5198 22.9321 57.9878 22.4306L54.9899 19.6034L57.9637 16.7976L75.1745 33.0287L72.2007 35.8328L62.4831 26.669C61.9509 26.1676 61.0886 26.1676 60.5566 26.669C60.0247 27.1708 60.0247 27.984 60.5566 28.4856L70.5311 37.8914C70.9773 38.312 71.5703 38.5437 72.2007 38.5437C72.8314 38.5437 73.4242 38.312 73.8705 37.8914L77.3575 34.6031C77.8043 34.1816 78.0499 33.6216 78.0493 33.0254C78.0486 32.4817 77.8408 31.9696 77.4663 31.5668L85.6413 23.8579C86.1733 23.3561 86.1733 22.543 85.6413 22.0413C85.1092 21.5399 84.2469 21.5399 83.7149 22.0413L75.5454 29.7451L61.4457 16.4477L73.2457 5.32216C75.1282 3.54702 77.6314 2.56928 80.2947 2.56928C82.9779 2.56791 85.4973 3.56432 87.385 5.35949C90.9584 8.76762 91.254 14.1322 88.0657 17.8601C87.5933 18.4124 87.6852 19.221 88.271 19.6663C88.5229 19.8577 88.8251 19.9509 89.1251 19.9509C89.5228 19.9509 89.9171 19.7875 90.1863 19.4727C94.2622 14.7068 93.8691 7.84263 89.272 3.50591Z" fill="var(--fill-0, #FFF8F8)"/>
<path id="Vector_6" d="M17.6037 15.392C15.2334 15.392 13.3049 17.2103 13.3049 19.4455C13.3049 21.6806 15.2334 23.4991 17.6037 23.4991C19.9739 23.4991 21.9022 21.6806 21.9022 19.4455C21.9022 17.2103 19.9739 15.392 17.6037 15.392ZM17.6037 20.9302C16.7355 20.9302 16.0292 20.2641 16.0292 19.4455C16.0292 18.627 16.7355 17.961 17.6037 17.961C18.4716 17.961 19.1779 18.627 19.1779 19.4455C19.1779 20.2641 18.4716 20.9302 17.6037 20.9302Z" fill="var(--fill-0, #FFF8F8)"/>
<path id="Vector_7" d="M81.9659 11.3068C81.9659 9.07162 80.0375 7.25333 77.6674 7.25333C75.2973 7.25333 73.3689 9.07162 73.3689 11.3068C73.3689 13.5419 75.2971 15.3604 77.6674 15.3604C80.0377 15.3604 81.9659 13.5419 81.9659 11.3068ZM76.0931 11.3068C76.0931 10.4883 76.7994 9.82227 77.6674 9.82227C78.5353 9.82227 79.2417 10.4883 79.2417 11.3068C79.2417 12.1254 78.5353 12.7914 77.6674 12.7914C76.7994 12.7914 76.0931 12.1254 76.0931 11.3068Z" fill="var(--fill-0, #FFF8F8)"/>
<path id="Vector_8" d="M70.7801 20.2162C71.5324 20.2162 72.1422 19.6411 72.1422 18.9317C72.1422 18.2223 71.5324 17.6473 70.7801 17.6473C70.0278 17.6473 69.418 18.2223 69.418 18.9317C69.418 19.6411 70.0278 20.2162 70.7801 20.2162Z" fill="var(--fill-0, #FFF8F8)"/>
<path id="Vector_9" d="M74.4124 23.6416C75.1647 23.6416 75.7746 23.0665 75.7746 22.3571C75.7746 21.6477 75.1647 21.0727 74.4124 21.0727C73.6601 21.0727 73.0503 21.6477 73.0503 22.3571C73.0503 23.0665 73.6601 23.6416 74.4124 23.6416Z" fill="var(--fill-0, #FFF8F8)"/>
<path id="Vector_10" d="M52.6199 33.4572C53.3722 33.4572 53.9821 32.8821 53.9821 32.1727C53.9821 31.4633 53.3722 30.8882 52.6199 30.8882C51.8677 30.8882 51.2578 31.4633 51.2578 32.1727C51.2578 32.8821 51.8677 33.4572 52.6199 33.4572Z" fill="var(--fill-0, #FFF8F8)"/>
<path id="Vector_11" d="M46.8082 32.2587C47.5604 32.2587 48.1703 31.6836 48.1703 30.9742C48.1703 30.2648 47.5604 29.6897 46.8082 29.6897C46.0559 29.6897 45.446 30.2648 45.446 30.9742C45.446 31.6836 46.0559 32.2587 46.8082 32.2587Z" fill="var(--fill-0, #FFF8F8)"/>
<path id="Vector_12" d="M50.8037 28.319C51.556 28.319 52.1659 27.7439 52.1659 27.0345C52.1659 26.3251 51.556 25.75 50.8037 25.75C50.0515 25.75 49.4416 26.3251 49.4416 27.0345C49.4416 27.7439 50.0515 28.319 50.8037 28.319Z" fill="var(--fill-0, #FFF8F8)"/>
<path id="Vector_13" d="M30.5336 38.8823C31.2859 38.8823 31.8957 38.3072 31.8957 37.5978C31.8957 36.8884 31.2859 36.3133 30.5336 36.3133C29.7813 36.3133 29.1715 36.8884 29.1715 37.5978C29.1715 38.3072 29.7813 38.8823 30.5336 38.8823Z" fill="var(--fill-0, #FFF8F8)"/>
<path id="Vector_14" d="M11.6072 14.0954C12.3595 14.0954 12.9693 13.5203 12.9693 12.811C12.9693 12.1016 12.3595 11.5265 11.6072 11.5265C10.8549 11.5265 10.2451 12.1016 10.2451 12.811C10.2451 13.5203 10.8549 14.0954 11.6072 14.0954Z" fill="var(--fill-0, #FFF8F8)"/>
<path id="Vector_15" d="M16.6235 11.273C17.3758 11.273 17.9856 10.698 17.9856 9.98857C17.9856 9.27918 17.3758 8.7041 16.6235 8.7041C15.8712 8.7041 15.2613 9.27918 15.2613 9.98857C15.2613 10.698 15.8712 11.273 16.6235 11.273Z" fill="var(--fill-0, #FFF8F8)"/>
<path id="Vector_16" d="M11.0315 8.83252C11.7838 8.83252 12.3936 8.25744 12.3936 7.54805C12.3936 6.83865 11.7838 6.26358 11.0315 6.26358C10.2792 6.26358 9.66934 6.83865 9.66934 7.54805C9.66934 8.25744 10.2792 8.83252 11.0315 8.83252Z" fill="var(--fill-0, #FFF8F8)"/>
</g>
</svg>
