<svg preserveAspectRatio="none" width="100%" height="100%" overflow="visible" style="display: block;" viewBox="0 0 107.08 106.944" fill="none" xmlns="http://www.w3.org/2000/svg">
<g id="water 1">
<path id="Vector" d="M102.06 65.1691H5.01936C4.57562 65.1691 4.15006 64.9931 3.83629 64.6797C3.52252 64.3663 3.34624 63.9413 3.34624 63.4981V56.8141C3.34578 56.5877 3.39191 56.3636 3.48176 56.1557L8.50113 44.4587C8.63011 44.1582 8.84455 43.9021 9.11785 43.7221C9.39116 43.5421 9.71134 43.4461 10.0387 43.4461H40.1549C40.5986 43.4461 41.0242 43.6221 41.338 43.9355C41.6517 44.2489 41.828 44.6739 41.828 45.1171C41.828 45.5603 41.6517 45.9853 41.338 46.2987C41.0242 46.612 40.5986 46.7881 40.1549 46.7881H11.1413L6.69248 57.1567V61.8271H100.387V57.1483L95.9384 46.7881H66.9248C66.4811 46.7881 66.0555 46.612 65.7418 46.2987C65.428 45.9853 65.2517 45.5603 65.2517 45.1171C65.2517 44.6739 65.428 44.2489 65.7418 43.9355C66.0555 43.6221 66.4811 43.4461 66.9248 43.4461H97.041C97.3684 43.4461 97.6886 43.5421 97.9619 43.7221C98.2352 43.9021 98.4496 44.1582 98.5786 44.4587L103.598 56.1557C103.688 56.3636 103.734 56.5877 103.733 56.8141V63.4981C103.733 63.9413 103.557 64.3663 103.243 64.6797C102.93 64.9931 102.504 65.1691 102.06 65.1691Z" fill="var(--fill-0, #FFFAFA)"/>
<path id="Vector_2" d="M53.5399 55.1431C51.322 55.1405 49.1957 54.2593 47.6274 52.693C46.0591 51.1268 45.1769 49.0032 45.1743 46.7881C45.1743 43.9023 49.8874 30.0781 53.5399 30.0781C57.1923 30.0781 61.9055 43.9023 61.9055 46.7881C61.9028 49.0032 61.0206 51.1268 59.4523 52.693C57.884 54.2593 55.7577 55.1405 53.5399 55.1431ZM53.5399 33.9397C51.85 36.3694 48.5205 43.9958 48.5205 46.7881C48.5205 48.1176 49.0493 49.3927 49.9906 50.3328C50.9319 51.2729 52.2086 51.8011 53.5399 51.8011C54.8711 51.8011 56.1478 51.2729 57.0891 50.3328C58.0304 49.3927 58.5592 48.1176 58.5592 46.7881C58.5592 43.9958 55.2297 36.3694 53.5399 33.9397Z" fill="var(--fill-0, #FFFAFA)"/>
<path id="Vector_3" d="M51.8667 48.4591C52.7908 48.4591 53.5399 47.711 53.5399 46.7881C53.5399 45.8652 52.7908 45.1171 51.8667 45.1171C50.9427 45.1171 50.1936 45.8652 50.1936 46.7881C50.1936 47.711 50.9427 48.4591 51.8667 48.4591Z" fill="var(--fill-0, #FFFAFA)"/>
<path id="Vector_4" d="M53.5399 43.4461C54.4639 43.4461 55.213 42.6979 55.213 41.7751C55.213 40.8522 54.4639 40.1041 53.5399 40.1041C52.6158 40.1041 51.8667 40.8522 51.8667 41.7751C51.8667 42.6979 52.6158 43.4461 53.5399 43.4461Z" fill="var(--fill-0, #FFFAFA)"/>
<path id="Vector_5" d="M53.5399 93.5762C51.322 93.5735 49.1957 92.6924 47.6274 91.1261C46.0591 89.5598 45.1769 87.4362 45.1743 85.2212C45.1743 82.3353 49.8874 68.5111 53.5399 68.5111C57.1923 68.5111 61.9055 82.3353 61.9055 85.2212C61.9028 87.4362 61.0206 89.5598 59.4523 91.1261C57.884 92.6924 55.7577 93.5735 53.5399 93.5762ZM53.5399 72.3728C51.85 74.8025 48.5205 82.4289 48.5205 85.2212C48.5205 86.5507 49.0493 87.8258 49.9906 88.7659C50.9319 89.706 52.2086 90.2342 53.5399 90.2342C54.8711 90.2342 56.1478 89.706 57.0891 88.7659C58.0304 87.8258 58.5592 86.5507 58.5592 85.2212C58.5592 82.4289 55.2297 74.8025 53.5399 72.3728Z" fill="var(--fill-0, #FFFAFA)"/>
<path id="Vector_6" d="M23.4237 81.8792C21.2058 81.8765 19.0795 80.9954 17.5112 79.4291C15.943 77.8628 15.0607 75.7392 15.0581 73.5241C15.195 71.6166 15.6233 69.7412 16.328 67.963C16.3941 67.7485 16.5028 67.5495 16.6477 67.3778C16.7925 67.2062 16.9705 67.0654 17.171 66.964C17.3715 66.8626 17.5904 66.8025 17.8146 66.7874C18.0389 66.7723 18.2639 66.8025 18.4762 66.8762C18.6885 66.9499 18.8838 67.0655 19.0503 67.2162C19.2169 67.3669 19.3514 67.5496 19.4457 67.7534C19.54 67.9571 19.5923 68.1777 19.5993 68.4021C19.6064 68.6265 19.5682 68.85 19.4868 69.0592C18.9265 70.4921 18.5623 71.994 18.4043 73.5241C18.4043 74.8537 18.9332 76.1287 19.8745 77.0689C20.8158 78.009 22.0925 78.5372 23.4237 78.5372C24.7549 78.5372 26.0316 78.009 26.9729 77.0689C27.9142 76.1287 28.4431 74.8537 28.4431 73.5241C28.285 71.994 27.9209 70.4921 27.3605 69.0592C27.2792 68.85 27.241 68.6265 27.248 68.4021C27.2551 68.1777 27.3074 67.9571 27.4017 67.7534C27.496 67.5496 27.6305 67.3669 27.797 67.2162C27.9636 67.0655 28.1589 66.9499 28.3712 66.8762C28.5835 66.8025 28.8085 66.7723 29.0327 66.7874C29.257 66.8025 29.4759 66.8626 29.6764 66.964C29.8769 67.0654 30.0549 67.2062 30.1997 67.3778C30.3445 67.5495 30.4533 67.7485 30.5194 67.963C31.2241 69.7412 31.6524 71.6166 31.7893 73.5241C31.7866 75.7392 30.9044 77.8628 29.3361 79.4291C27.7679 80.9954 25.6416 81.8765 23.4237 81.8792Z" fill="var(--fill-0, #FFFAFA)"/>
<path id="Vector_7" d="M87.0023 81.8792C84.7844 81.8765 82.6581 80.9954 81.0898 79.4291C79.5216 77.8628 78.6393 75.7392 78.6367 73.5241C78.7736 71.6166 79.2019 69.7412 79.9066 67.963C79.9727 67.7485 80.0814 67.5495 80.2263 67.3778C80.3711 67.2062 80.5491 67.0654 80.7496 66.964C80.9501 66.8626 81.169 66.8025 81.3932 66.7874C81.6175 66.7723 81.8425 66.8025 82.0548 66.8762C82.2671 66.9499 82.4623 67.0655 82.6289 67.2162C82.7955 67.3669 82.93 67.5496 83.0243 67.7534C83.1186 67.9571 83.1709 68.1777 83.1779 68.4021C83.185 68.6265 83.1467 68.85 83.0654 69.0592C82.5051 70.4921 82.1409 71.994 81.9829 73.5241C81.9829 74.8537 82.5117 76.1287 83.453 77.0689C84.3944 78.009 85.6711 78.5372 87.0023 78.5372C88.3335 78.5372 89.6102 78.009 90.5515 77.0689C91.4928 76.1287 92.0216 74.8537 92.0216 73.5241C91.8636 71.994 91.4995 70.4921 90.9391 69.0592C90.8578 68.85 90.8195 68.6265 90.8266 68.4021C90.8337 68.1777 90.8859 67.9571 90.9803 67.7534C91.0746 67.5496 91.209 67.3669 91.3756 67.2162C91.5422 67.0655 91.7375 66.9499 91.9498 66.8762C92.1621 66.8025 92.3871 66.7723 92.6113 66.7874C92.8356 66.8025 93.0545 66.8626 93.255 66.964C93.4555 67.0654 93.6334 67.2062 93.7783 67.3778C93.9231 67.5495 94.0319 67.7485 94.098 67.963C94.8027 69.7412 95.2309 71.6166 95.3679 73.5241C95.3652 75.7392 94.483 77.8628 92.9147 79.4291C91.3464 80.9954 89.2201 81.8765 87.0023 81.8792Z" fill="var(--fill-0, #FFFAFA)"/>
<path id="Vector_8" d="M85.3292 38.4331C83.1113 38.4304 80.985 37.5493 79.4167 35.983C77.8484 34.4167 76.9662 32.2931 76.9635 30.0781C76.9635 27.1922 81.6767 13.368 85.3292 13.368C88.9816 13.368 93.6948 27.1922 93.6948 30.0781C93.6921 32.2931 92.8099 34.4167 91.2416 35.983C89.6733 37.5493 87.547 38.4304 85.3292 38.4331ZM85.3292 17.2297C83.6393 19.6594 80.3098 27.2858 80.3098 30.0781C80.3098 31.4076 80.8386 32.6827 81.7799 33.6228C82.7212 34.5629 83.9979 35.0911 85.3292 35.0911C86.6604 35.0911 87.9371 34.5629 88.8784 33.6228C89.8197 32.6827 90.3485 31.4076 90.3485 30.0781C90.3485 27.2858 87.019 19.6594 85.3292 17.2297Z" fill="var(--fill-0, #FFFAFA)"/>
<path id="Vector_9" d="M87.0023 33.4201C87.9263 33.4201 88.6754 32.6719 88.6754 31.7491C88.6754 30.8262 87.9263 30.0781 87.0023 30.0781C86.0782 30.0781 85.3292 30.8262 85.3292 31.7491C85.3292 32.6719 86.0782 33.4201 87.0023 33.4201Z" fill="var(--fill-0, #FFFAFA)"/>
<path id="Vector_10" d="M83.656 30.0781C84.5801 30.0781 85.3292 29.3299 85.3292 28.4071C85.3292 27.4842 84.5801 26.7361 83.656 26.7361C82.732 26.7361 81.9829 27.4842 81.9829 28.4071C81.9829 29.3299 82.732 30.0781 83.656 30.0781Z" fill="var(--fill-0, #FFFAFA)"/>
<path id="Vector_11" d="M85.3291 26.7361C86.2532 26.7361 87.0023 25.9879 87.0023 25.065C87.0023 24.1422 86.2532 23.394 85.3291 23.394C84.4051 23.394 83.656 24.1422 83.656 25.065C83.656 25.9879 84.4051 26.7361 85.3291 26.7361Z" fill="var(--fill-0, #FFFAFA)"/>
<path id="Vector_12" d="M23.4237 38.4331C21.2058 38.4304 19.0795 37.5493 17.5112 35.983C15.943 34.4167 15.0607 32.2931 15.0581 30.0781C15.0581 27.1922 19.7713 13.368 23.4237 13.368C27.0761 13.368 31.7893 27.1922 31.7893 30.0781C31.7866 32.2931 30.9044 34.4167 29.3361 35.983C27.7679 37.5493 25.6416 38.4304 23.4237 38.4331ZM23.4237 17.2297C21.7338 19.6594 18.4043 27.2858 18.4043 30.0781C18.4043 31.4076 18.9332 32.6827 19.8745 33.6228C20.8158 34.5629 22.0925 35.0911 23.4237 35.0911C24.7549 35.0911 26.0316 34.5629 26.9729 33.6228C27.9142 32.6827 28.4431 31.4076 28.4431 30.0781C28.4431 27.2858 25.1135 19.6594 23.4237 17.2297Z" fill="var(--fill-0, #FFFAFA)"/>
<path id="Vector_13" d="M21.7506 33.4201C22.6746 33.4201 23.4237 32.6719 23.4237 31.7491C23.4237 30.8262 22.6746 30.0781 21.7506 30.0781C20.8265 30.0781 20.0774 30.8262 20.0774 31.7491C20.0774 32.6719 20.8265 33.4201 21.7506 33.4201Z" fill="var(--fill-0, #FFFAFA)"/>
<path id="Vector_14" d="M25.0968 30.0781C26.0208 30.0781 26.7699 29.3299 26.7699 28.4071C26.7699 27.4842 26.0208 26.7361 25.0968 26.7361C24.1728 26.7361 23.4237 27.4842 23.4237 28.4071C23.4237 29.3299 24.1728 30.0781 25.0968 30.0781Z" fill="var(--fill-0, #FFFAFA)"/>
<path id="Vector_15" d="M23.4237 25.065C24.3477 25.065 25.0968 24.3169 25.0968 23.394C25.0968 22.4712 24.3477 21.723 23.4237 21.723C22.4996 21.723 21.7506 22.4712 21.7506 23.394C21.7506 24.3169 22.4996 25.065 23.4237 25.065Z" fill="var(--fill-0, #FFFAFA)"/>
</g>
</svg>
