<svg preserveAspectRatio="none" width="100%" height="100%" overflow="visible" style="display: block;" viewBox="0 0 48 37" fill="none" xmlns="http://www.w3.org/2000/svg">
<g id="circular 1">
<path id="Vector" fill-rule="evenodd" clip-rule="evenodd" d="M7.83281 12.7874C7.98188 12.7903 8.12344 12.8387 8.2275 12.9218L12.1397 16.0885C13.7513 11.7598 18.9497 8.69572 24.8794 8.69572C26.6559 8.69572 28.3819 8.96238 30.0084 9.4892C30.1575 9.53834 30.2766 9.6359 30.3263 9.75586C30.3759 9.87582 30.3572 10.0073 30.2691 10.115V10.1165L36.7078 8.91541L35.1459 3.95293L34.4991 4.77459C34.3462 4.96609 34.0322 5.03691 33.7678 4.93791C30.9891 3.885 27.9994 3.35096 24.8794 3.35096C16.0406 3.35096 8.23125 7.84805 5.62125 14.2385L7.43156 12.9074C7.53469 12.83 7.6725 12.7874 7.81781 12.7874C7.82156 12.7867 7.82906 12.7867 7.83281 12.7874ZM24.8784 29.1281C25.9622 29.1281 27.0337 29.0277 28.0744 28.8289L26.4741 33.0225C26.4319 33.1331 26.4469 33.2516 26.52 33.3528C26.5884 33.4539 26.7112 33.5284 26.8528 33.5609L29.2566 34.105C27.825 34.3493 26.3587 34.4721 24.8775 34.4721C14.2856 34.4721 5.43937 28.0998 4.73437 19.9641C4.71562 19.7401 4.4775 19.5652 4.18687 19.5594L2.93531 19.5363L7.72781 16.0126L12.2981 19.7104C12.1331 19.7061 11.9766 19.7596 11.8659 19.8528C11.7591 19.9468 11.7047 20.0725 11.7244 20.1975C12.5559 25.2894 18.21 29.1281 24.8784 29.1281ZM34.3791 11.8263L39.9337 10.79C40.0791 10.7632 40.2019 10.6924 40.2825 10.5949C40.3594 10.4966 40.3819 10.3788 40.3472 10.2668L39.7575 8.39943C43.1494 11.2554 45.0628 15.0096 45.0628 18.9119C45.0628 24.102 41.7244 28.9323 36.1284 31.833C35.8875 31.958 35.8106 32.2037 35.9484 32.4003L36.5494 33.2465L30.1913 31.807L32.0634 26.9081C32.1441 27.0194 32.2819 27.0982 32.4384 27.1242C32.5988 27.1502 32.7675 27.122 32.8978 27.0454C36.3197 25.0364 38.1309 22.2238 38.1309 18.9112C38.1309 16.3472 36.7453 13.7529 34.3791 11.8263Z" fill="var(--fill-0, #FFFDFD)"/>
</g>
</svg>
