<svg preserveAspectRatio="none" width="100%" height="100%" overflow="visible" style="display: block;" viewBox="0 0 83.716 79" fill="none" xmlns="http://www.w3.org/2000/svg">
<g id="Group">
<path id="Vector" d="M19.2127 46.755C18.4035 46.755 17.7479 47.273 17.7479 47.9123V66.0716C17.7479 66.7109 18.4035 67.2288 19.2127 67.2288C20.0219 67.2288 20.6775 66.7109 20.6775 66.0716V58.5682C22.177 59.6016 24.135 60.2298 26.2764 60.2298C30.9789 60.2298 34.8047 57.2073 34.8047 53.4923C34.8047 49.7773 30.9789 46.7549 26.2764 46.7549C24.135 46.7549 22.177 47.383 20.6775 48.4165V47.9121C20.6775 47.273 20.0217 46.755 19.2127 46.755ZM26.2764 49.0695C29.3635 49.0695 31.875 51.0536 31.875 53.4924C31.875 55.9314 29.3635 57.9155 26.2764 57.9155C23.1891 57.9155 20.6775 55.9314 20.6775 53.4924C20.6775 51.0536 23.1891 49.0695 26.2764 49.0695Z" fill="var(--fill-0, #FFFAFA)"/>
<path id="Vector_2" d="M38.4395 43.8063C37.6303 43.8063 36.9746 44.3242 36.9746 44.9635V59.0726C36.9746 59.7118 37.6303 60.2298 38.4395 60.2298C39.2486 60.2298 39.9043 59.7118 39.9043 59.0726V52.9332H49.3336V59.0726C49.3336 59.7118 49.9893 60.2298 50.7984 60.2298C51.6076 60.2298 52.2633 59.7118 52.2633 59.0726V44.9635C52.2633 44.3242 51.6076 43.8063 50.7984 43.8063C49.9893 43.8063 49.3336 44.3242 49.3336 44.9635V50.6188H39.9043V44.9635C39.9043 44.3244 39.2486 43.8063 38.4395 43.8063Z" fill="var(--fill-0, #FFFAFA)"/>
<path id="Vector_3" d="M13.8859 26.1351C13.8859 23.1106 10.7715 20.6502 6.94297 20.6502C3.11445 20.6502 5.37151e-07 23.1106 5.37151e-07 26.1351C5.37151e-07 29.1595 3.11445 31.6199 6.94297 31.6199C10.7715 31.6199 13.8859 29.1593 13.8859 26.1351ZM2.92988 26.1351C2.92988 24.3869 4.73027 22.9646 6.94316 22.9646C9.15606 22.9646 10.9564 24.3869 10.9564 26.1351C10.9564 27.8831 9.15606 29.3055 6.94316 29.3055C4.73027 29.3055 2.92988 27.8831 2.92988 26.1351Z" fill="var(--fill-0, #FFFAFA)"/>
<path id="Vector_4" d="M76.7731 39.6693C72.9445 39.6693 69.8301 42.1297 69.8301 45.1542C69.8301 48.1786 72.9445 50.639 76.7731 50.639C80.6016 50.639 83.716 48.1786 83.716 45.1542C83.7158 42.1297 80.6014 39.6693 76.7731 39.6693ZM76.7731 48.3244C74.5602 48.3244 72.7598 46.9021 72.7598 45.1541C72.7598 43.4059 74.5602 41.9836 76.7731 41.9836C78.9859 41.9836 80.7863 43.4059 80.7863 45.1541C80.7861 46.9022 78.9859 48.3244 76.7731 48.3244Z" fill="var(--fill-0, #FFFAFA)"/>
<path id="Vector_5" d="M65.2291 58.5601C64.9674 58.5601 64.7088 58.5697 64.4516 58.5836C65.3508 53.309 63.917 47.9379 60.3334 43.2935L57.0518 39.0408C63.4518 38.9414 69.1201 36.2666 72.2674 31.8392C75.4752 27.3267 75.3545 21.9944 71.9447 17.5755L59.2668 1.14643C58.7129 0.428482 57.7469 0 56.6824 0C55.6184 0.000154297 54.6521 0.428637 54.0986 1.14643L48.6826 8.16508C48.2617 8.71083 48.4803 9.42291 49.1709 9.75573C49.8619 10.0884 50.7631 9.91573 51.1844 9.36999L56.6004 2.35118C56.6109 2.33744 56.6287 2.31476 56.6828 2.31461C56.7371 2.31461 56.7549 2.3376 56.7654 2.35133L69.443 18.7802C72.2939 22.475 72.3949 26.9333 69.7131 30.706C67.0312 34.4789 62.16 36.7313 56.6828 36.7313C51.2057 36.7313 46.3346 34.4789 43.6527 30.706C40.9709 26.9331 41.0717 22.4749 43.9229 18.7804L47.6252 13.9825C48.0461 13.4368 47.8275 12.7247 47.1369 12.3919C46.4463 12.0595 45.5449 12.232 45.1234 12.7776L41.4211 17.5755C41.2625 17.7812 41.1133 17.9895 40.9688 18.1989L38.4992 14.9983C37.7387 14.0129 36.4127 13.4249 34.952 13.4249C33.4912 13.4249 32.1652 14.0131 31.4049 14.9983L9.57051 43.2935C7.59453 45.8544 6.26719 48.6115 5.62539 51.4886C5.48477 52.1179 6.01699 52.7181 6.81367 52.8291C6.89961 52.8411 6.98516 52.8468 7.06973 52.8468C7.76719 52.8468 8.38535 52.4517 8.51055 51.8903C9.08887 49.2986 10.2871 46.8117 12.0723 44.4984L33.9064 16.203C34.2293 15.7843 34.7451 15.7392 34.952 15.7392C35.159 15.7392 35.6746 15.7843 35.9977 16.2029L39.5635 20.8241C38.1412 24.4585 38.6453 28.3883 41.0982 31.8392C43.7664 35.5929 48.2475 38.0865 53.4496 38.8196L57.8318 44.4984C61.249 48.9266 62.4978 54.0832 61.3863 59.0914C57.0275 60.3373 53.9037 63.6391 53.9037 67.5072C53.9037 68.4092 54.0752 69.2799 54.391 70.1015C49.3307 74.3524 42.4613 76.6855 34.952 76.6855C27.909 76.6855 21.2961 74.5817 16.3312 70.7618C11.566 67.0951 8.67324 62.2093 8.18633 57.0045C8.12676 56.367 7.42715 55.8893 6.61758 55.9357C5.81074 55.9829 5.20508 56.5376 5.26465 57.175C5.80449 62.9443 9.00879 68.3583 14.2873 72.4197C19.8021 76.663 27.141 79 34.9521 79C42.8869 79 50.1795 76.6484 55.71 72.3452C57.7281 74.8145 61.2396 76.4541 65.2293 76.4541C69.5937 76.4541 73.6164 74.4371 75.4781 71.3154C75.8229 70.7373 75.509 70.0477 74.7771 69.7754C74.0453 69.5033 73.1727 69.751 72.8277 70.3291C71.4475 72.644 68.4648 74.1396 65.2295 74.1396C60.6 74.1396 56.8338 71.1643 56.8338 67.5072C56.8338 63.8501 60.6 60.8747 65.2295 60.8747C68.9883 60.8747 72.3143 62.8718 73.318 65.7312C73.534 66.3472 74.3418 66.7078 75.1209 66.5373C75.9004 66.3665 76.3572 65.7288 76.1412 65.113C74.7867 61.2546 70.2996 58.5601 65.2291 58.5601Z" fill="var(--fill-0, #FFFAFA)"/>
</g>
</svg>
