<svg id="Capa_1" enable-background="new 0 0 511 511" height="512" viewBox="0 0 511 511" width="512" xmlns="http://www.w3.org/2000/svg"><path d="m474.54 151.5 5.76-32h-46.604l6.275-40h-32l-6.275 40h-292.392l-6.275-40h-32l6.275 40h-46.604l5.76 32h45.864l6.275 40h-44.939l5.76 32h44.198l6.274 40h-43.272l5.76 32h42.532l6.275 40h-41.607l5.76 32h40.866l6.275 40h-39.941l5.76 32 2.46 13.669c2.743 15.242 16.007 26.331 31.494 26.331h266.491c15.486 0 28.751-11.09 31.494-26.331l2.46-13.669 5.76-32h-39.94l6.275-40h40.866l5.76-32h-41.606l6.275-40h42.532l5.76-32h-43.272l6.274-40h44.198l5.76-32h-44.938l6.275-40zm-141.863 72h52.706l-6.274 40h-50.353zm-7.059 72h48.471l-6.275 40h-46.118zm-7.059 72h44.235l-6.275 40h-41.882zm-104.314-104-3.922-40h90.353l-3.922 40zm79.373 32-3.922 40h-68.392l-3.922-40zm-69.177 72h62.118l-3.922 40h-54.274zm83.294-216-3.922 40h-96.627l-3.922-40zm-111.372 256h-41.883l-6.275-40h44.235zm-7.059-72h-46.118l-6.275-40h48.471zm-7.059-72h-50.353l-6.274-40h52.706zm-61.647-72-6.275-40h56.941l3.922 40zm269.804 0h-54.588l3.922-40h56.941z" fill="#a3da59"/><path d="m243.152 478.196c-17.925-28.062-33.849-55.848-48.006-83.11l1.217 12.414h-41.883l-6.275-40h33.114c-5.202-10.771-10.126-21.442-14.797-32h-23.336l-6.275-40h12.892c-4.263-10.824-8.261-21.499-12.004-32h-5.908l-5.124-32.669c-18.489-57.927-29.31-109.577-35.621-151.331h-20.117l6.275 40h-46.604l5.76 32h45.864l6.275 40h-44.939l5.76 32h44.198l6.274 40h-43.272l5.76 32h42.532l6.275 40h-41.607l5.76 32h40.866l6.275 40h-39.941l5.76 32 2.46 13.669c2.743 15.241 16.008 26.331 31.494 26.331h121.729c-.28-.438-.549-.864-.831-1.304z" fill="#80b837"/><path d="m471.5 31.5h-432c-17.673 0-32 14.327-32 32v16h136l11.027 54.593c2.944 10.303 12.361 17.407 23.077 17.407h155.794c10.716 0 20.133-7.103 23.077-17.407l11.025-54.593h136v-16c0-17.673-14.327-32-32-32zm-152 88h-128l-8-40h144z" fill="#d1edac"/><path d="m111.5 31.5h-72c-17.673 0-32 14.327-32 32v16h72v-16c0-17.673 14.327-32 32-32z" fill="#a3da59"/><path d="m286.559 360h-62.117c-4.366 0-7.89 3.887-7.464 8.232l3.921 40c.376 3.84 3.605 6.768 7.464 6.768h54.274c3.858 0 7.088-2.928 7.464-6.768l3.922-40c.426-4.345-3.099-8.232-7.464-8.232zm-10.723 40h-40.672l-2.451-25h45.575z"/><path d="m306.232 218.462c-1.421-1.568-3.439-2.462-5.556-2.462h-90.353c-4.366 0-7.89 3.887-7.464 8.232l3.921 40c.376 3.84 3.605 6.768 7.464 6.768h82.51c3.858 0 7.088-2.928 7.464-6.768l3.922-40c.208-2.107-.486-4.202-1.908-5.77zm-16.278 37.538h-68.908l-2.451-25h73.811z"/><path d="m182.245 271c4.366 0 7.89-3.887 7.464-8.232l-3.921-40c-.376-3.84-3.605-6.768-7.464-6.768h-52.706c-4.533 0-8.113 4.18-7.409 8.662l6.274 40c.572 3.649 3.716 6.338 7.409 6.338zm-10.722-40 2.451 25h-35.667l-3.921-25z"/><path d="m293.617 288h-76.235c-4.366 0-7.89 3.887-7.464 8.232l3.922 40c.376 3.84 3.605 6.768 7.464 6.768h68.392c3.858 0 7.088-2.928 7.464-6.768l3.921-40c.427-4.345-3.099-8.232-7.464-8.232zm-10.721 40h-54.791l-2.451-25h59.692z"/><path d="m189.304 343c4.366 0 7.89-3.887 7.464-8.232l-3.922-40c-.376-3.84-3.605-6.768-7.464-6.768h-48.471c-4.534 0-8.113 4.18-7.409 8.662l6.275 40c.572 3.649 3.716 6.338 7.409 6.338zm-10.722-40 2.451 25h-31.431l-3.922-25z"/><path d="m328.755 271h50.353c3.693 0 6.837-2.689 7.409-6.337l6.275-40c.703-4.482-2.876-8.663-7.409-8.663h-52.706c-3.858 0-7.088 2.928-7.464 6.768l-3.922 40c-.427 4.345 3.099 8.232 7.464 8.232zm10.723-40h37.137l-3.922 25h-35.666z"/><path d="m199.906 366.768c-.376-3.84-3.605-6.768-7.464-6.768h-44.235c-4.533 0-8.113 4.18-7.409 8.662l6.274 40c.572 3.649 3.716 6.338 7.409 6.338h41.882c4.366 0 7.89-3.887 7.464-8.232zm-39.01 33.232-3.921-25h28.667l2.451 25z"/><path d="m362.794 360h-44.235c-3.858 0-7.088 2.928-7.464 6.768l-3.922 40c-.427 4.345 3.099 8.232 7.464 8.232h41.883c3.693 0 6.837-2.689 7.409-6.338l6.274-40c.704-4.482-2.876-8.662-7.409-8.662zm-12.69 40h-27.196l2.451-25h28.666z"/><path d="m379.787 290.625c-1.425-1.666-3.507-2.625-5.699-2.625h-48.471c-3.858 0-7.088 2.928-7.464 6.768l-3.921 40c-.427 4.345 3.099 8.232 7.464 8.232h46.117c3.693 0 6.837-2.689 7.409-6.338l6.274-40c.341-2.165-.284-4.371-1.709-6.037zm-18.389 37.375h-31.431l2.45-25h32.901z"/><path d="m471.5 24h-86.118c-4.143 0-7.5 3.358-7.5 7.5s3.357 7.5 7.5 7.5h86.118c13.51 0 24.5 10.991 24.5 24.5v8.5h-128.5c-3.569 0-6.645 2.516-7.352 6.015l-10.962 54.275c-2.098 6.908-8.552 11.709-15.79 11.709h-155.793c-7.238 0-13.692-4.801-15.789-11.709l-10.963-54.276c-.706-3.498-3.781-6.014-7.351-6.014h-128.5v-8.5c0-13.509 10.991-24.5 24.5-24.5h308.652c4.143 0 7.5-3.358 7.5-7.5s-3.357-7.5-7.5-7.5h-308.652c-21.78 0-39.5 17.72-39.5 39.5v16c0 4.142 3.358 7.5 7.5 7.5h9.729l66.149 367.497c3.39 18.833 19.74 32.503 38.875 32.503h266.492c19.136 0 35.485-13.669 38.875-32.502l66.151-367.498h9.729c4.143 0 7.5-3.358 7.5-7.5v-16c0-21.78-17.72-39.5-39.5-39.5zm-72.297 63-3.922 25h-26.694l5.049-25zm-52.667 72h41.372l-3.921 25h-39.902zm-47.072 0-2.451 25h-83.025l-2.451-25zm-132.549 25h-39.902l-3.921-25h41.372zm-24.502-72h-26.694l-3.922-25h25.566zm-77.799-25 3.922 25h-31.566l-4.5-25zm24.197 313-4.5-25h25.48l3.921 25zm-17.46-97h27.146l3.922 25h-26.568zm-12.96-72h28.812l3.921 25h-28.233zm-12.961-72h30.478l3.921 25h-29.9zm367.427 292.84c-2.102 11.681-12.242 20.16-24.111 20.16h-266.492c-11.869 0-22.01-8.479-24.113-20.16l-6.63-36.84h30.97c4.533 0 8.113-4.18 7.409-8.662l-6.274-40c-.572-3.649-3.716-6.338-7.409-6.338h-34.596l-3.06-17h32.636c4.534 0 8.113-4.18 7.409-8.662l-6.275-40c-.572-3.649-3.716-6.338-7.409-6.338h-36.261l-3.06-17h34.301c4.533 0 8.113-4.18 7.409-8.662l-6.274-40c-.572-3.649-3.716-6.338-7.409-6.338h-37.928l-3.06-17h35.967c4.533 0 8.113-4.18 7.409-8.662l-6.274-40c-.572-3.649-3.716-6.338-7.409-6.338h-39.593l-3.06-17h37.633c4.533 0 8.113-4.18 7.409-8.662l-4.915-31.338h16.817l5.281 33.662c.572 3.649 3.716 6.338 7.409 6.338h36.138l1.733 8.578c.039.193.086.385.14.575.804 2.814 2.003 5.437 3.496 7.847h-36.488c-4.533 0-8.113 4.18-7.409 8.662l6.274 40c.572 3.649 3.716 6.338 7.409 6.338h54.588c4.366 0 7.89-3.887 7.464-8.232l-3.113-31.768h16.928l3.258 33.232c.376 3.84 3.605 6.768 7.464 6.768h96.627c3.858 0 7.088-2.928 7.464-6.768l3.259-33.232h16.929l-3.115 31.768c-.427 4.345 3.099 8.232 7.464 8.232h54.589c3.693 0 6.837-2.689 7.409-6.338l6.274-40c.703-4.482-2.876-8.662-7.409-8.662h-36.489c1.493-2.41 2.693-5.032 3.497-7.846.055-.19.102-.382.141-.576l1.733-8.578h36.139c3.693 0 6.837-2.689 7.409-6.338l5.279-33.662h16.816l-4.915 31.338c-.703 4.482 2.876 8.662 7.409 8.662h37.633l-3.06 17h-39.592c-3.693 0-6.837 2.689-7.409 6.338l-6.274 40c-.703 4.482 2.876 8.662 7.409 8.662h35.967l-3.06 17h-37.926c-3.693 0-6.837 2.689-7.409 6.337l-6.275 40c-.703 4.482 2.876 8.663 7.409 8.663h34.302l-3.06 17h-36.261c-3.693 0-6.837 2.689-7.409 6.338l-6.274 40c-.34 2.166.285 4.372 1.71 6.037 1.425 1.666 3.507 2.625 5.699 2.625h32.635l-3.06 17h-34.595c-3.693 0-6.837 2.689-7.409 6.338l-6.274 40c-.703 4.482 2.876 8.662 7.409 8.662h30.97zm-15.569-51.84 3.921-25h25.48l-4.5 25zm37.861-72h-26.567l3.921-25h27.146zm12.96-72h-28.233l3.922-25h28.811zm12.96-72h-29.898l3.921-25h30.477zm12.96-72h-31.564l3.921-25h32.143z"/><path d="m327.5 72h-144c-4.658 0-8.268 4.399-7.354 8.971l8 40c.701 3.506 3.779 6.029 7.354 6.029h128c3.575 0 6.653-2.523 7.354-6.029l8-40c.914-4.572-2.696-8.971-7.354-8.971zm-14.148 40h-115.704l-5-25h125.703z"/></svg>