<svg enable-background="new 0 0 512 512" viewBox="0 0 512 512" xmlns="http://www.w3.org/2000/svg"><g id="_x32_8_Chemical"><g><path d="m364.06 438.029h-320.813c-24.934 0-39.479-28.146-25.06-48.546l101.533-142.978c14.037-19.767 21.675-43.364 21.882-67.607l.815-95.363h121.843v94.365c0 24.862 7.819 49.095 22.35 69.268l102.51 142.315c14.419 20.4-.126 48.546-25.06 48.546z" fill="#fff"/><path d="m314.875 286.409c-40.437-25.337-83.749-17.052-127.81 0-44.608 18.132-53.995 13.87-95.682 0l-73.196 103.074c-14.419 20.401.126 48.546 25.06 48.546h320.814c24.934 0 39.479-28.146 25.06-48.546z" fill="#c2d5ea"/><path d="m290.202 60.584c0 12.675-10.275 22.951-22.951 22.951h-127.195c-12.675 0-22.951-10.275-22.951-22.951 0-12.675 10.275-22.951 22.951-22.951h127.195c12.675 0 22.951 10.276 22.951 22.951z" fill="#85dafa"/><path d="m499.494 394.248c0 44.24-35.887 80.096-80.128 80.096-44.24 0-80.096-35.856-80.096-80.096s35.856-80.128 80.096-80.128c44.24.001 80.128 35.888 80.128 80.128z" fill="#fff"/><path d="m440.824 402.313c0 16.221-13.154 29.374-29.374 29.374s-29.374-13.153-29.374-29.374 28.843-45.536 28.843-45.536 29.905 29.316 29.905 45.536z" fill="#85dafa"/><path d="m456.689 405.121c0 8.761-7.104 15.865-15.865 15.865s-15.865-7.104-15.865-15.865 15.578-24.594 15.578-24.594 16.152 15.833 16.152 24.594z" fill="#85dafa"/><g fill="#404f7c"><path d="m322.923 431.574h-279.672c-9.226 0-17.271-4.903-21.521-13.115-4.26-8.232-3.613-17.658 1.725-25.207l70.439-99.186c38.592 12.89 50.474 16.687 95.521-1.622 37.219-14.41 80.645-25.769 120.947-1.25l25.491 35.413c2.092 2.894 6.135 3.557 9.042 1.472 2.902-2.09 3.562-6.137 1.472-9.042-74.687-103.652-48.927-67.902-54.5-75.636-13.815-19.237-21.116-41.883-21.116-65.492v-88.128c14.579-1.739 25.928-14.159 25.928-29.198 0-16.226-13.203-29.427-29.429-29.427h-127.194c-16.226 0-29.427 13.201-29.427 29.427 0 14.807 11.004 27.06 25.257 29.096l-.776 89.162c-.197 23.031-7.344 45.137-20.666 63.918l-28.307 39.86c-.01.014-.024.021-.034.035l-73.215 103.11c-8.073 11.414-9.095 26.224-2.661 38.65 6.421 12.406 19.075 20.112 33.024 20.112h279.673c3.577 0 6.476-2.899 6.476-6.476s-2.899-6.476-6.477-6.476zm-199.341-370.992c0-9.082 7.39-16.474 16.474-16.474h127.194c9.085 0 16.477 7.392 16.477 16.474s-7.392 16.474-16.477 16.474h-2.875c-.035-.001-.065-.02-.1-.02h-121.858c-.036 0-.065.02-.101.02h-2.259c-9.085.001-16.475-7.392-16.475-16.474zm1.424 189.675c14.863-20.957 22.837-45.612 23.057-71.305l.774-88.943h108.962v87.901c0 26.335 8.141 51.593 23.553 73.061l13.559 18.808c-38.082-12.969-76.559-2.426-110.271 10.624-39.287 15.973-49.126 13.847-82.904 2.623z"/><path d="m419.344 307.643c-47.71 0-86.524 38.858-86.524 86.626 0 47.737 38.815 86.575 86.524 86.575 47.765 0 86.626-38.838 86.626-86.575 0-47.768-38.86-86.626-86.626-86.626zm0 160.249c-40.568 0-73.572-33.029-73.572-73.622 0-40.624 33.004-73.673 73.572-73.673 40.624 0 73.673 33.049 73.673 73.673.001 40.592-33.049 73.622-73.673 73.622z"/><path d="m445.06 375.913c-2.548-2.5-6.633-2.445-9.136.086-8.881-12.418-19.941-23.322-20.493-23.861-2.553-2.499-6.648-2.464-9.153.086-5.12 5.211-30.664 32.118-30.664 50.075 0 19.773 16.085 35.858 35.852 35.858 9.745 0 19.099-4.06 25.808-11.018 13.971 2.297 25.901-8.635 25.901-22.042.001-10.651-13.865-25.03-18.115-29.184zm-33.593 49.291c-12.626 0-22.9-10.276-22.9-22.905 0-8.515 12.325-24.974 22.399-36.146 4.379 4.69 11.055 12.259 16.231 19.965-9.209 12.068-13.154 23.769-2.279 34.724-3.851 2.818-8.513 4.362-13.451 4.362zm19.947-20.107c0-3.6 6.721-12.078 9.234-15.022 5.452 6.193 9.575 12.502 9.575 15.022.005 12.412-18.809 12.457-18.809 0z"/></g></g></g><g id="Layer_1"/></svg>