<svg id="Layer_1" enable-background="new 0 0 500 500" viewBox="0 0 500 500" xmlns="http://www.w3.org/2000/svg"><g><g><g><path d="m47.59 156.427c-1.487 0-2.905-.853-3.558-2.295-.888-1.964-.017-4.276 1.947-5.164.261-.118 26.397-12.003 41.518-24.121 1.684-1.347 4.14-1.077 5.485.604 1.348 1.682 1.078 4.137-.604 5.485-15.896 12.739-42.076 24.642-43.182 25.142-.523.238-1.069.349-1.606.349z" fill="#7fafc8"/></g><g><path d="m52.902 167.033c-1.754 0-3.349-1.19-3.787-2.97-.697-2.833.44-3.547 5.903-6.974 4.841-3.036 12.944-8.118 21.166-13.919 2.261-1.597 4.604-3.124 6.897-4.618 2.822-1.839 5.487-3.575 7.815-5.323 1.725-1.29 4.171-.945 5.464.779s.945 4.17-.779 5.464c-2.535 1.903-5.306 3.708-8.239 5.618-2.213 1.443-4.474 2.914-6.657 4.457-8.397 5.923-16.612 11.076-21.519 14.154-1.508.946-3.063 1.921-3.614 2.297-.469.433-1.05.757-1.714.921-.313.078-.627.114-.936.114z" fill="#7fafc8"/></g><g><path d="m55.536 169.579c-1.76 0-3.356-1.198-3.789-2.984-.701-2.889.104-3.423 7.81-8.538 4.625-3.069 11.614-7.707 18.493-12.791 2.508-1.852 5.079-3.605 7.566-5.3 2.488-1.695 4.839-3.296 6.919-4.858 1.725-1.293 4.171-.945 5.464.779s.945 4.17-.779 5.463c-2.223 1.668-4.645 3.32-7.21 5.066-2.425 1.653-4.934 3.363-7.321 5.126-7.039 5.201-14.126 9.905-18.817 13.018-2.238 1.485-4.545 3.017-5.343 3.622-.517.618-1.229 1.081-2.071 1.285-.309.075-.619.112-.922.112zm3.808-4.766v.001zm-.001-.007v.003c0-.001 0-.001 0-.003zm-.003-.007c.001.002.001.003.001.005 0-.003 0-.004-.001-.005zm-.001-.006c.001.001.001.002.001.004 0-.002 0-.003-.001-.004zm-.001-.005c.001.001.001.002.001.004 0-.002 0-.003-.001-.004zm-.002-.008c0 .003.001.004.001.005.001-.001-.001-.002-.001-.005zm-.001-.006c0 .002.001.003.001.006 0-.003-.001-.004-.001-.006zm-.001-.006c0 .002 0 .003.001.004-.001-.001-.001-.002-.001-.004zm-.001-.006c0 .001 0 .002.001.003-.001.001-.001-.002-.001-.003zm-.003-.006c.001.001.001.003.001.005.001-.002.001-.004-.001-.005z" fill="#7fafc8"/></g><g><path d="m61.519 175.631c-1.78 0-3.387-1.226-3.801-3.033-.674-2.955.277-3.618 9.387-9.966 4.376-3.049 10.369-7.224 16.263-11.711 2.724-2.073 5.497-4.027 8.18-5.918 2.157-1.521 4.23-2.98 6.096-4.38 1.721-1.291 4.17-.943 5.463.781 1.294 1.724.944 4.169-.781 5.463-1.922 1.442-4.059 2.949-6.283 4.516-2.624 1.85-5.339 3.762-7.948 5.747-6.025 4.586-12.095 8.815-16.527 11.904-2.875 2.002-5.839 4.068-6.815 4.883-.535.789-1.358 1.384-2.359 1.613-.295.068-.587.101-.875.101zm3.815-4.742c.015.064.028.131.038.195-.01-.064-.023-.129-.038-.195zm-.003-.013c.002.004.002.007.003.013-.001-.004-.001-.009-.003-.013zm-.001-.005c0 .001.002.002.002.003-.001 0-.002-.002-.002-.003zm-.001-.006c0 .001.001.003.001.005 0-.003-.001-.004-.001-.005zm-.002-.008c0 .003 0 .004.001.006-.001-.002-.001-.003-.001-.006z" fill="#7fafc8"/></g><g><path d="m69.622 183.884c-1.81 0-3.432-1.266-3.816-3.107-.616-2.955.646-3.872 8.866-9.838 4.331-3.144 10.264-7.451 16.048-12.185.145-.118.297-.226.457-.323 5.542-3.339 10.705-7.043 14.061-9.56 1.725-1.292 4.172-.945 5.464.779 1.293 1.724.945 4.171-.779 5.463-3.453 2.59-8.746 6.387-14.477 9.858-5.888 4.806-11.833 9.123-16.189 12.284-2.503 1.817-5.309 3.854-6.263 4.696-.537.919-1.448 1.616-2.573 1.85-.266.056-.534.083-.799.083zm3.826-4.691v.002c0-.002 0-.002 0-.002z" fill="#7fafc8"/></g><g><path d="m78.81 193.301c-1.84 0-3.478-1.307-3.831-3.181-.591-3.134 1.09-4.294 10.415-10.727 4.257-2.937 9.553-6.591 14.797-10.586.106-.081.217-.157.33-.226 4.878-2.98 9.505-6.396 13.826-9.638 1.725-1.29 4.172-.944 5.464.779 1.294 1.724.946 4.171-.779 5.464-4.423 3.318-9.165 6.818-14.269 9.95-5.337 4.059-10.656 7.728-14.937 10.681-3.049 2.104-6.468 4.463-7.58 5.437-.54.997-1.508 1.75-2.71 1.978-.242.047-.487.069-.726.069zm3.841-4.619v.001z" fill="#7fafc8"/></g><g><path d="m88.308 203.289c-1.851 0-3.495-1.324-3.835-3.21-.603-3.34 1.581-4.727 10.769-10.564 4.278-2.717 9.599-6.098 14.788-9.819.075-.055.151-.105.23-.154 4.115-2.531 8.022-5.496 11.47-8.111l2.123-1.605c1.727-1.294 4.172-.945 5.463.779 1.293 1.724.945 4.17-.779 5.463l-2.091 1.581c-3.557 2.699-7.585 5.755-11.979 8.469-5.332 3.817-10.712 7.234-15.039 9.984-3.062 1.945-6.495 4.126-7.654 5.088-.54 1.032-1.532 1.813-2.767 2.035-.234.042-.468.064-.699.064z" fill="#7fafc8"/></g><g><path d="m95.183 211.727c-1.857 0-3.502-1.331-3.838-3.223-.612-3.461 1.857-4.971 10.041-9.974 4.429-2.707 9.939-6.077 15.278-9.981 3.731-2.38 7.113-5.021 10.095-7.352 1.226-.958 2.387-1.865 3.475-2.682 1.725-1.29 4.171-.943 5.464.779 1.293 1.724.945 4.17-.779 5.464-1.051.789-2.173 1.665-3.355 2.589-3.123 2.441-6.664 5.207-10.504 7.648-5.39 3.951-11.053 7.413-15.603 10.195-2.676 1.635-5.671 3.467-6.762 4.343-.529 1.084-1.55 1.907-2.826 2.133-.231.041-.46.061-.686.061zm3.849-4.577v.001s0 .001 0-.001z" fill="#7fafc8"/></g><g><path d="m101.717 220.249c-1.871 0-3.524-1.35-3.844-3.257-.6-3.578 2.246-5.311 9.85-9.94 4.398-2.676 9.872-6.009 15.095-9.966 3.244-2.194 6.218-4.61 8.842-6.742 1.594-1.294 3.088-2.507 4.464-3.539 1.725-1.293 4.169-.945 5.464.779 1.293 1.724.945 4.17-.779 5.464-1.303.978-2.718 2.129-4.227 3.355-2.752 2.234-5.87 4.767-9.228 7.03-5.362 4.071-11.024 7.518-15.573 10.285-2.552 1.554-5.407 3.292-6.471 4.163-.507 1.18-1.584 2.086-2.943 2.315-.218.036-.435.053-.65.053z" fill="#7fafc8"/></g><g><path d="m107.688 228.495c-1.863 0-3.514-1.342-3.84-3.241-.644-3.737 2.665-5.832 9.915-10.422 4.242-2.685 9.519-6.026 14.472-9.99 2.819-2.053 5.318-4.186 7.738-6.249 1.876-1.602 3.649-3.115 5.304-4.357 1.725-1.292 4.168-.944 5.464.779 1.293 1.724.945 4.171-.779 5.464-1.46 1.096-3.143 2.532-4.924 4.051-2.415 2.06-5.151 4.395-8.072 6.517-5.145 4.123-10.625 7.591-15.028 10.379-2.466 1.56-5.471 3.465-6.546 4.412-.445 1.312-1.575 2.346-3.036 2.598-.225.039-.447.059-.668.059z" fill="#7fafc8"/></g><g><path d="m116.294 240.927c-1.809 0-3.431-1.265-3.816-3.105-.828-3.961 2.671-6.448 9.641-11.404 3.992-2.838 8.961-6.371 13.525-10.539 2.458-1.99 4.601-3.955 6.673-5.855 2.198-2.013 4.272-3.916 6.204-5.367 1.724-1.296 4.172-.947 5.464.776 1.294 1.724.946 4.171-.776 5.464-1.627 1.222-3.565 2.999-5.616 4.881-2.063 1.89-4.401 4.034-6.869 6.022-4.733 4.332-9.918 8.017-14.083 10.979-2.476 1.76-5.5 3.909-6.508 4.973-.287 1.502-1.447 2.757-3.036 3.089-.27.058-.539.086-.803.086z" fill="#7fafc8"/></g><g><path d="m121.632 247.99c-1.771 0-3.374-1.213-3.796-3.012-.974-4.157 2.73-7.102 9.456-12.448 3.69-2.933 8.284-6.583 12.43-10.794 1.84-1.725 3.496-3.393 5.068-4.976 2.652-2.669 5.156-5.191 7.478-6.944 1.716-1.297 4.166-.957 5.467.764 1.298 1.72.956 4.168-.763 5.466-1.879 1.418-4.193 3.748-6.644 6.214-1.638 1.649-3.364 3.384-5.16 5.063-4.365 4.437-9.163 8.251-13.019 11.317-2.56 2.035-5.695 4.527-6.62 5.72-.115 1.66-1.295 3.125-3.002 3.525-.299.071-.599.105-.895.105zm3.803-4.795c0 .001 0 .004.001.005-.001-.002-.001-.004-.001-.005z" fill="#7fafc8"/></g><g><path d="m126.391 251.091c-1.758 0-3.354-1.195-3.789-2.979-1.052-4.313 2.861-7.669 9.342-13.23 3.628-3.112 7.74-6.64 11.561-10.799 1.643-1.649 3.113-3.215 4.516-4.71 2.758-2.937 5.362-5.712 7.787-7.542 1.719-1.297 4.165-.958 5.467.763 1.298 1.72.956 4.167-.763 5.466-1.893 1.429-4.276 3.967-6.8 6.655-1.457 1.552-2.984 3.178-4.572 4.767-4.021 4.381-8.507 8.231-12.113 11.323-2.646 2.272-5.899 5.06-6.729 6.348.017 1.772-1.183 3.388-2.979 3.826-.312.075-.623.112-.928.112zm3.794-4.828v.004c0-.002 0-.003 0-.004z" fill="#7fafc8"/></g><g><path d="m138.3 258.28c-1.735 0-3.319-1.166-3.774-2.923-1.178-4.535 2.867-8.397 9.571-14.796 3.171-3.028 6.766-6.46 10.083-10.281.913-1.048 1.804-2.092 2.673-3.11 3.441-4.032 6.414-7.515 9.276-9.678 1.715-1.3 4.165-.963 5.466.761 1.299 1.719.959 4.166-.761 5.466-2.182 1.65-5.03 4.986-8.045 8.518-.886 1.038-1.792 2.101-2.719 3.165-3.553 4.093-7.288 7.658-10.584 10.805-2.955 2.822-6.599 6.301-7.298 7.791.186 1.879-1.019 3.666-2.904 4.155-.33.086-.66.127-.984.127z" fill="#7fafc8"/></g><g><path d="m151.253 265.319c-1.712 0-3.284-1.137-3.76-2.87-1.306-4.747 3.064-9.314 9.679-16.227 2.759-2.882 5.887-6.151 8.763-9.639.895-1.081 1.763-2.15 2.608-3.192 3.346-4.124 6.236-7.686 9.061-9.813 1.716-1.299 4.166-.953 5.465.77 1.297 1.721.951 4.168-.77 5.465-2.062 1.552-4.798 4.925-7.695 8.496-.862 1.063-1.748 2.155-2.655 3.248-3.053 3.702-6.286 7.081-9.139 10.062-3.037 3.176-7.166 7.49-7.704 9.159.325 1.948-.87 3.866-2.816 4.4-.345.095-.694.141-1.037.141z" fill="#7fafc8"/></g><g><path d="m160.919 270.489c-1.692 0-3.249-1.108-3.746-2.814-1.387-4.769 2.613-9.408 8.669-16.433 2.632-3.053 5.616-6.513 8.312-10.227.094-.131.197-.254.306-.372 1.611-1.725 3.113-3.509 4.567-5.234 2.517-2.989 4.691-5.57 6.899-7.231 1.723-1.293 4.17-.947 5.465.775 1.294 1.724.948 4.171-.775 5.465-1.5 1.127-3.501 3.502-5.62 6.018-1.4 1.663-2.981 3.54-4.667 5.358-2.847 3.901-5.888 7.428-8.575 10.545-2.834 3.288-6.693 7.763-7.022 9.406.441 1.992-.734 4.01-2.721 4.588-.364.105-.731.156-1.092.156z" fill="#7fafc8"/></g><g><path d="m171.36 276.345c-1.695 0-3.281-1.157-3.806-2.853-1.543-4.994 2.752-10.17 8.695-17.335 2.353-2.835 5.02-6.049 7.433-9.417 1.24-1.563 2.31-2.975 3.338-4.328 2.841-3.746 5.297-6.982 7.816-8.873 1.721-1.293 4.169-.945 5.463.779 1.294 1.722.945 4.169-.779 5.464-1.645 1.236-3.899 4.205-6.284 7.349-1.063 1.402-2.175 2.866-3.333 4.317-2.453 3.432-5.214 6.758-7.648 9.693-3.016 3.635-7.147 8.615-7.205 10.269.637 2.059-.538 4.134-2.595 4.769-.363.113-.731.166-1.095.166z" fill="#7fafc8"/></g><g><path d="m180.72 281.868c-1.672 0-3.233-1.104-3.765-2.777-1.622-5.105 2.553-10.37 8.331-17.66 2.26-2.849 4.596-5.796 6.784-8.98.862-1.224 1.669-2.404 2.452-3.546 2.97-4.339 5.535-8.088 8.22-10.118 1.717-1.302 4.164-.96 5.466.761 1.3 1.719.959 4.167-.761 5.467-1.669 1.261-4.117 4.839-6.485 8.299-.802 1.173-1.63 2.383-2.488 3.598-2.312 3.364-4.841 6.555-7.072 9.369-2.976 3.754-7.052 8.894-6.983 10.571.653 2.054-.496 4.187-2.551 4.84-.381.119-.767.176-1.148.176z" fill="#7fafc8"/></g><g><path d="m190.077 287.818c-1.655 0-3.197-1.068-3.731-2.728-1.654-5.15 2.486-10.719 7.729-17.77 2.105-2.831 4.282-5.759 6.301-8.91.966-1.444 1.847-2.827 2.693-4.154 2.682-4.202 4.996-7.833 7.533-9.781 1.71-1.311 4.159-.99 5.472.719 1.312 1.71.989 4.16-.719 5.472-1.448 1.112-3.613 4.505-5.706 7.786-.875 1.372-1.787 2.802-2.742 4.231-2.124 3.316-4.486 6.491-6.568 9.292-2.701 3.632-6.781 9.12-6.551 10.766.659 2.051-.475 4.23-2.527 4.889-.392.128-.791.188-1.184.188z" fill="#7fafc8"/></g><g><path d="m199.681 294.379c-1.639 0-3.165-1.042-3.706-2.683-1.759-5.347 2.232-11.027 7.287-18.219 1.913-2.721 3.891-5.535 5.715-8.54.964-1.556 1.854-3.088 2.703-4.547 2.541-4.364 4.548-7.811 6.976-9.726 1.688-1.331 4.145-1.044 5.48.648 1.336 1.692 1.046 4.145-.648 5.48-1.262.995-3.28 4.464-5.063 7.524-.883 1.518-1.811 3.113-2.796 4.701-1.941 3.198-4.088 6.254-5.982 8.948-2.706 3.849-6.794 9.666-6.258 11.289.673 2.048-.439 4.253-2.486 4.928-.405.133-.817.197-1.222.197z" fill="#7fafc8"/></g><g><path d="m208.928 301.04c-1.625 0-3.141-1.023-3.694-2.645-1.852-5.437 1.855-11.326 6.145-18.145 1.814-2.883 3.689-5.862 5.366-9.083.055-.106.115-.209.18-.31 1.25-1.941 2.363-3.911 3.439-5.817 2.121-3.756 3.798-6.724 5.91-8.44 1.669-1.364 4.128-1.108 5.489.565 1.36 1.672 1.107 4.13-.565 5.489-.966.786-2.598 3.675-4.037 6.224-1.053 1.864-2.243 3.971-3.576 6.052-1.802 3.441-3.817 6.645-5.6 9.476-2.679 4.259-6.014 9.559-5.362 11.471.695 2.04-.395 4.258-2.435 4.953-.419.143-.844.21-1.26.21z" fill="#7fafc8"/></g><g><path d="m218.226 307.798c-1.613 0-3.122-1.008-3.684-2.618-1.966-5.632 1.441-11.646 5.384-18.61 1.664-2.938 3.384-5.977 4.897-9.266.05-.111.108-.22.169-.325 1.136-1.96 2.146-3.927 3.121-5.827 2.054-4.003 3.678-7.164 5.792-8.92 1.66-1.377 4.117-1.148 5.495.511 1.376 1.658 1.148 4.118-.51 5.495-.884.735-2.519 3.919-3.833 6.478-.949 1.849-2.021 3.938-3.22 6.017-1.631 3.524-3.484 6.794-5.12 9.682-2.757 4.868-5.606 9.901-4.807 12.194.71 2.035-.363 4.261-2.398 4.97-.425.149-.858.219-1.286.219z" fill="#7fafc8"/></g><g><path d="m227.871 314.853c-1.614 0-3.125-1.01-3.685-2.621-1.994-5.723 1.066-11.899 4.607-19.051 1.521-3.069 3.092-6.244 4.436-9.67.046-.117.098-.231.154-.343.982-1.931 1.864-3.853 2.683-5.635 2.105-4.583 3.627-7.896 5.801-9.717 1.655-1.385 4.113-1.166 5.498.486 1.384 1.652 1.166 4.115-.485 5.498-.839.717-2.505 4.345-3.722 6.992-.835 1.818-1.736 3.776-2.731 5.746-1.45 3.673-3.142 7.089-4.638 10.108-2.647 5.344-5.146 10.391-4.231 13.021.709 2.035-.367 4.259-2.402 4.968-.426.148-.86.218-1.285.218z" fill="#7fafc8"/></g><g><path d="m237.669 321.776c-1.626 0-3.143-1.024-3.696-2.649-2.016-5.934.964-12.457 4.415-20.01 1.345-2.945 2.736-5.991 3.938-9.211.432-1.161.849-2.304 1.252-3.414 2.552-7.013 4.113-11.081 6.544-13.129 1.651-1.387 4.112-1.174 5.499.471 1.389 1.648 1.178 4.11-.471 5.5-1.015.969-2.878 6.089-4.238 9.827-.409 1.127-.834 2.29-1.274 3.472-1.298 3.482-2.814 6.8-4.15 9.727-2.645 5.789-5.142 11.258-4.124 14.257.693 2.04-.399 4.257-2.44 4.951-.415.141-.84.208-1.255.208z" fill="#7fafc8"/></g><g><path d="m247.464 328.391c-1.645 0-3.176-1.049-3.711-2.699-1.932-5.956.8-12.66 3.964-20.422 1.217-2.986 2.476-6.075 3.55-9.31l1.058-3.23c2.492-7.661 3.908-11.757 6.355-13.822 1.644-1.39 4.107-1.183 5.499.466 1.39 1.647 1.182 4.109-.466 5.499-.952 1.007-2.694 6.362-3.967 10.272l-1.074 3.276c-1.156 3.48-2.464 6.691-3.728 9.794-2.479 6.083-4.82 11.827-3.768 15.069.666 2.05-.457 4.252-2.508 4.917-.398.127-.805.19-1.204.19z" fill="#7fafc8"/></g><g><path d="m256.788 334.259c-1.654 0-3.189-1.059-3.717-2.719-1.935-6.076.685-13.036 3.718-21.094 1.087-2.887 2.21-5.871 3.176-8.956l1.044-3.388c2.376-7.773 3.728-11.923 6.142-13.945 1.65-1.388 4.114-1.166 5.497.487 1.384 1.651 1.166 4.113-.487 5.497-.859.987-2.495 6.338-3.689 10.244l-1.058 3.435c-1.032 3.298-2.195 6.387-3.321 9.377-2.416 6.419-4.699 12.481-3.586 15.976.654 2.053-.48 4.248-2.534 4.904-.394.124-.793.182-1.185.182z" fill="#7fafc8"/></g><g><path d="m265.973 339.44c-1.633 0-3.157-1.034-3.702-2.668-2.116-6.347.512-13.674 3.556-22.158.936-2.609 1.904-5.307 2.754-8.054.422-1.355.822-2.678 1.204-3.947 2.33-7.721 3.551-11.518 5.85-13.456 1.651-1.387 4.112-1.174 5.499.471 1.388 1.648 1.178 4.11-.471 5.5-.746.92-2.283 6.017-3.406 9.74-.389 1.288-.794 2.633-1.222 4.005-.899 2.907-1.896 5.687-2.862 8.377-2.448 6.823-4.76 13.27-3.499 17.053.682 2.046-.423 4.256-2.467 4.937-.409.136-.825.2-1.234.2z" fill="#7fafc8"/></g><g><path d="m275.235 344.117c-1.611 0-3.118-1.003-3.681-2.609-2.242-6.38.136-13.732 2.888-22.245.848-2.621 1.724-5.332 2.481-8.087.029-.108.063-.216.103-.321.828-2.234 1.552-4.415 2.21-6.395 1.978-5.946 3.015-8.878 4.964-10.528 1.648-1.395 4.108-1.189 5.499.456 1.394 1.645 1.189 4.107-.456 5.499-.478.649-1.655 4.191-2.602 7.036-.668 2.011-1.402 4.217-2.238 6.484-.793 2.865-1.678 5.606-2.537 8.257-2.221 6.871-4.319 13.36-2.951 17.257.715 2.033-.354 4.261-2.388 4.975-.427.15-.863.221-1.292.221z" fill="#7fafc8"/></g><g><path d="m284.751 348.548c-1.598 0-3.097-.988-3.67-2.576-2.339-6.476.023-14.179 2.523-22.335.769-2.51 1.564-5.104 2.246-7.724.031-.117.066-.231.107-.342.826-2.287 1.543-4.507 2.194-6.514 1.926-5.941 2.935-8.868 4.858-10.469 1.658-1.382 4.118-1.153 5.496.503 1.33 1.596 1.167 3.942-.332 5.344-.613.902-1.711 4.291-2.598 7.026-.658 2.034-1.386 4.278-2.218 6.59-.713 2.72-1.514 5.339-2.292 7.872-2.107 6.875-4.098 13.372-2.645 17.396.733 2.027-.317 4.266-2.345 4.997-.436.158-.884.232-1.324.232zm13.254-43.965c-.001.002-.002.002-.003.003.001-.001.002-.001.003-.003z" fill="#7fafc8"/></g><g><path d="m294.254 352.753c-1.576 0-3.061-.96-3.651-2.523-2.471-6.532-.32-14.154 1.956-22.226.7-2.483 1.424-5.054 2.028-7.635.028-.119.061-.236.099-.352.694-2.068 1.314-4.072 1.883-5.913 2.035-6.576 3.018-9.553 5.017-11.155 1.684-1.348 4.139-1.077 5.485.602 1.286 1.602 1.101 3.908-.374 5.289-.634.983-1.762 4.627-2.672 7.571-.57 1.844-1.19 3.847-1.881 5.914-.634 2.691-1.366 5.286-2.075 7.798-1.917 6.799-3.728 13.219-2.168 17.348.763 2.015-.255 4.269-2.269 5.03-.452.171-.919.252-1.378.252zm12.218-43.717s-.001.001-.003.001c.002 0 .003-.001.003-.001z" fill="#7fafc8"/></g><g><path d="m305.275 357.436c-1.561 0-3.035-.943-3.636-2.483-2.717-6.953-.488-15.023 1.874-23.565.543-1.966 1.097-3.97 1.597-5.991l.475-1.903c2.432-9.737 3.515-13.763 5.901-15.602 1.71-1.315 4.16-.998 5.474.708 1.234 1.603 1.032 3.86-.41 5.219-.854 1.406-2.257 7.028-3.392 11.566l-.475 1.896c-.512 2.077-1.085 4.149-1.646 6.184-2.006 7.256-3.9 14.108-2.127 18.646.785 2.007-.207 4.271-2.214 5.056-.469.182-.95.269-1.421.269zm10.979-43.365c-.002.001-.003.001-.003.003 0-.001.002-.001.003-.003z" fill="#7fafc8"/></g><g><path d="m316.018 362.107c-1.56 0-3.033-.94-3.635-2.482-2.761-7.06-.74-15.152 1.4-23.717.454-1.822.917-3.666 1.333-5.523l.365-1.626c2.228-9.964 3.228-14.08 5.6-15.888 1.711-1.307 4.16-.978 5.468.738 1.203 1.578 1.019 3.78-.357 5.139-.804 1.47-2.071 7.135-3.096 11.716l-.366 1.634c-.429 1.916-.905 3.822-1.376 5.702-1.829 7.325-3.558 14.243-1.703 18.986.785 2.007-.206 4.271-2.213 5.056-.468.179-.948.265-1.42.265z" fill="#7fafc8"/></g><g><path d="m325.474 366.429c-1.565 0-3.041-.945-3.641-2.492-2.621-6.771-1.091-14.35.529-22.376.437-2.167.884-4.375 1.247-6.603.018-.107.04-.214.066-.318.477-1.908.909-3.76 1.308-5.471 1.766-7.572 2.477-10.269 4.441-11.804 1.696-1.326 4.152-1.027 5.478.673 1.198 1.533 1.068 3.68-.217 5.06-.532 1.119-1.398 4.832-2.101 7.843-.397 1.705-.826 3.542-1.298 5.437-.375 2.269-.828 4.517-1.274 6.727-1.387 6.875-2.698 13.369-.899 18.011.778 2.009-.22 4.27-2.23 5.048-.464.181-.94.265-1.409.265z" fill="#7fafc8"/></g><g><path d="m333.757 370.393c-1.55 0-3.016-.927-3.625-2.454-2.773-6.944-1.345-14.903.036-22.599.373-2.076.752-4.182 1.056-6.301.012-.089.029-.178.047-.264.436-2.028.82-3.989 1.176-5.79 1.521-7.729 2.093-10.245 3.993-11.77 1.684-1.344 4.14-1.076 5.486.603 1.187 1.482 1.119 3.564-.062 4.959-.465 1.138-1.18 4.769-1.759 7.716-.355 1.801-.741 3.76-1.174 5.788-.314 2.165-.7 4.317-1.08 6.438-1.242 6.918-2.415 13.455-.47 18.323.799 2.002-.175 4.273-2.176 5.071-.477.191-.967.28-1.448.28zm7.568-43.092c-.001.001-.003.002-.004.004.002-.002.003-.003.004-.004z" fill="#7fafc8"/></g><g><path d="m347.959 377.474c-1.531 0-2.983-.905-3.607-2.409-2.9-6.992-1.857-14.84-.849-22.429.282-2.116.568-4.261.774-6.423.333-2.111.603-3.913.855-5.587 1.281-8.542 1.734-11.074 3.61-12.637 1.655-1.382 4.117-1.157 5.496.5 1.183 1.42 1.187 3.432.119 4.845-.427 1.245-1.023 5.221-1.508 8.45-.255 1.702-.53 3.531-.835 5.421-.183 2.005-.48 4.248-.774 6.458-.913 6.867-1.776 13.357.321 18.412.826 1.99-.119 4.273-2.11 5.099-.487.206-.994.3-1.492.3zm5.782-43.491c-.001 0-.003.002-.004.002.002 0 .003-.002.004-.002z" fill="#7fafc8"/></g><g><path d="m354.359 380.347c-1.532 0-2.987-.907-3.608-2.411-3.064-7.416-2.15-15.734-1.266-23.778.198-1.794.397-3.603.552-5.414 1.251-14.469 1.738-16.895 3.716-18.541 1.658-1.383 4.119-1.155 5.496.5 1.152 1.382 1.186 3.326.202 4.733-.596 1.946-1.243 9.436-1.636 13.979-.163 1.873-.367 3.743-.571 5.597-.813 7.391-1.58 14.375.721 19.942.823 1.992-.125 4.276-2.117 5.099-.487.2-.993.294-1.489.294zm4.393-44.152c-.001 0-.003.003-.004.003.001 0 .002-.003.004-.003z" fill="#7fafc8"/></g><g><path d="m357.908 380.55c-1.538 0-2.994-.912-3.613-2.424-3.168-7.739-2.448-16.408-1.753-24.789.132-1.583.264-3.171.37-4.754 1.029-15.452 1.744-17.34 3.526-18.803 1.668-1.365 4.126-1.123 5.492.543 1.116 1.359 1.159 3.244.234 4.634-.282.991-.799 4.159-1.465 14.144-.108 1.626-.244 3.255-.379 4.881-.648 7.807-1.26 15.183 1.198 21.186.817 1.994-.139 4.273-2.133 5.089-.484.199-.984.293-1.477.293zm3.483-44.738c-.001.002-.003.002-.004.005.002-.003.003-.003.004-.005z" fill="#7fafc8"/></g><g><path d="m365.2 380.576c-1.55 0-3.017-.93-3.625-2.457-3.255-8.158-2.66-17.282-2.085-26.103.082-1.26.164-2.518.235-3.768.951-16.962 2.147-17.909 3.53-19.008 1.686-1.34 4.142-1.058 5.483.631 1.066 1.347 1.104 3.176.222 4.543-.314 1.153-.938 5.259-1.443 14.271-.071 1.276-.155 2.556-.239 3.839-.543 8.323-1.055 16.184 1.545 22.703.799 2.002-.177 4.271-2.179 5.072-.474.188-.963.277-1.444.277zm2.91-45.224c-.002 0-.004.003-.005.003.001-.001.003-.003.005-.003z" fill="#7fafc8"/></g><g><path d="m375.929 380.657c-1.569 0-3.047-.95-3.644-2.503-3.349-8.714-2.728-18.402-2.127-27.772l.152-2.401c1.04-17.101 2.295-18.079 3.624-19.116 1.698-1.326 4.153-1.021 5.476.677 1.035 1.327 1.078 3.111.238 4.462-.359 1.316-1.037 6.057-1.548 14.449l-.153 2.429c-.547 8.532-1.114 17.35 1.624 24.471.772 2.012-.231 4.269-2.243 5.043-.46.177-.934.261-1.399.261zm2.81-45.64c-.002 0-.004.002-.005.002.001 0 .002-.002.005-.002z" fill="#7fafc8"/></g><g><path d="m389.355 381.081c-1.573 0-3.054-.955-3.647-2.513-3.33-8.735-2.859-18.321-2.405-27.594l.136-2.858c1.776-17.597 2.312-18.014 3.902-19.25 1.704-1.321 4.154-1.017 5.477.685 1.007 1.295 1.069 3.025.292 4.36-.264.988-.825 4.251-1.891 14.771l-.121 2.676c-.416 8.468-.846 17.225 1.9 24.431.769 2.012-.241 4.268-2.256 5.035-.456.176-.926.257-1.387.257zm2.784-46.057c-.003 0-.004.003-.005.003.001 0 .002-.003.005-.003z" fill="#7fafc8"/></g><g><path d="m404.873 382.159c-1.579 0-3.065-.965-3.653-2.531-3.427-9.126-3.03-19.538-2.68-28.722l.076-2.03c1.556-17.739 2.293-18.305 3.762-19.437 1.706-1.313 4.158-.997 5.472.708.971 1.26 1.053 2.922.345 4.235-.284 1.153-.949 5.401-1.792 14.977l-.063 1.845c-.339 8.862-.689 18.026 2.186 25.681.757 2.017-.264 4.268-2.282 5.025-.451.17-.915.249-1.371.249z" fill="#7fafc8"/></g><g><path d="m421.248 385.276c-1.58 0-3.068-.968-3.655-2.535-3.589-9.589-3.609-20.183-3.302-31.103.499-17.698 2.073-18.913 3.115-19.718 1.707-1.316 4.155-1.001 5.474.704.932 1.209 1.047 2.789.428 4.077-.303 1.39-.984 6.964-1.214 15.155-.286 10.117-.285 19.88 2.809 28.151.756 2.017-.268 4.266-2.286 5.023-.452.167-.914.246-1.369.246z" fill="#7fafc8"/></g><g><path d="m436.313 388.185c-1.552 0-3.023-.935-3.628-2.467-4.038-10.208-4.386-21.951-4.666-31.389.469-18.158 1.927-19.276 2.989-20.092 1.71-1.316 4.161-.988 5.473.722.887 1.158 1.026 2.657.493 3.91-.282 1.403-.938 7.256-1.154 15.447.262 8.61.587 19.596 4.121 28.532.793 2.004-.188 4.271-2.192 5.064-.471.187-.959.273-1.436.273zm-.544-47.765v.003z" fill="#7fafc8"/></g><g><path d="m448.788 390.538c-1.543 0-3.003-.92-3.618-2.436-4.271-10.531-5.16-22.492-5.457-31.735-.513-18.135 1.664-19.792 2.38-20.336 1.715-1.308 4.165-.975 5.468.742.836 1.097 1.001 2.497.561 3.704-.231 1.344-.839 7.526-.61 15.656.277 8.577 1.082 19.647 4.888 29.037.81 1.997-.152 4.273-2.149 5.081-.48.195-.976.287-1.463.287zm-1.962-48.303s0 0-.003.002c.003-.002.003-.002.003-.002zm.005-.005v.003zm.008-.003c-.002 0-.002 0-.002 0s-.001 0 .002 0z" fill="#7fafc8"/></g><g><path d="m457.553 392.222c-1.532 0-2.983-.905-3.608-2.406-3.618-8.717-5.727-19.213-6.443-32.088-.305-5.501-.719-18.524 2.055-20.607 1.73-1.288 4.171-.943 5.465.78.777 1.039.96 2.34.607 3.491-.229 1.423-.78 7.886-.333 15.902.655 11.816 2.627 21.75 5.859 29.53.826 1.992-.12 4.273-2.109 5.102-.49.202-.995.296-1.493.296z" fill="#7fafc8"/></g><g><path d="m461.371 393.063c-1.527 0-2.975-.899-3.6-2.393-4.845-11.547-6.644-24.022-7.302-32.457-.241-3.089-1.29-18.628 1.774-20.887 1.73-1.275 4.174-.912 5.457.828.706.958.91 2.134.656 3.209-.173 1.224-.76 7.866-.107 16.245.615 7.861 2.276 19.454 6.717 30.043.836 1.987-.102 4.273-2.089 5.107-.492.208-1.003.305-1.506.305z" fill="#7fafc8"/></g><g><path d="m471.099 395.004c-1.519 0-2.965-.892-3.595-2.378-4.157-9.802-7.084-21.438-8.242-32.772-1.034-10.211-.145-18.107-.107-18.438.249-2.139 2.182-3.681 4.324-3.424 2.139.247 3.674 2.18 3.43 4.322-.008.074-.826 7.434.117 16.751 1.067 10.421 3.859 21.544 7.662 30.513.841 1.984-.084 4.276-2.068 5.117-.497.21-1.012.309-1.521.309z" fill="#7fafc8"/></g></g><g><g><path d="m39.22 156.427c-1.487 0-2.905-.853-3.558-2.295-.888-1.964-.017-4.276 1.947-5.164.262-.118 26.395-12.003 41.517-24.121 1.682-1.347 4.137-1.077 5.485.604 1.348 1.682 1.077 4.137-.605 5.485-15.896 12.739-42.074 24.642-43.181 25.142-.522.238-1.068.349-1.605.349z" fill="#a6cbe4"/></g><g><path d="m44.531 167.033c-1.754 0-3.348-1.19-3.787-2.97-.697-2.833.439-3.547 5.901-6.971 4.841-3.037 12.945-8.12 21.168-13.922 2.261-1.597 4.603-3.123 6.896-4.617 2.823-1.839 5.488-3.576 7.819-5.324 1.723-1.29 4.17-.943 5.462.78 1.295 1.724.945 4.169-.78 5.462-2.536 1.904-5.307 3.709-8.241 5.62-2.213 1.442-4.473 2.914-6.657 4.455-8.397 5.925-16.612 11.077-21.522 14.156-1.507.945-3.059 1.918-3.61 2.294-.469.433-1.051.757-1.714.921-.313.08-.626.116-.935.116z" fill="#a6cbe4"/></g><g><path d="m47.164 169.579c-1.759 0-3.356-1.198-3.789-2.984-.701-2.889.104-3.423 7.81-8.538 4.625-3.069 11.614-7.707 18.494-12.791 2.506-1.852 5.076-3.602 7.562-5.296 2.489-1.697 4.842-3.299 6.924-4.862 1.725-1.293 4.172-.945 5.463.779 1.293 1.724.945 4.17-.779 5.463-2.226 1.669-4.649 3.321-7.215 5.07-2.425 1.651-4.931 3.36-7.317 5.123-7.039 5.199-14.126 9.903-18.817 13.017-2.238 1.485-4.545 3.017-5.343 3.622-.517.618-1.228 1.081-2.071 1.285-.308.075-.619.112-.922.112zm3.809-4.766v.001zm-.002-.007v.003c0-.001 0-.001 0-.003zm-.002-.007c.001.002.001.003.001.005 0-.003 0-.004-.001-.005zm-.002-.006c.001.001.001.002.001.004.001-.002.001-.003-.001-.004zm-.001-.005c.001.001.001.002.001.004 0-.002 0-.003-.001-.004zm-.001-.008c0 .003.001.004.001.005 0-.001-.001-.002-.001-.005zm-.001-.006c0 .002.001.003.001.006 0-.003-.001-.004-.001-.006zm-.002-.006c0 .002 0 .003.001.004-.001-.001-.001-.002-.001-.004zm-.001-.006c0 .001 0 .002.001.003-.001.001-.001-.002-.001-.003zm-.002-.006c.001.001.001.003.001.005 0-.002 0-.004-.001-.005z" fill="#a6cbe4"/></g><g><path d="m53.147 175.631c-1.78 0-3.386-1.226-3.801-3.033-.675-2.955.277-3.618 9.387-9.966 4.376-3.049 10.369-7.224 16.263-11.711 2.724-2.073 5.497-4.027 8.18-5.918 2.157-1.521 4.23-2.98 6.096-4.38 1.723-1.291 4.17-.943 5.464.781 1.293 1.724.944 4.169-.781 5.463-1.922 1.442-4.059 2.949-6.283 4.516-2.625 1.85-5.339 3.762-7.949 5.747-6.025 4.586-12.095 8.815-16.527 11.904-2.875 2.002-5.838 4.068-6.815 4.883-.535.789-1.358 1.384-2.359 1.613-.294.068-.586.101-.875.101zm3.815-4.742c.015.064.028.131.038.195-.01-.064-.023-.129-.038-.195zm-.003-.013c.001.004.001.007.003.013-.001-.004-.001-.009-.003-.013zm-.001-.005c0 .001.001.002.001.003 0 0-.001-.002-.001-.003zm-.001-.006c0 .001.001.003.001.005 0-.003-.001-.004-.001-.005zm-.001-.008c0 .003 0 .004.001.006-.001-.002-.001-.003-.001-.006z" fill="#a6cbe4"/></g><g><path d="m61.251 183.884c-1.811 0-3.436-1.269-3.817-3.112-.611-2.951.65-3.868 8.863-9.83 4.333-3.145 10.267-7.453 16.052-12.189.145-.118.299-.226.459-.323 5.545-3.341 10.706-7.043 14.06-9.56 1.725-1.292 4.171-.945 5.464.779 1.294 1.724.946 4.169-.779 5.463-3.45 2.589-8.742 6.386-14.477 9.858-5.89 4.808-11.837 9.126-16.194 12.288-2.501 1.816-5.305 3.852-6.259 4.692-.539.921-1.449 1.619-2.576 1.851-.268.057-.534.083-.796.083zm3.826-4.687c.001.001.001.001.001.002 0-.001 0-.001-.001-.002z" fill="#a6cbe4"/></g><g><path d="m70.439 193.301c-1.84 0-3.479-1.307-3.831-3.181-.591-3.134 1.09-4.294 10.416-10.727 4.257-2.937 9.553-6.591 14.797-10.586.107-.081.217-.157.332-.227 4.872-2.975 9.501-6.393 13.825-9.637 1.725-1.29 4.17-.944 5.464.779 1.293 1.724.945 4.171-.779 5.464-4.426 3.321-9.171 6.821-14.27 9.95-5.337 4.059-10.655 7.728-14.937 10.681-3.049 2.104-6.468 4.463-7.58 5.437-.54.997-1.508 1.75-2.71 1.978-.244.047-.488.069-.727.069zm3.841-4.619v.001z" fill="#a6cbe4"/></g><g><path d="m79.936 203.289c-1.851 0-3.495-1.324-3.835-3.21-.603-3.34 1.579-4.726 10.766-10.562 4.277-2.717 9.6-6.099 14.79-9.821.075-.055.152-.105.23-.154 4.121-2.535 8.032-5.502 11.482-8.121l2.11-1.595c1.724-1.294 4.169-.945 5.464.779 1.293 1.724.945 4.169-.779 5.463l-2.077 1.572c-3.561 2.702-7.593 5.762-11.993 8.478-5.333 3.819-10.713 7.236-15.043 9.987-3.06 1.944-6.492 4.123-7.65 5.085-.54 1.032-1.534 1.813-2.767 2.035-.233.042-.467.064-.698.064z" fill="#a6cbe4"/></g><g><path d="m86.811 211.727c-1.857 0-3.503-1.331-3.838-3.223-.612-3.461 1.857-4.971 10.041-9.974 4.428-2.707 9.939-6.077 15.278-9.981 3.727-2.378 7.107-5.019 10.089-7.347 1.228-.959 2.393-1.869 3.483-2.687 1.725-1.29 4.174-.943 5.464.779 1.293 1.724.945 4.171-.779 5.464-1.053.79-2.178 1.669-3.364 2.595-3.121 2.437-6.66 5.202-10.497 7.641-5.39 3.951-11.053 7.413-15.603 10.195-2.675 1.635-5.67 3.467-6.762 4.343-.528 1.084-1.55 1.907-2.826 2.133-.23.042-.46.062-.686.062zm3.849-4.577v.001s0 .001 0-.001z" fill="#a6cbe4"/></g><g><path d="m93.347 220.249c-1.87 0-3.522-1.349-3.843-3.254-.603-3.581 2.243-5.314 9.85-9.944 4.396-2.676 9.87-6.008 15.092-9.964 3.243-2.193 6.217-4.608 8.84-6.738 1.594-1.295 3.09-2.51 4.467-3.543 1.725-1.293 4.172-.945 5.464.779 1.293 1.725.945 4.17-.779 5.464-1.304.979-2.721 2.132-4.232 3.359-2.75 2.233-5.868 4.765-9.224 7.026-5.362 4.07-11.022 7.516-15.57 10.285-2.552 1.552-5.408 3.292-6.472 4.163-.506 1.179-1.582 2.085-2.941 2.313-.219.036-.436.054-.652.054z" fill="#a6cbe4"/></g><g><path d="m99.316 228.495c-1.864 0-3.514-1.342-3.84-3.241-.644-3.737 2.664-5.832 9.914-10.42 4.242-2.685 9.52-6.027 14.473-9.991 2.819-2.053 5.319-4.186 7.738-6.249 1.876-1.602 3.65-3.115 5.305-4.357 1.726-1.292 4.168-.944 5.463.779 1.294 1.724.945 4.171-.779 5.464-1.46 1.096-3.143 2.532-4.924 4.051-2.415 2.06-5.151 4.395-8.072 6.517-5.145 4.123-10.626 7.592-15.029 10.381-2.466 1.56-5.471 3.463-6.545 4.411-.445 1.312-1.575 2.346-3.036 2.598-.225.037-.447.057-.668.057z" fill="#a6cbe4"/></g><g><path d="m107.923 240.927c-1.809 0-3.431-1.265-3.816-3.105-.828-3.961 2.67-6.448 9.641-11.404 3.993-2.838 8.961-6.371 13.525-10.539 2.458-1.99 4.601-3.955 6.674-5.855 2.196-2.015 4.272-3.916 6.206-5.368 1.721-1.291 4.169-.944 5.463.779 1.294 1.722.945 4.169-.779 5.463-1.626 1.221-3.564 2.998-5.616 4.878-2.062 1.892-4.4 4.036-6.869 6.024-4.733 4.332-9.917 8.017-14.083 10.979-2.476 1.76-5.499 3.909-6.508 4.973-.287 1.502-1.447 2.757-3.036 3.089-.269.058-.538.086-.802.086z" fill="#a6cbe4"/></g><g><path d="m113.262 247.99c-1.77 0-3.373-1.213-3.796-3.011-.977-4.158 2.73-7.104 9.458-12.451 3.69-2.933 8.283-6.583 12.429-10.794 1.842-1.725 3.497-3.393 5.071-4.978 2.651-2.668 5.154-5.187 7.475-6.94 1.716-1.297 4.166-.957 5.466.764 1.298 1.72.957 4.166-.763 5.466-1.878 1.418-4.191 3.746-6.64 6.211-1.64 1.651-3.365 3.388-5.162 5.067-4.365 4.436-9.163 8.25-13.018 11.315-2.56 2.035-5.696 4.527-6.621 5.72-.115 1.661-1.294 3.125-3 3.526-.302.071-.603.105-.899.105zm3.803-4.797v.005c0-.002 0-.003 0-.005z" fill="#a6cbe4"/></g><g><path d="m118.019 251.091c-1.758 0-3.353-1.195-3.789-2.979-1.052-4.313 2.861-7.669 9.342-13.23 3.629-3.112 7.741-6.64 11.562-10.799 1.643-1.647 3.111-3.214 4.514-4.708 2.759-2.938 5.365-5.714 7.791-7.544 1.72-1.297 4.167-.956 5.466.763 1.298 1.722.956 4.168-.763 5.466-1.895 1.429-4.28 3.97-6.804 6.658-1.457 1.551-2.983 3.176-4.569 4.764-4.021 4.381-8.507 8.231-12.113 11.323-2.646 2.272-5.898 5.06-6.729 6.348.016 1.772-1.183 3.388-2.979 3.826-.313.075-.624.112-.929.112zm3.795-4.828v.004c0-.002 0-.003 0-.004z" fill="#a6cbe4"/></g><g><path d="m129.929 258.28c-1.736 0-3.318-1.166-3.774-2.923-1.178-4.535 2.867-8.396 9.568-14.793 3.173-3.029 6.768-6.461 10.085-10.283.913-1.048 1.804-2.092 2.673-3.11 3.441-4.032 6.414-7.515 9.276-9.678 1.716-1.3 4.165-.963 5.466.761 1.299 1.719.959 4.166-.761 5.466-2.182 1.65-5.03 4.986-8.045 8.518-.885 1.038-1.792 2.101-2.718 3.165-3.553 4.094-7.289 7.661-10.586 10.808-2.955 2.82-6.598 6.298-7.297 7.788.185 1.88-1.019 3.666-2.904 4.155-.329.085-.66.126-.983.126z" fill="#a6cbe4"/></g><g><path d="m142.882 265.319c-1.712 0-3.284-1.137-3.76-2.87-1.306-4.747 3.065-9.314 9.681-16.229 2.758-2.883 5.886-6.151 8.762-9.638.893-1.079 1.759-2.145 2.601-3.184 3.349-4.128 6.24-7.692 9.067-9.821 1.719-1.299 4.166-.953 5.464.77 1.297 1.721.952 4.168-.77 5.465-2.063 1.554-4.8 4.929-7.699 8.502-.86 1.061-1.744 2.151-2.648 3.242-3.053 3.702-6.286 7.081-9.137 10.061-3.04 3.175-7.169 7.49-7.707 9.16.325 1.948-.87 3.866-2.816 4.4-.347.096-.695.142-1.038.142z" fill="#a6cbe4"/></g><g><path d="m152.548 270.489c-1.692 0-3.249-1.108-3.746-2.814-1.388-4.769 2.613-9.408 8.669-16.432 2.632-3.052 5.616-6.514 8.313-10.229.094-.131.196-.254.307-.372 1.608-1.723 3.11-3.505 4.56-5.229 2.52-2.991 4.695-5.575 6.907-7.236 1.724-1.296 4.172-.947 5.463.776 1.294 1.724.948 4.169-.776 5.464-1.502 1.128-3.504 3.506-5.624 6.024-1.399 1.661-2.978 3.537-4.662 5.351-2.848 3.904-5.888 7.43-8.578 10.548-2.832 3.287-6.692 7.763-7.021 9.405.441 1.991-.735 4.009-2.721 4.587-.363.106-.73.157-1.091.157z" fill="#a6cbe4"/></g><g><path d="m162.989 276.345c-1.694 0-3.281-1.157-3.806-2.853-1.543-4.994 2.75-10.169 8.693-17.331 2.354-2.837 5.02-6.052 7.435-9.421 1.242-1.565 2.316-2.979 3.343-4.334 2.84-3.744 5.295-6.977 7.813-8.867 1.724-1.293 4.169-.945 5.464.779 1.293 1.724.945 4.171-.779 5.464-1.645 1.235-3.897 4.202-6.28 7.343-1.066 1.405-2.178 2.87-3.339 4.324-2.453 3.433-5.214 6.759-7.649 9.697-3.016 3.634-7.146 8.611-7.204 10.265.637 2.059-.536 4.134-2.595 4.77-.364.111-.733.164-1.096.164z" fill="#a6cbe4"/></g><g><path d="m172.35 281.868c-1.671 0-3.233-1.104-3.765-2.776-1.624-5.106 2.551-10.371 8.328-17.659 2.26-2.851 4.596-5.798 6.785-8.983.865-1.226 1.675-2.41 2.458-3.555 2.968-4.335 5.531-8.08 8.215-10.109 1.719-1.302 4.166-.959 5.466.761s.959 4.167-.761 5.467c-1.668 1.26-4.115 4.833-6.479 8.29-.804 1.175-1.634 2.389-2.495 3.607-2.312 3.365-4.841 6.556-7.073 9.371-2.975 3.753-7.049 8.891-6.98 10.567.653 2.054-.495 4.187-2.549 4.841-.381.121-.769.178-1.15.178z" fill="#a6cbe4"/></g><g><path d="m181.706 287.818c-1.655 0-3.197-1.068-3.731-2.728-1.654-5.149 2.486-10.717 7.728-17.767 2.105-2.833 4.282-5.761 6.302-8.914.964-1.443 1.846-2.825 2.69-4.15 2.683-4.205 4.999-7.835 7.537-9.784 1.71-1.311 4.16-.99 5.472.719 1.312 1.71.99 4.16-.719 5.472-1.449 1.112-3.616 4.507-5.71 7.79-.874 1.372-1.786 2.801-2.74 4.228-2.124 3.317-4.485 6.494-6.57 9.296-2.698 3.63-6.777 9.116-6.548 10.762.659 2.053-.475 4.23-2.527 4.889-.393.127-.792.187-1.184.187z" fill="#a6cbe4"/></g><g><path d="m191.311 294.379c-1.639 0-3.165-1.04-3.706-2.683-1.761-5.346 2.23-11.026 7.284-18.217 1.913-2.721 3.891-5.536 5.717-8.543.963-1.555 1.853-3.086 2.702-4.543 2.542-4.366 4.549-7.815 6.978-9.73 1.688-1.331 4.145-1.044 5.48.648s1.046 4.145-.648 5.48c-1.263.995-3.282 4.466-5.065 7.528-.884 1.518-1.811 3.11-2.795 4.697-1.941 3.2-4.088 6.255-5.983 8.95-2.704 3.848-6.791 9.664-6.256 11.287.674 2.047-.439 4.253-2.486 4.928-.405.134-.817.198-1.222.198z" fill="#a6cbe4"/></g><g><path d="m200.557 301.04c-1.625 0-3.14-1.021-3.694-2.645-1.852-5.436 1.852-11.323 6.143-18.143 1.814-2.883 3.689-5.865 5.366-9.086.056-.106.116-.209.182-.311 1.25-1.942 2.364-3.914 3.441-5.82 2.122-3.754 3.796-6.719 5.904-8.435 1.672-1.362 4.131-1.108 5.49.564 1.361 1.672 1.108 4.13-.564 5.491-.966.785-2.595 3.673-4.035 6.219-1.054 1.865-2.244 3.974-3.579 6.057-1.803 3.442-3.819 6.647-5.6 9.478-2.68 4.257-6.013 9.557-5.361 11.469.695 2.04-.395 4.257-2.435 4.953-.415.142-.841.209-1.258.209z" fill="#a6cbe4"/></g><g><path d="m209.856 307.798c-1.613 0-3.122-1.008-3.684-2.618-1.966-5.632 1.441-11.649 5.385-18.614 1.663-2.937 3.382-5.974 4.896-9.262.051-.111.108-.22.169-.325 1.15-1.984 2.175-3.984 3.119-5.823 2.055-4.005 3.679-7.168 5.792-8.923 1.658-1.382 4.118-1.147 5.495.508 1.377 1.659 1.15 4.118-.508 5.496-.886.736-2.522 3.923-3.835 6.482-.949 1.848-2.02 3.936-3.218 6.014-1.631 3.522-3.482 6.791-5.118 9.68-2.757 4.868-5.607 9.902-4.809 12.196.71 2.035-.363 4.261-2.398 4.97-.425.149-.859.219-1.286.219z" fill="#a6cbe4"/></g><g><path d="m219.5 314.853c-1.615 0-3.125-1.01-3.685-2.621-1.993-5.724 1.066-11.901 4.609-19.053 1.521-3.069 3.092-6.244 4.436-9.669.046-.117.097-.231.153-.341.98-1.93 1.862-3.852 2.679-5.631 2.108-4.587 3.63-7.901 5.803-9.722 1.655-1.385 4.113-1.166 5.498.486 1.383 1.652 1.166 4.115-.486 5.498-.838.718-2.506 4.346-3.723 6.996-.834 1.816-1.734 3.772-2.727 5.742-1.452 3.672-3.144 7.087-4.639 10.107-2.647 5.344-5.147 10.393-4.233 13.022.709 2.035-.367 4.259-2.402 4.968-.425.148-.858.218-1.283.218z" fill="#a6cbe4"/></g><g><path d="m229.297 321.776c-1.626 0-3.143-1.024-3.695-2.649-2.015-5.932.964-12.456 4.415-20.007 1.345-2.946 2.736-5.992 3.938-9.214.432-1.162.848-2.305 1.252-3.415 2.552-7.013 4.114-11.081 6.544-13.129 1.651-1.387 4.112-1.174 5.499.471 1.389 1.648 1.178 4.11-.471 5.5-1.015.969-2.877 6.089-4.238 9.827-.409 1.127-.833 2.29-1.274 3.472-1.298 3.483-2.814 6.801-4.151 9.729-2.644 5.789-5.141 11.257-4.122 14.254.693 2.042-.4 4.257-2.44 4.951-.418.143-.841.21-1.257.21z" fill="#a6cbe4"/></g><g><path d="m239.093 328.391c-1.645 0-3.175-1.049-3.711-2.699-1.932-5.956.8-12.661 3.965-20.424 1.217-2.986 2.476-6.073 3.55-9.309l1.058-3.23c2.492-7.661 3.908-11.754 6.353-13.82 1.649-1.394 4.112-1.184 5.499.464 1.391 1.647 1.183 4.11-.464 5.499-.952 1.007-2.694 6.362-3.965 10.272l-1.075 3.277c-1.156 3.479-2.465 6.688-3.728 9.793-2.48 6.082-4.821 11.827-3.769 15.07.665 2.05-.457 4.252-2.508 4.917-.4.127-.806.19-1.205.19z" fill="#a6cbe4"/></g><g><path d="m248.416 334.259c-1.654 0-3.188-1.059-3.717-2.719-1.934-6.076.685-13.032 3.717-21.089 1.088-2.887 2.212-5.874 3.177-8.961l1.049-3.405c2.374-7.763 3.725-11.909 6.138-13.929 1.651-1.385 4.114-1.165 5.498.488 1.383 1.653 1.165 4.115-.488 5.498-.858.986-2.492 6.326-3.685 10.226l-1.063 3.451c-1.032 3.299-2.196 6.391-3.322 9.382-2.415 6.416-4.696 12.477-3.585 15.971.654 2.053-.48 4.248-2.535 4.904-.393.125-.792.183-1.184.183z" fill="#a6cbe4"/></g><g><path d="m257.603 339.44c-1.634 0-3.157-1.032-3.702-2.668-2.118-6.347.511-13.674 3.556-22.157.936-2.609 1.904-5.309 2.754-8.055.42-1.351.819-2.672 1.2-3.938 2.331-7.726 3.553-11.527 5.852-13.464 1.652-1.387 4.112-1.174 5.5.471 1.389 1.648 1.178 4.11-.471 5.5-.746.921-2.284 6.022-3.407 9.747-.389 1.287-.793 2.629-1.218 3.998-.901 2.907-1.899 5.689-2.863 8.378-2.448 6.823-4.762 13.268-3.499 17.051.682 2.046-.422 4.256-2.467 4.937-.409.136-.826.2-1.235.2z" fill="#a6cbe4"/></g><g><path d="m266.864 344.117c-1.611 0-3.119-1.003-3.682-2.609-2.24-6.38.137-13.73 2.888-22.24.848-2.623 1.725-5.334 2.483-8.092.029-.108.063-.216.103-.321.829-2.234 1.551-4.413 2.211-6.394 1.978-5.947 3.016-8.879 4.963-10.53 1.645-1.394 4.108-1.189 5.501.455 1.393 1.645 1.189 4.107-.455 5.501-.478.649-1.656 4.192-2.603 7.039-.668 2.009-1.404 4.215-2.238 6.481-.793 2.866-1.679 5.609-2.537 8.262-2.22 6.869-4.318 13.358-2.949 17.252.714 2.035-.357 4.261-2.39 4.975-.43.15-.866.221-1.295.221z" fill="#a6cbe4"/></g><g><path d="m276.381 348.548c-1.596 0-3.096-.988-3.67-2.576-2.34-6.474.022-14.179 2.522-22.334.77-2.51 1.565-5.105 2.247-7.725.031-.117.066-.231.107-.342.826-2.288 1.545-4.51 2.195-6.518 1.925-5.939 2.935-8.864 4.855-10.464 1.657-1.382 4.117-1.157 5.496.501 1.331 1.597 1.17 3.942-.329 5.344-.612.902-1.71 4.29-2.596 7.025-.659 2.034-1.387 4.279-2.219 6.593-.713 2.721-1.516 5.339-2.292 7.874-2.107 6.876-4.099 13.37-2.645 17.395.733 2.027-.316 4.263-2.344 4.997-.439.156-.886.23-1.327.23zm13.253-43.966c0 .001-.002.003-.002.003.001 0 .002-.002.002-.003z" fill="#a6cbe4"/></g><g><path d="m285.883 352.753c-1.577 0-3.062-.96-3.652-2.523-2.468-6.532-.319-14.154 1.957-22.227.7-2.483 1.426-5.052 2.029-7.633.028-.119.061-.238.099-.354.695-2.071 1.316-4.077 1.887-5.921 2.033-6.571 3.016-9.545 5.015-11.147 1.682-1.344 4.138-1.076 5.485.605 1.285 1.602 1.099 3.908-.376 5.287-.634.984-1.76 4.622-2.669 7.562-.57 1.846-1.191 3.853-1.884 5.922-.634 2.691-1.365 5.286-2.074 7.796-1.917 6.802-3.727 13.222-2.167 17.35.761 2.015-.255 4.269-2.272 5.03-.453.172-.921.253-1.378.253zm12.219-43.717c-.001.001-.003.001-.004.002.002-.001.003-.001.004-.002zm.279-.273v.001z" fill="#a6cbe4"/></g><g><path d="m296.905 357.436c-1.561 0-3.034-.94-3.636-2.483-2.719-6.957-.488-15.025 1.874-23.57.544-1.965 1.097-3.966 1.597-5.987l.479-1.918c2.431-9.726 3.51-13.746 5.896-15.586 1.709-1.315 4.161-.998 5.474.708 1.235 1.603 1.032 3.86-.41 5.219-.852 1.404-2.255 7.017-3.386 11.55l-.479 1.913c-.512 2.076-1.084 4.147-1.646 6.179-2.006 7.258-3.901 14.113-2.128 18.651.785 2.007-.207 4.271-2.214 5.056-.469.181-.949.268-1.421.268zm10.978-43.365c-.001.001-.003.001-.003.003 0-.001.001-.001.003-.003z" fill="#a6cbe4"/></g><g><path d="m307.646 362.107c-1.56 0-3.034-.94-3.636-2.482-2.76-7.06-.739-15.152 1.4-23.717.455-1.822.917-3.666 1.334-5.523l.364-1.626c2.228-9.964 3.228-14.08 5.6-15.888 1.711-1.307 4.161-.978 5.469.738 1.203 1.578 1.019 3.78-.357 5.139-.804 1.47-2.071 7.135-3.096 11.716l-.366 1.634c-.43 1.916-.906 3.822-1.376 5.702-1.829 7.325-3.558 14.243-1.703 18.986.785 2.007-.206 4.271-2.213 5.056-.467.179-.947.265-1.42.265z" fill="#a6cbe4"/></g><g><path d="m317.104 366.429c-1.565 0-3.041-.945-3.64-2.492-2.622-6.771-1.091-14.352.527-22.378.439-2.167.885-4.375 1.248-6.601.017-.107.039-.214.066-.318.48-1.916.912-3.771 1.312-5.487 1.764-7.562 2.473-10.255 4.437-11.788 1.697-1.326 4.15-1.027 5.477.673 1.198 1.533 1.069 3.68-.216 5.06-.532 1.118-1.397 4.823-2.097 7.828-.398 1.71-.828 3.552-1.303 5.453-.375 2.269-.827 4.515-1.273 6.725-1.387 6.875-2.698 13.372-.899 18.014.778 2.009-.22 4.27-2.23 5.048-.464.179-.941.263-1.409.263z" fill="#a6cbe4"/></g><g><path d="m325.385 370.393c-1.55 0-3.016-.927-3.625-2.454-2.773-6.944-1.345-14.898.035-22.591.372-2.078.752-4.187 1.056-6.308.013-.089.028-.178.047-.264.436-2.028.821-3.989 1.176-5.79 1.521-7.729 2.093-10.245 3.993-11.77 1.684-1.344 4.14-1.076 5.487.603 1.186 1.482 1.119 3.564-.062 4.959-.465 1.138-1.18 4.769-1.759 7.716-.356 1.801-.741 3.76-1.174 5.788-.313 2.167-.7 4.322-1.081 6.443-1.241 6.918-2.414 13.45-.469 18.318.799 2.002-.176 4.273-2.176 5.071-.476.19-.967.279-1.448.279zm7.569-43.092c-.001.001-.003.002-.003.004 0-.002.002-.003.003-.004z" fill="#a6cbe4"/></g><g><path d="m339.589 377.474c-1.531 0-2.983-.905-3.607-2.409-2.9-6.992-1.857-14.84-.848-22.432.281-2.114.567-4.261.772-6.42.333-2.111.603-3.913.855-5.587 1.281-8.542 1.734-11.074 3.611-12.637 1.656-1.382 4.118-1.157 5.495.5 1.183 1.42 1.187 3.432.119 4.845-.427 1.245-1.022 5.221-1.508 8.45-.255 1.702-.53 3.531-.835 5.421-.183 2.005-.48 4.246-.774 6.456-.912 6.87-1.775 13.359.323 18.414.826 1.99-.119 4.273-2.11 5.099-.488.206-.995.3-1.493.3zm5.781-43.491c-.001 0-.003.002-.004.002.002 0 .003-.002.004-.002z" fill="#a6cbe4"/></g><g><path d="m345.987 380.347c-1.532 0-2.986-.907-3.608-2.411-3.064-7.416-2.151-15.734-1.267-23.778.199-1.794.397-3.603.553-5.414 1.251-14.466 1.737-16.892 3.713-18.539 1.659-1.384 4.115-1.159 5.497.495 1.152 1.382 1.188 3.326.204 4.733-.597 1.949-1.245 9.439-1.637 13.981-.162 1.873-.367 3.743-.57 5.597-.813 7.391-1.58 14.375.72 19.942.823 1.992-.124 4.276-2.116 5.099-.486.201-.992.295-1.489.295zm4.396-44.154c-.001.003-.003.003-.004.003.001-.001.003-.001.004-.003z" fill="#a6cbe4"/></g><g><path d="m349.537 380.55c-1.537 0-2.994-.915-3.613-2.424-3.167-7.739-2.448-16.41-1.752-24.794.131-1.581.263-3.166.368-4.749 1.029-15.45 1.744-17.337 3.524-18.801 1.667-1.368 4.124-1.126 5.493.539 1.115 1.359 1.161 3.244.237 4.637-.284.991-.8 4.159-1.466 14.144-.108 1.626-.243 3.255-.377 4.878-.649 7.808-1.26 15.186 1.196 21.189.817 1.994-.138 4.273-2.133 5.092-.484.195-.984.289-1.477.289zm3.485-44.738c-.001 0-.003.002-.004.002.002 0 .003-.002.004-.002z" fill="#a6cbe4"/></g><g><path d="m356.828 380.576c-1.55 0-3.017-.93-3.625-2.457-3.254-8.158-2.659-17.284-2.085-26.108.083-1.258.165-2.513.235-3.763.954-16.967 2.149-17.915 3.534-19.01 1.69-1.339 4.144-1.051 5.481.635 1.066 1.347 1.103 3.176.221 4.54-.314 1.153-.938 5.259-1.444 14.271-.071 1.273-.155 2.554-.239 3.834-.542 8.326-1.054 16.189 1.545 22.708.799 2.002-.176 4.271-2.179 5.072-.473.189-.962.278-1.444.278zm2.909-45.222c-.001 0-.003.002-.005.002.003.001.004-.002.005-.002z" fill="#a6cbe4"/></g><g><path d="m367.559 380.657c-1.569 0-3.047-.95-3.643-2.503-3.35-8.709-2.729-18.392-2.129-27.756l.152-2.416c1.04-17.101 2.296-18.079 3.625-19.116 1.7-1.326 4.153-1.021 5.476.677 1.036 1.327 1.078 3.111.238 4.462-.359 1.316-1.039 6.06-1.549 14.449l-.154 2.442c-.546 8.526-1.111 17.342 1.625 24.459.774 2.012-.23 4.269-2.242 5.043-.46.175-.934.259-1.399.259zm2.81-45.64c-.003 0-.004.002-.005.002.001 0 .003-.002.005-.002z" fill="#a6cbe4"/></g><g><path d="m380.985 381.081c-1.573 0-3.054-.955-3.647-2.513-3.332-8.735-2.861-18.323-2.406-27.594l.136-2.858c1.776-17.597 2.312-18.014 3.903-19.25 1.703-1.321 4.151-1.017 5.476.685 1.007 1.295 1.07 3.025.292 4.36-.264.988-.824 4.251-1.89 14.771l-.121 2.673c-.417 8.47-.846 17.228 1.902 24.434.768 2.012-.242 4.268-2.255 5.035-.457.176-.929.257-1.39.257zm2.782-46.057c-.002 0-.004.003-.005.003.001 0 .002-.003.005-.003z" fill="#a6cbe4"/></g><g><path d="m396.503 382.159c-1.579 0-3.065-.965-3.653-2.531-3.429-9.129-3.031-19.543-2.68-28.732l.076-2.02c1.558-17.744 2.294-18.31 3.764-19.44 1.71-1.312 4.158-.995 5.473.715.968 1.257 1.049 2.919.342 4.23-.285 1.153-.948 5.401-1.791 14.977l-.064 1.837c-.339 8.865-.691 18.031 2.187 25.689.757 2.017-.263 4.268-2.281 5.025-.453.171-.917.25-1.373.25z" fill="#a6cbe4"/></g><g><path d="m412.878 385.276c-1.58 0-3.068-.965-3.655-2.535-3.589-9.586-3.609-20.183-3.302-31.103.499-17.698 2.072-18.913 3.114-19.718 1.706-1.316 4.157-1.001 5.474.704.933 1.209 1.047 2.789.428 4.077-.304 1.388-.983 6.961-1.213 15.155-.286 10.117-.285 19.883 2.809 28.151.756 2.017-.268 4.266-2.286 5.023-.452.167-.914.246-1.369.246z" fill="#a6cbe4"/></g><g><path d="m427.942 388.185c-1.555 0-3.024-.935-3.63-2.467-4.036-10.208-4.384-21.951-4.664-31.389.469-18.153 1.922-19.271 2.984-20.087 1.707-1.313 4.158-.996 5.473.711.891 1.159 1.03 2.658.497 3.913-.28 1.402-.938 7.256-1.151 15.45.26 8.61.587 19.596 4.118 28.532.793 2.004-.188 4.271-2.193 5.064-.471.187-.956.273-1.434.273zm-.545-47.762s0 0-.001 0z" fill="#a6cbe4"/></g><g><path d="m440.416 390.538c-1.542 0-3.003-.92-3.618-2.436-4.27-10.531-5.16-22.492-5.457-31.735-.513-18.135 1.664-19.792 2.38-20.336 1.715-1.308 4.162-.975 5.467.742.836 1.097 1.001 2.497.561 3.704-.231 1.344-.838 7.526-.609 15.656.277 8.577 1.082 19.647 4.888 29.037.811 1.997-.152 4.273-2.149 5.081-.48.195-.975.287-1.463.287zm-1.961-48.303s0 0-.003.002c.003-.002.003-.002.003-.002zm.005-.005v.003s0-.001 0-.003zm.007-.003c-.002 0-.002 0-.002 0s0 0 .002 0z" fill="#a6cbe4"/></g><g><path d="m449.184 392.222c-1.532 0-2.982-.905-3.608-2.406-3.621-8.722-5.729-19.218-6.445-32.088-.305-5.493-.722-18.496 2.037-20.592 1.71-1.303 4.164-.968 5.467.747.79 1.037.978 2.345.625 3.504-.229 1.423-.783 7.896-.336 15.907.656 11.812 2.627 21.745 5.861 29.53.826 1.992-.119 4.273-2.109 5.102-.488.202-.994.296-1.492.296z" fill="#a6cbe4"/></g><g><path d="m453.002 393.063c-1.527 0-2.975-.899-3.6-2.393-4.84-11.532-6.644-24.015-7.304-32.455-.242-3.092-1.291-18.63 1.773-20.889 1.73-1.275 4.172-.912 5.458.828.706.958.909 2.134.655 3.209-.173 1.224-.76 7.866-.107 16.245.618 7.866 2.282 19.466 6.72 30.043.836 1.987-.099 4.273-2.089 5.107-.492.208-1.002.305-1.506.305z" fill="#a6cbe4"/></g><g><path d="m462.728 395.004c-1.52 0-2.965-.892-3.595-2.378-4.157-9.802-7.083-21.438-8.242-32.772-1.034-10.211-.145-18.107-.106-18.438.249-2.139 2.193-3.681 4.324-3.424 2.139.247 3.674 2.18 3.43 4.322-.007.074-.826 7.434.117 16.751 1.067 10.421 3.859 21.544 7.663 30.513.841 1.984-.084 4.276-2.068 5.117-.499.21-1.015.309-1.523.309z" fill="#a6cbe4"/></g></g><g><g><path d="m28.906 154.509c-1.486 0-2.905-.853-3.558-2.295-.888-1.964-.017-4.276 1.947-5.164.261-.118 26.396-12.003 41.516-24.121 1.685-1.344 4.139-1.076 5.486.605 1.347 1.682 1.077 4.137-.605 5.485-15.894 12.739-42.075 24.642-43.181 25.142-.521.237-1.068.348-1.605.348z" fill="#b5ddf8"/></g><g><path d="m34.217 165.115c-1.754 0-3.349-1.19-3.787-2.97-.698-2.833.438-3.545 5.898-6.97 4.843-3.037 12.946-8.12 21.171-13.924 2.259-1.594 4.596-3.118 6.885-4.609 2.826-1.842 5.496-3.579 7.828-5.33 1.725-1.292 4.173-.945 5.464.779 1.293 1.724.945 4.17-.779 5.464-2.539 1.905-5.314 3.713-8.252 5.627-2.209 1.439-4.467 2.909-6.646 4.446-8.398 5.926-16.615 11.08-21.523 14.159-1.507.944-3.058 1.917-3.609 2.293-.469.433-1.05.757-1.714.921-.314.078-.627.114-.936.114z" fill="#b5ddf8"/></g><g><path d="m36.849 167.661c-1.759 0-3.356-1.199-3.789-2.985-.699-2.889.107-3.424 7.81-8.536 4.625-3.07 11.616-7.708 18.495-12.793 2.504-1.85 5.071-3.598 7.553-5.29 2.494-1.698 4.849-3.303 6.934-4.867 1.726-1.292 4.172-.946 5.463.779 1.294 1.724.945 4.171-.779 5.463-2.227 1.672-4.655 3.325-7.224 5.075-2.414 1.644-4.906 3.341-7.309 5.117-7.038 5.201-14.126 9.905-18.818 13.018-2.237 1.485-4.543 3.016-5.341 3.62-.517.619-1.23 1.082-2.073 1.287-.308.076-.617.112-.922.112zm3.809-4.769c.001 0 .001 0 0 0zm-.003-.015v.002c0-.001 0-.001 0-.002zm-.001-.005v.003c0-.002 0-.003 0-.003zm-.001-.007v.004c0-.001 0-.002 0-.004zm-.003-.007c.001.003.001.003.001.005 0-.002 0-.003-.001-.005zm-.001-.005c0 .001.001.003.001.004 0-.001-.001-.003-.001-.004zm-.002-.006c0 .001.001.002.001.003.001-.001-.001-.002-.001-.003zm-.001-.008c0 .003 0 .004.001.007-.001-.003-.001-.005-.001-.007z" fill="#b5ddf8"/></g><g><path d="m42.834 173.712c-1.779 0-3.387-1.225-3.801-3.032-.676-2.955.276-3.618 9.38-9.962 4.377-3.05 10.371-7.227 16.269-11.715 2.717-2.068 5.484-4.017 8.159-5.904 2.164-1.524 4.245-2.99 6.115-4.394 1.725-1.294 4.171-.945 5.464.779s.945 4.169-.779 5.464c-1.928 1.447-4.073 2.959-6.305 4.533-2.618 1.844-5.325 3.752-7.928 5.733-6.028 4.588-12.1 8.819-16.535 11.908-2.871 2.001-5.832 4.064-6.809 4.879-.535.787-1.356 1.382-2.356 1.612-.293.066-.586.099-.874.099zm3.852-4.546c0 .001.001.001.001.003.001-.002-.001-.002-.001-.003zm-.038-.198c.014.065.027.131.038.196-.011-.065-.024-.13-.038-.196zm-.002-.012c.001.003.001.007.002.011-.001-.004-.001-.008-.002-.011zm-.001-.006c0 .002 0 .003.001.004-.001-.001-.001-.002-.001-.004zm-.002-.006c0 .001 0 .002.001.003-.001 0-.001-.002-.001-.003zm-.001-.008c0 .003 0 .004.001.007-.001-.003-.001-.004-.001-.007z" fill="#b5ddf8"/></g><g><path d="m50.937 181.966c-1.813 0-3.436-1.269-3.818-3.114-.611-2.951.652-3.868 8.863-9.828 4.332-3.145 10.267-7.453 16.052-12.19.145-.118.299-.228.458-.324 5.53-3.329 10.699-7.036 14.06-9.558 1.724-1.29 4.172-.944 5.464.779 1.293 1.724.945 4.171-.779 5.464-3.458 2.595-8.758 6.395-14.477 9.857-5.891 4.81-11.837 9.126-16.194 12.289-2.501 1.815-5.304 3.85-6.258 4.692-.539.921-1.45 1.619-2.579 1.851-.265.055-.53.082-.792.082zm3.827-4.686v.003c0-.002 0-.002 0-.003z" fill="#b5ddf8"/></g><g><path d="m60.125 191.383c-1.842 0-3.481-1.31-3.833-3.185-.586-3.132 1.094-4.291 10.417-10.723 4.257-2.936 9.554-6.591 14.799-10.586.106-.081.217-.157.33-.226 4.88-2.982 9.506-6.397 13.825-9.639 1.724-1.291 4.17-.944 5.464.779 1.293 1.724.945 4.169-.779 5.464-4.419 3.318-9.16 6.817-14.268 9.952-5.338 4.059-10.657 7.729-14.939 10.682-3.047 2.102-6.467 4.461-7.579 5.436-.541.998-1.512 1.753-2.713 1.978-.245.045-.486.068-.724.068zm3.842-4.614v.001c0-.001 0-.001 0-.001z" fill="#b5ddf8"/></g><g><path d="m69.622 201.371c-1.852 0-3.496-1.325-3.836-3.214-.6-3.337 1.582-4.723 10.769-10.559 4.277-2.717 9.6-6.099 14.79-9.82.075-.055.151-.105.23-.154 4.115-2.531 8.022-5.496 11.47-8.111l2.123-1.605c1.724-1.291 4.172-.944 5.463.779 1.294 1.724.945 4.171-.779 5.463l-2.091 1.581c-3.557 2.699-7.585 5.757-11.979 8.469-5.333 3.817-10.713 7.236-15.041 9.986-3.062 1.945-6.494 4.126-7.654 5.088-.54 1.031-1.534 1.813-2.77 2.035-.232.041-.465.062-.695.062zm3.848-4.587v.002z" fill="#b5ddf8"/></g><g><path d="m76.497 209.809c-1.858 0-3.505-1.333-3.837-3.227-.61-3.458 1.86-4.968 10.045-9.974 4.427-2.706 9.937-6.074 15.275-9.977 3.731-2.38 7.112-5.021 10.095-7.352 1.226-.958 2.387-1.865 3.476-2.682 1.727-1.293 4.171-.945 5.464.779s.945 4.17-.779 5.464c-1.05.789-2.172 1.665-3.355 2.589-3.124 2.441-6.664 5.207-10.504 7.648-5.389 3.948-11.051 7.409-15.6 10.192-2.678 1.637-5.676 3.469-6.767 4.348-.529 1.082-1.551 1.907-2.831 2.132-.228.04-.457.06-.682.06zm3.849-4.573s.002 0 .002.001c0-.001-.002-.001-.002-.001z" fill="#b5ddf8"/></g><g><path d="m83.033 218.33c-1.872 0-3.524-1.35-3.844-3.258-.6-3.578 2.247-5.311 9.854-9.941 4.397-2.676 9.87-6.007 15.092-9.965 3.242-2.19 6.213-4.605 8.836-6.735 1.595-1.296 3.093-2.51 4.471-3.544 1.726-1.292 4.171-.944 5.463.779 1.293 1.725.945 4.171-.779 5.464-1.306.979-2.724 2.133-4.235 3.36-2.749 2.234-5.865 4.765-9.22 7.025-5.362 4.07-11.022 7.515-15.57 10.283-2.552 1.555-5.409 3.293-6.474 4.166-.505 1.18-1.583 2.086-2.944 2.315-.218.035-.435.051-.65.051zm3.856-4.539c0 .001 0 .001 0 0z" fill="#b5ddf8"/></g><g><path d="m89.004 226.575c-1.862 0-3.511-1.34-3.84-3.238-.646-3.738 2.663-5.833 9.914-10.423 4.24-2.684 9.52-6.025 14.474-9.99 2.814-2.05 5.313-4.182 7.729-6.244 1.879-1.603 3.655-3.119 5.313-4.362 1.726-1.291 4.171-.946 5.464.779s.945 4.171-.779 5.464c-1.462 1.098-3.148 2.535-4.931 4.058-2.412 2.058-5.147 4.391-8.064 6.511-5.146 4.123-10.626 7.592-15.031 10.381-2.465 1.56-5.469 3.462-6.545 4.409-.444 1.311-1.573 2.345-3.032 2.598-.226.038-.451.057-.672.057z" fill="#b5ddf8"/></g><g><path d="m97.61 239.009c-1.808 0-3.43-1.264-3.816-3.104-.83-3.963 2.67-6.452 9.644-11.409 3.99-2.838 8.958-6.369 13.521-10.536 2.457-1.988 4.6-3.954 6.673-5.854 2.196-2.015 4.272-3.916 6.205-5.368 1.723-1.293 4.168-.945 5.464.779 1.293 1.723.945 4.17-.779 5.464-1.626 1.221-3.565 2.998-5.616 4.878-2.062 1.891-4.401 4.036-6.869 6.024-4.732 4.329-9.914 8.015-14.078 10.975-2.477 1.761-5.502 3.912-6.512 4.976-.286 1.503-1.445 2.759-3.034 3.092-.269.055-.539.083-.803.083z" fill="#b5ddf8"/></g><g><path d="m102.948 246.072c-1.77 0-3.373-1.213-3.796-3.011-.977-4.158 2.73-7.104 9.459-12.452 3.689-2.932 8.281-6.582 12.427-10.793 1.84-1.724 3.494-3.389 5.066-4.972 2.652-2.671 5.158-5.192 7.48-6.947 1.716-1.299 4.165-.959 5.466.764 1.299 1.72.957 4.167-.763 5.466-1.879 1.419-4.195 3.749-6.646 6.217-1.637 1.648-3.361 3.382-5.156 5.061-4.365 4.436-9.163 8.25-13.018 11.313-2.56 2.035-5.696 4.527-6.621 5.722-.116 1.66-1.295 3.125-3.001 3.526-.301.072-.601.106-.897.106zm3.803-4.797v.005c0-.001 0-.002 0-.005z" fill="#b5ddf8"/></g><g><path d="m107.705 249.173c-1.758 0-3.354-1.195-3.789-2.979-1.052-4.313 2.861-7.669 9.342-13.229 3.629-3.114 7.741-6.642 11.562-10.801 1.64-1.646 3.107-3.21 4.509-4.703 2.76-2.941 5.368-5.718 7.795-7.549 1.716-1.299 4.165-.959 5.466.763 1.298 1.72.956 4.167-.764 5.467-1.895 1.43-4.281 3.971-6.807 6.661-1.454 1.551-2.979 3.173-4.565 4.76-4.021 4.382-8.508 8.232-12.114 11.325-2.646 2.27-5.897 5.059-6.729 6.347.017 1.772-1.183 3.388-2.979 3.826-.31.075-.622.112-.927.112zm3.795-4.829v.004c0-.001 0-.002 0-.004z" fill="#b5ddf8"/></g><g><path d="m119.615 256.362c-1.736 0-3.318-1.166-3.774-2.923-1.178-4.535 2.867-8.396 9.568-14.793 3.174-3.029 6.768-6.461 10.085-10.283.913-1.049 1.804-2.092 2.673-3.11 3.441-4.033 6.414-7.515 9.277-9.678 1.716-1.301 4.165-.958 5.466.761 1.299 1.72.959 4.167-.761 5.466-2.184 1.65-5.032 4.986-8.046 8.518-.886 1.038-1.792 2.101-2.719 3.165-3.553 4.094-7.289 7.661-10.585 10.808-2.955 2.82-6.598 6.299-7.297 7.789.186 1.88-1.019 3.666-2.904 4.155-.329.084-.659.125-.983.125z" fill="#b5ddf8"/></g><g><path d="m132.569 263.401c-1.714 0-3.286-1.138-3.76-2.871-1.305-4.747 3.066-9.314 9.681-16.227 2.759-2.883 5.885-6.151 8.761-9.638.895-1.081 1.763-2.15 2.608-3.192 3.346-4.123 6.236-7.686 9.061-9.813 1.716-1.299 4.168-.955 5.465.77 1.297 1.721.951 4.168-.77 5.465-2.062 1.552-4.798 4.925-7.695 8.496-.863 1.063-1.748 2.154-2.655 3.248-3.052 3.702-6.285 7.08-9.137 10.061-3.04 3.176-7.168 7.491-7.707 9.161.325 1.947-.87 3.866-2.818 4.399-.345.095-.693.141-1.034.141z" fill="#b5ddf8"/></g><g><path d="m142.234 268.571c-1.692 0-3.249-1.108-3.746-2.814-1.387-4.769 2.613-9.408 8.669-16.432 2.632-3.052 5.616-6.514 8.313-10.229.094-.131.197-.254.306-.372 1.611-1.725 3.113-3.509 4.565-5.234 2.518-2.989 4.692-5.572 6.903-7.232 1.72-1.293 4.169-.945 5.464.779 1.293 1.723.945 4.17-.779 5.464-1.499 1.126-3.5 3.501-5.617 6.017-1.4 1.663-2.982 3.539-4.667 5.357-2.848 3.901-5.889 7.429-8.577 10.546-2.833 3.287-6.692 7.763-7.021 9.405.441 1.991-.734 4.009-2.721 4.587-.364.107-.731.158-1.092.158z" fill="#b5ddf8"/></g><g><path d="m152.675 274.426c-1.694 0-3.282-1.157-3.806-2.853-1.543-4.993 2.751-10.168 8.695-17.331 2.352-2.837 5.019-6.051 7.434-9.42 1.239-1.561 2.31-2.973 3.335-4.324 2.844-3.749 5.3-6.987 7.821-8.878 1.723-1.291 4.171-.943 5.464.781s.943 4.171-.781 5.464c-1.646 1.235-3.9 4.205-6.286 7.35-1.063 1.401-2.172 2.863-3.33 4.314-2.453 3.432-5.215 6.76-7.65 9.696-3.016 3.634-7.146 8.613-7.205 10.267.637 2.059-.537 4.132-2.596 4.769-.364.111-.732.165-1.095.165z" fill="#b5ddf8"/></g><g><path d="m162.036 279.95c-1.671 0-3.233-1.104-3.766-2.776-1.623-5.107 2.552-10.372 8.331-17.662 2.259-2.85 4.595-5.796 6.782-8.98.862-1.222 1.669-2.402 2.45-3.544 2.972-4.341 5.538-8.09 8.223-10.12 1.719-1.301 4.167-.961 5.466.761 1.299 1.719.959 4.167-.761 5.466-1.669 1.261-4.118 4.84-6.486 8.3-.802 1.171-1.63 2.382-2.487 3.596-2.311 3.364-4.84 6.554-7.072 9.369-2.975 3.752-7.05 8.893-6.982 10.569.653 2.054-.495 4.187-2.55 4.841-.38.123-.767.18-1.148.18z" fill="#b5ddf8"/></g><g><path d="m171.393 285.898c-1.655 0-3.198-1.068-3.73-2.726-1.656-5.15 2.484-10.717 7.725-17.767 2.105-2.833 4.282-5.761 6.302-8.914.964-1.443 1.846-2.825 2.691-4.15 2.683-4.205 4.999-7.835 7.537-9.784 1.71-1.311 4.159-.99 5.473.719 1.312 1.71.99 4.16-.719 5.472-1.449 1.112-3.615 4.507-5.71 7.79-.874 1.372-1.786 2.801-2.74 4.228-2.124 3.317-4.487 6.494-6.57 9.296-2.698 3.629-6.777 9.114-6.547 10.761.659 2.052-.474 4.229-2.526 4.89-.394.126-.793.185-1.186.185z" fill="#b5ddf8"/></g><g><path d="m180.997 292.461c-1.639 0-3.164-1.04-3.705-2.683-1.761-5.347 2.232-11.028 7.288-18.222 1.913-2.72 3.89-5.533 5.714-8.538.964-1.556 1.855-3.088 2.703-4.547 2.541-4.364 4.548-7.811 6.975-9.726 1.69-1.333 4.145-1.047 5.48.648 1.335 1.692 1.045 4.145-.648 5.48-1.261.995-3.28 4.464-5.062 7.524-.883 1.518-1.812 3.113-2.796 4.7-1.941 3.199-4.087 6.252-5.981 8.946-2.706 3.85-6.795 9.669-6.26 11.292.675 2.047-.438 4.253-2.486 4.928-.405.134-.817.198-1.222.198z" fill="#b5ddf8"/></g><g><path d="m190.244 299.122c-1.625 0-3.14-1.021-3.694-2.645-1.852-5.436 1.852-11.324 6.143-18.143 1.814-2.883 3.689-5.865 5.366-9.085.056-.107.115-.209.182-.311 1.25-1.941 2.364-3.913 3.44-5.818 2.122-3.756 3.797-6.723 5.909-8.439 1.67-1.359 4.129-1.106 5.49.567 1.359 1.673 1.105 4.131-.567 5.49-.965.784-2.596 3.673-4.036 6.22-1.053 1.865-2.244 3.973-3.578 6.055-1.802 3.442-3.819 6.646-5.6 9.478-2.679 4.257-6.012 9.556-5.36 11.469.695 2.04-.395 4.257-2.436 4.953-.417.142-.843.209-1.259.209z" fill="#b5ddf8"/></g><g><path d="m199.543 305.88c-1.613 0-3.124-1.008-3.685-2.618-1.965-5.634 1.442-11.649 5.386-18.614 1.663-2.937 3.383-5.974 4.896-9.262.051-.112.108-.22.169-.325 1.136-1.96 2.145-3.927 3.121-5.827 2.054-4.003 3.677-7.164 5.792-8.92 1.66-1.377 4.12-1.146 5.495.511 1.376 1.658 1.148 4.118-.51 5.495-.885.735-2.519 3.919-3.833 6.478-.949 1.849-2.021 3.938-3.22 6.017-1.631 3.523-3.482 6.791-5.118 9.68-2.756 4.868-5.609 9.902-4.807 12.196.709 2.035-.365 4.261-2.4 4.971-.427.147-.86.218-1.286.218z" fill="#b5ddf8"/></g><g><path d="m209.186 312.935c-1.614 0-3.125-1.01-3.685-2.621-1.993-5.722 1.066-11.899 4.607-19.05 1.521-3.069 3.093-6.244 4.437-9.671.046-.117.096-.23.154-.342.979-1.93 1.862-3.852 2.679-5.631 2.107-4.587 3.629-7.9 5.803-9.722 1.655-1.385 4.112-1.165 5.498.486 1.383 1.652 1.166 4.115-.485 5.498-.839.718-2.506 4.346-3.724 6.996-.833 1.816-1.734 3.772-2.727 5.742-1.452 3.672-3.145 7.09-4.641 10.109-2.646 5.343-5.146 10.39-4.231 13.02.709 2.035-.367 4.259-2.402 4.968-.425.147-.858.218-1.283.218z" fill="#b5ddf8"/></g><g><path d="m218.985 319.858c-1.626 0-3.143-1.024-3.695-2.649-2.016-5.934.964-12.457 4.413-20.01 1.345-2.945 2.736-5.991 3.938-9.211.436-1.169.853-2.319 1.259-3.432 2.549-7.004 4.11-11.066 6.54-13.111 1.651-1.389 4.11-1.175 5.498.473 1.388 1.647 1.176 4.11-.473 5.498-1.012.969-2.872 6.078-4.23 9.809-.413 1.132-.838 2.302-1.282 3.489-1.298 3.482-2.814 6.799-4.15 9.727-2.645 5.789-5.141 11.257-4.122 14.257.692 2.04-.399 4.257-2.44 4.951-.416.142-.84.209-1.256.209z" fill="#b5ddf8"/></g><g><path d="m228.781 326.472c-1.645 0-3.174-1.049-3.711-2.699-1.934-5.956.799-12.66 3.963-20.424 1.217-2.985 2.476-6.073 3.551-9.309l1.058-3.229c2.492-7.661 3.907-11.757 6.355-13.822 1.646-1.39 4.107-1.18 5.499.466 1.389 1.648 1.181 4.11-.466 5.5-.953 1.007-2.694 6.362-3.967 10.272l-1.074 3.277c-1.156 3.479-2.463 6.69-3.729 9.793-2.479 6.082-4.821 11.827-3.768 15.07.666 2.049-.457 4.251-2.508 4.917-.398.126-.803.188-1.203.188z" fill="#b5ddf8"/></g><g><path d="m238.102 332.341c-1.654 0-3.189-1.059-3.717-2.719-1.934-6.076.685-13.032 3.717-21.089 1.087-2.887 2.212-5.874 3.177-8.961l1.049-3.405c2.374-7.763 3.725-11.909 6.138-13.929 1.651-1.384 4.112-1.166 5.498.488 1.384 1.653 1.165 4.115-.488 5.498-.859.986-2.492 6.326-3.685 10.226l-1.063 3.451c-1.031 3.299-2.196 6.391-3.322 9.382-2.415 6.416-4.697 12.477-3.585 15.971.654 2.054-.48 4.248-2.535 4.904-.392.125-.791.183-1.184.183z" fill="#b5ddf8"/></g><g><path d="m247.289 337.522c-1.634 0-3.157-1.032-3.702-2.668-2.118-6.347.51-13.674 3.556-22.157.936-2.609 1.904-5.309 2.754-8.055.422-1.355.822-2.677 1.204-3.947 2.33-7.721 3.551-11.518 5.85-13.456 1.649-1.387 4.112-1.174 5.499.471 1.388 1.648 1.178 4.11-.471 5.5-.746.92-2.283 6.017-3.406 9.739-.389 1.288-.794 2.633-1.222 4.005-.899 2.907-1.898 5.689-2.862 8.378-2.449 6.823-4.761 13.267-3.498 17.051.682 2.045-.422 4.256-2.467 4.937-.409.138-.826.202-1.235.202z" fill="#b5ddf8"/></g><g><path d="m256.551 342.199c-1.611 0-3.117-1.003-3.681-2.609-2.242-6.38.136-13.732 2.889-22.244.847-2.621 1.724-5.332 2.481-8.087.029-.108.063-.216.103-.321.828-2.234 1.552-4.415 2.21-6.395 1.978-5.946 3.015-8.878 4.964-10.529 1.645-1.396 4.11-1.19 5.499.456 1.393 1.646 1.189 4.107-.456 5.5-.478.649-1.655 4.191-2.602 7.036-.668 2.011-1.402 4.217-2.238 6.484-.793 2.865-1.678 5.606-2.536 8.257-2.221 6.871-4.319 13.36-2.951 17.257.715 2.033-.354 4.26-2.388 4.975-.429.149-.864.22-1.294.22z" fill="#b5ddf8"/></g><g><path d="m266.067 346.63c-1.597 0-3.096-.988-3.67-2.576-2.34-6.476.022-14.18 2.523-22.336.768-2.509 1.564-5.103 2.246-7.724.03-.116.066-.23.106-.342.825-2.285 1.544-4.506 2.194-6.512 1.925-5.944 2.936-8.871 4.859-10.472 1.659-1.381 4.116-1.154 5.496.503 1.33 1.596 1.167 3.943-.332 5.344-.614.902-1.711 4.292-2.599 7.029-.658 2.033-1.386 4.276-2.217 6.588-.712 2.72-1.515 5.338-2.291 7.872-2.108 6.875-4.099 13.372-2.645 17.396.733 2.027-.316 4.263-2.344 4.997-.438.159-.885.233-1.326.233zm13.254-43.965c0 .001-.001.001-.003.003.001-.001.003-.001.003-.003z" fill="#b5ddf8"/></g><g><path d="m275.57 350.835c-1.577 0-3.062-.96-3.651-2.523-2.471-6.532-.32-14.156 1.956-22.231.701-2.483 1.425-5.05 2.029-7.631.028-.118.061-.235.099-.35.694-2.069 1.314-4.075 1.882-5.916 2.034-6.576 3.019-9.55 5.018-11.154 1.681-1.345 4.136-1.076 5.485.605 1.284 1.602 1.099 3.908-.376 5.287-.634.984-1.76 4.626-2.67 7.567-.57 1.844-1.19 3.849-1.881 5.917-.634 2.688-1.366 5.282-2.074 7.793-1.918 6.802-3.729 13.224-2.17 17.353.764 2.015-.254 4.268-2.269 5.03-.453.171-.919.253-1.378.253zm12.218-43.717c-.001.001-.003.001-.004.003.002-.002.003-.002.004-.003z" fill="#b5ddf8"/></g><g><path d="m286.59 355.517c-1.561 0-3.033-.94-3.635-2.483-2.719-6.956-.488-15.025 1.874-23.57.543-1.965 1.097-3.967 1.597-5.988l.48-1.922c2.428-9.723 3.51-13.741 5.894-15.581 1.71-1.315 4.159-.998 5.474.708 1.235 1.603 1.032 3.86-.41 5.219-.853 1.404-2.253 7.015-3.385 11.545l-.48 1.917c-.512 2.077-1.084 4.148-1.646 6.183-2.006 7.256-3.9 14.11-2.128 18.648.785 2.007-.207 4.271-2.214 5.056-.468.182-.948.268-1.421.268zm10.979-43.364c-.001.001-.002.001-.002.003-.001-.001 0-.001.002-.003z" fill="#b5ddf8"/></g><g><path d="m297.334 360.189c-1.56 0-3.034-.94-3.636-2.482-2.762-7.063-.739-15.155 1.4-23.72.455-1.822.916-3.666 1.333-5.519l.372-1.66c2.225-9.942 3.222-14.049 5.592-15.856 1.714-1.307 4.159-.98 5.47.737 1.203 1.579 1.019 3.78-.357 5.14-.803 1.467-2.067 7.118-3.089 11.684l-.374 1.667c-.429 1.916-.905 3.819-1.374 5.699-1.83 7.324-3.558 14.243-1.704 18.989.785 2.007-.205 4.27-2.214 5.055-.466.18-.947.266-1.419.266z" fill="#b5ddf8"/></g><g><path d="m306.79 364.511c-1.565 0-3.041-.945-3.641-2.492-2.621-6.768-1.091-14.35.529-22.376.437-2.167.884-4.375 1.247-6.603.018-.107.039-.214.066-.318.479-1.913.911-3.764 1.31-5.479 1.765-7.567 2.475-10.262 4.438-11.796 1.696-1.329 4.152-1.027 5.478.673 1.198 1.533 1.068 3.68-.216 5.06-.532 1.118-1.397 4.828-2.099 7.836-.398 1.705-.827 3.547-1.301 5.445-.375 2.269-.829 4.517-1.274 6.727-1.388 6.875-2.698 13.369-.899 18.011.777 2.009-.22 4.271-2.23 5.048-.463.18-.939.264-1.408.264z" fill="#b5ddf8"/></g><g><path d="m315.071 368.474c-1.549 0-3.016-.927-3.626-2.454-2.772-6.943-1.344-14.898.036-22.594.372-2.076.752-4.184 1.056-6.306.012-.089.029-.178.047-.264.437-2.033.823-3.997 1.179-5.803 1.521-7.717 2.092-10.232 3.989-11.756 1.681-1.349 4.136-1.081 5.487.601 1.188 1.48 1.12 3.562-.06 4.959-.465 1.137-1.179 4.763-1.758 7.705-.355 1.806-.742 3.767-1.176 5.8-.314 2.167-.7 4.319-1.08 6.443-1.241 6.916-2.414 13.45-.47 18.318.799 2.002-.175 4.273-2.177 5.071-.475.192-.965.28-1.447.28zm7.57-43.093c-.001.001-.003.003-.004.003.001 0 .003-.002.004-.003z" fill="#b5ddf8"/></g><g><path d="m329.275 375.556c-1.531 0-2.983-.905-3.607-2.409-2.9-6.992-1.857-14.84-.848-22.432.281-2.114.566-4.261.772-6.42.333-2.111.602-3.91.854-5.584 1.283-8.544 1.735-11.078 3.614-12.641 1.658-1.38 4.118-1.152 5.496.503 1.183 1.42 1.185 3.431.118 4.846-.428 1.245-1.025 5.221-1.509 8.45-.255 1.702-.53 3.529-.835 5.419-.183 2.005-.48 4.246-.774 6.456-.912 6.87-1.775 13.359.323 18.415.826 1.989-.119 4.273-2.11 5.099-.49.204-.996.298-1.494.298zm5.781-43.491c-.001.002-.002.002-.003.005 0-.003.002-.003.003-.005z" fill="#b5ddf8"/></g><g><path d="m335.674 378.429c-1.532 0-2.987-.907-3.608-2.411-3.066-7.419-2.15-15.74-1.265-23.786.198-1.793.396-3.597.552-5.407 1.249-14.464 1.734-16.89 3.712-18.54 1.658-1.382 4.118-1.155 5.497.497 1.152 1.382 1.187 3.326.204 4.733-.598 1.951-1.245 9.439-1.637 13.981-.162 1.87-.367 3.737-.57 5.59-.814 7.396-1.583 14.38.719 19.949.823 1.992-.125 4.276-2.117 5.099-.485.201-.991.295-1.487.295zm4.395-44.154c-.002.002-.003.002-.004.002.001 0 .002 0 .004-.002z" fill="#b5ddf8"/></g><g><path d="m339.223 378.63c-1.537 0-2.994-.912-3.613-2.424-3.166-7.734-2.448-16.4-1.753-24.781.132-1.583.264-3.173.37-4.759 1.032-15.45 1.745-17.34 3.523-18.801 1.668-1.368 4.122-1.126 5.493.539 1.115 1.359 1.161 3.244.236 4.637-.282.988-.799 4.156-1.466 14.144-.108 1.629-.244 3.26-.379 4.886-.647 7.807-1.259 15.178 1.198 21.179.817 1.994-.139 4.273-2.133 5.092-.483.193-.984.288-1.476.288zm3.486-44.736c-.001 0-.003.002-.004.002.001 0 .002-.002.004-.002z" fill="#b5ddf8"/></g><g><path d="m346.516 378.657c-1.55 0-3.017-.93-3.625-2.457-3.255-8.155-2.66-17.276-2.086-26.098.083-1.26.164-2.52.235-3.773.954-16.967 2.15-17.913 3.534-19.009 1.688-1.339 4.144-1.054 5.481.637 1.066 1.344 1.103 3.175.221 4.539-.314 1.153-.938 5.259-1.444 14.271-.071 1.278-.155 2.561-.239 3.844-.541 8.321-1.053 16.182 1.546 22.698.799 2.002-.176 4.271-2.178 5.072-.475.188-.964.276-1.445.276zm2.908-45.221c-.002 0-.002.002-.005.002.002.001.003-.002.005-.002z" fill="#b5ddf8"/></g><g><path d="m357.245 378.739c-1.569 0-3.047-.951-3.643-2.503-3.35-8.712-2.73-18.394-2.129-27.757l.152-2.416c1.04-17.1 2.295-18.079 3.625-19.116 1.698-1.324 4.154-1.023 5.476.677 1.036 1.326 1.077 3.111.238 4.463-.359 1.316-1.039 6.059-1.55 14.448l-.153 2.444c-.547 8.524-1.11 17.337 1.625 24.456.774 2.012-.23 4.268-2.242 5.043-.46.177-.934.261-1.399.261zm2.81-45.64c-.003 0-.004.002-.005.002.001 0 .004-.002.005-.002z" fill="#b5ddf8"/></g><g><path d="m370.671 379.163c-1.573 0-3.054-.955-3.647-2.513-3.333-8.735-2.861-18.328-2.405-27.602l.136-2.85c1.777-17.608 2.316-18.023 3.912-19.257 1.707-1.315 4.158-1.005 5.474.702 1.001 1.296 1.06 3.024.282 4.355-.301 1.113-.862 4.655-1.887 14.766l-.121 2.668c-.417 8.471-.848 17.231 1.9 24.439.769 2.012-.241 4.268-2.255 5.035-.457.176-.928.257-1.389.257zm2.773-46.05c-.002.003-.004.003-.005.005.001-.002.003-.002.005-.005z" fill="#b5ddf8"/></g><g><path d="m386.189 380.24c-1.579 0-3.065-.965-3.654-2.53-3.428-9.129-3.031-19.543-2.679-28.732l.076-2.02c1.557-17.749 2.297-18.315 3.77-19.445 1.708-1.311 4.16-.987 5.471.725.963 1.258 1.042 2.914.338 4.225-.286 1.154-.949 5.404-1.792 14.977l-.063 1.837c-.339 8.864-.691 18.031 2.186 25.689.757 2.017-.263 4.268-2.281 5.025-.452.171-.916.249-1.372.249z" fill="#b5ddf8"/></g><g><path d="m402.564 383.358c-1.581 0-3.068-.965-3.655-2.536-3.589-9.586-3.609-20.183-3.302-31.103.498-17.693 2.069-18.91 3.109-19.716 1.704-1.315 4.155-1.007 5.475.699.935 1.207 1.05 2.789.433 4.077-.305 1.39-.984 6.967-1.214 15.158-.286 10.117-.285 19.883 2.809 28.151.756 2.017-.268 4.266-2.286 5.023-.452.168-.915.247-1.369.247z" fill="#b5ddf8"/></g><g><path d="m417.629 386.267c-1.555 0-3.025-.935-3.631-2.467-4.032-10.2-4.382-21.948-4.663-31.387.469-18.156 1.922-19.273 2.984-20.089 1.709-1.313 4.157-.999 5.472.711.891 1.159 1.031 2.658.497 3.913-.28 1.402-.938 7.256-1.151 15.45.261 8.613.589 19.604 4.119 28.532.793 2.004-.19 4.273-2.194 5.064-.47.187-.955.273-1.433.273zm-.545-47.762s0 0-.001 0z" fill="#b5ddf8"/></g><g><path d="m430.103 388.62c-1.544 0-3.004-.92-3.619-2.436-4.271-10.536-5.16-22.493-5.457-31.735-.512-18.135 1.666-19.792 2.382-20.336 1.711-1.308 4.162-.973 5.469.742.835 1.097 1 2.497.56 3.704-.233 1.344-.84 7.526-.61 15.656.276 8.577 1.082 19.644 4.888 29.037.81 1.997-.152 4.273-2.149 5.081-.48.195-.976.287-1.464.287zm-1.961-48.304s-.002 0-.002.003c.001-.003.002-.003.002-.003zm.006-.005c-.001.003-.001.003-.001.003s0-.003.001-.003zm.005-.002s0 0-.001 0z" fill="#b5ddf8"/></g><g><path d="m438.868 390.304c-1.532 0-2.983-.905-3.608-2.406-3.618-8.717-5.726-19.212-6.442-32.088-.307-5.501-.722-18.524 2.054-20.608 1.728-1.288 4.17-.943 5.465.78.778 1.039.96 2.34.607 3.491-.229 1.423-.78 7.886-.333 15.902.655 11.817 2.627 21.751 5.858 29.53.826 1.992-.119 4.273-2.109 5.102-.488.203-.994.297-1.492.297z" fill="#b5ddf8"/></g><g><path d="m442.687 391.145c-1.527 0-2.975-.899-3.6-2.393-4.845-11.547-6.644-24.022-7.302-32.457-.242-3.089-1.291-18.628 1.773-20.887 1.73-1.275 4.172-.909 5.457.828.706.958.909 2.135.655 3.209-.173 1.224-.759 7.866-.106 16.245.615 7.861 2.276 19.454 6.717 30.043.836 1.987-.101 4.273-2.088 5.107-.492.208-1.003.305-1.506.305z" fill="#b5ddf8"/></g><g><path d="m452.416 393.086c-1.519 0-2.965-.892-3.595-2.378-4.156-9.802-7.083-21.438-8.241-32.772-1.034-10.211-.148-18.105-.109-18.435.249-2.139 2.19-3.676 4.322-3.427 2.139.244 3.676 2.18 3.432 4.319-.007.074-.826 7.434.119 16.753 1.067 10.422 3.86 21.545 7.663 30.513.841 1.984-.084 4.276-2.068 5.117-.5.211-1.016.31-1.523.31z" fill="#b5ddf8"/></g></g><g><g enable-background="new"><path d="m468.649 329.491c-.732-.422-1.539-.697-2.408-.786l-86.585-8.659c-.85-.101-1.661-.362-2.426-.803l-207.781-119.963c-.764-.441-1.448-1.044-2.042-1.776l-61.215-76.673c-.619-.769-1.311-1.361-2.045-1.785-.856-.494-1.769-.759-2.685-.806l-32.121-1.646c.917.047 1.829.311 2.686.806.734.423 1.426 1.015 2.044 1.785l61.215 76.673c.595.733 1.279 1.335 2.043 1.776l207.781 119.962c.764.441 1.576.702 2.426.803l86.586 8.659c.869.09 1.677.364 2.408.786 3.509 2.026 5.254 7.464 3.442 12.321-1.3 3.484-4.125 5.646-7.108 5.493l32.121 1.645c2.982.153 5.808-2.009 7.108-5.493 1.811-4.855.065-10.292-3.444-12.319z" fill="#204a80"/><g><path d="m436.529 327.846c3.509 2.026 5.254 7.464 3.442 12.321-1.338 3.586-4.293 5.772-7.371 5.474l-91.794-9.201c-.858-.081-1.662-.363-2.426-.804l-207.781-119.962c-.764-.441-1.456-1.022-2.043-1.776l-64.926-81.282c-2.171-2.732-2.737-6.95-1.399-10.537 1.812-4.858 6.277-6.71 9.795-4.678.734.423 1.426 1.016 2.044 1.785l61.215 76.673c.595.733 1.278 1.335 2.042 1.776l207.781 119.962c.764.441 1.576.702 2.426.803l86.586 8.659c.87.091 1.677.365 2.409.787z" fill="#195eb3"/></g></g></g><path d="m334.012 109.025s-58.689 81.568-88.471 118.167c-12.938-7.41-24.03-12.992-27.701-13.145-9.936-.414-20.321 3.008-18.146 7.842 2.65 5.892 8.279 9.601 8.279 9.601 26.908 18.134 73.272 45.456 80.723 47.526s18.231 0 18.231 0 1.639-7.038-6.64-15.731c-3.315-3.48-15.604-12.002-29.781-20.995l93.551-115.92c6.906-11.962-23.138-29.308-30.045-17.345z" fill="#88b2ca"/><g><path d="m347.074 105.359c5.345 4.308 8.621 10.043 5.82 14.894l-93.551 115.92c14.177 8.992 26.466 17.514 29.782 20.995 8.279 8.693 6.64 15.731 6.64 15.731s-10.78 2.07-18.231 0c-.69-.192-1.716-.602-3.027-1.199 6.936 3.801 12.098 6.374 14.19 6.955 7.451 2.07 18.231 0 18.231 0s1.639-7.038-6.64-15.731c-3.315-3.481-15.604-12.002-29.781-20.995l93.551-115.92c4.505-7.806-6.719-17.899-16.984-20.65z" fill="#7da4bb"/></g><g fill="#96c2df"><path d="m262.46 245.352c-5.465-5.313-11.79-8.702-18.15-12.817-6.212-4.02-11.907-9.159-18.465-12.62-5.978-3.155-19.23-8.132-22.655.728-.747 1.933.835 4.432 2.764 4.868 19.217 5.525 32.082 24.284 52.076 27.452 4.186.662 7.979-4.16 4.43-7.611z"/><path d="m329.802 122.75c-14.221 13.638-25.604 30.933-37.551 46.53-12.907 16.851-25.589 33.857-38.237 50.902-2.719 3.664 3.479 8.5 6.368 4.914 13.315-16.531 26.584-33.084 39.646-49.816 12.093-15.49 25.964-30.855 35.584-48.048 2.056-3.672-2.754-7.411-5.81-4.482z"/></g></g></svg>