<svg id="Layer_1" enable-background="new 0 0 500 500" viewBox="0 0 500 500" xmlns="http://www.w3.org/2000/svg"><g><g><path d="m415.149 373.578c3.426.39 9.027 2.43 11.754 4.7.674-.668 1.393-1.313 2.166-1.94-1.9-1.248-4.53-2.312-7.178-3.396-2.649-1.084-5.335-2.05-7.417-2.391-1.351-.22-.682 2.873.675 3.027z" fill="#b39d85"/></g><g><path d="m418.204 367.35c3.384.605 8.991 2.457 11.76 4.419.671-.728 1.391-1.459 2.169-2.189-1.93-1.091-4.585-1.907-7.24-2.88-2.656-.973-5.332-1.965-7.394-2.405-1.337-.285-.635 2.816.705 3.055z" fill="#b39d85"/></g><path d="m420.676 379.303c.525 1.104 1.985 1.66 4.223 2.105 2.657.528 5.102 1.482 7.727 2.038 3.923.832 8.44 1.975 11.413-1.617 3.555-4.295 3.405-7.917-1.352-11.192-3.813-2.625-10.979-6.964-15.199-3.115-2.405 2.194-4.757 4.849-6.172 7.804-.878 1.836-1.064 3.085-.64 3.977z" fill="#24292b"/><g><ellipse cx="136.729" cy="354.348" fill="#192f38" rx="93.062" ry="53.731"/><path d="m43.181 324.818c.201-13.648 9.355-27.229 27.362-37.624 36.518-21.092 95.736-21.092 132.287 0 20.556 11.871 29.542 27.866 26.96 43.358l.671.1c-14.017 79.909-164.377 87.655-185.268 5.969-.939-3.755-1.644-7.678-2.012-11.803z" fill="#264654"/><ellipse cx="136.729" cy="322.786" fill="#30596b" rx="93.062" ry="53.731"/><path d="m43.181 294.978c.201-13.648 9.355-27.229 27.362-37.624 36.518-21.092 95.736-21.092 132.287 0 20.556 11.87 29.542 27.866 26.96 43.358l.671.1c-14.017 79.909-164.377 87.655-185.268 5.969-.939-3.755-1.644-7.678-2.012-11.803z" fill="#259ed1"/><path d="m227.007 307.635c-24.244 45.839-132.723 55.966-174.639 8.417-15.761-13.949-6.707-82.39-8.953-101.034.033-11.737 0-22.937.033-33.734-1.743-9.758-1.743-18.745-.268-26.994l.671.1c-2.582 15.492 6.404 31.487 26.96 43.358 36.551 21.092 95.77 21.092 132.287 0 18.007-10.395 27.161-23.976 27.362-37.624.034.067.034.1.034.168v92.953c-1.34 19.952 3.589 38.898-3.487 54.39z" fill="#29abe2"/><path d="m230.461 160.124c-.201 13.648-9.355 27.229-27.362 37.624-36.518 21.092-95.736 21.092-132.287 0-20.556-11.871-29.542-27.866-26.96-43.358l-.671-.1c14.017-79.909 164.377-87.655 185.268-5.969.939 3.756 1.644 7.679 2.012 11.803z" fill="#2ab0eb"/><path d="m194.751 109.066c-4.46-49.113-123.492-44.677-116.044 6.845 1.798 51.369 125.539 47.076 116.044-6.845z" fill="#264654"/><ellipse cx="136.729" cy="108.21" fill="#30596b" rx="58.093" ry="33.541"/><path d="m166.893 54.659c-2.098-22.147-47.654-24.475-59.145-5.638-1.961 19.1-3.963 45.294 1.744 65.528 10.739 11.797 28.019 11.169 42.184 7.669 26.58-8.005 11.609-36.859 15.217-67.559z" fill="#264654"/><ellipse cx="136.313" cy="54.988" fill="#30596b" rx="30.201" ry="17.437"/><path d="m86.438 90.141c-9.899 7.524 2.423 29.844 14.755 29.749 9.649-4.698 22.678-11.468 30.604-20.143 2.437-8.577-2.954-16.597-8.791-22.293-11.636-10.263-20.925 5.351-36.568 12.687z" fill="#38687d"/><path d="m83.458 98.059c-.242-7.608 5.001-10.862 11.711-7.268s12.346 12.674 12.589 20.283c.243 7.608-5.001 10.862-11.71 7.268-6.711-3.595-12.347-12.675-12.59-20.283z" fill="#264654"/><path d="m175.907 80.408c1.236.942 2.102 2.122 2.597 3.447.494 1.324.611 2.754.453 4.24-.164 1.454-.534 3.004-.987 4.648-.454 1.642-.996 3.384-1.709 5.074-.753 1.649-1.818 3.119-3.1 4.4-1.292 1.306-2.625 2.547-3.924 3.684-1.298 1.136-2.606 2.142-3.948 2.889-1.363.729-2.775 1.182-4.219 1.264-2.329-1.117-4.022-1.915-5.353-2.611-1.953-1.096-3.235-1.694-4.801-2.782-.783-.544-1.67-1.167-2.797-1.974s-2.497-1.801-4.209-3.147c-.539-1.283-.784-2.642-.795-4.026-.006-1.39.172-2.756.499-4.091.654-2.67 1.904-5.212 3.477-7.562.787-1.175 1.654-2.302 2.568-3.372.914-1.069 1.871-2.062 2.825-2.925 2.285-1.588 3.875-2.447 5.16-2.945s2.299-.731 3.349-.782c1.049-.051 2.115.137 3.475.553s2.953 1.28 5.081 2.541c1.686 1.072 3.751 2.255 6.358 3.477z" fill="#38687d"/><path d="m178.887 88.326c.242-7.608-5.001-10.862-11.71-7.268-6.71 3.594-12.346 12.675-12.589 20.282-.243 7.608 5.001 10.862 11.71 7.268 6.711-3.593 12.347-12.674 12.589-20.282z" fill="#213d4a"/><path d="m88.167 100.581c-.149-4.659 3.062-6.652 7.172-4.451 4.109 2.201 7.561 7.762 7.709 12.421s-3.062 6.652-7.172 4.451c-4.108-2.201-7.56-7.762-7.709-12.421z" fill="#182d36"/><path d="m87.256 40.674c7.91-2.415 15.996-1.741 23.246 2.504 3.926 2.299 15.379 8.932 16.761 13.581 3.727.517 5.652 3.985 10.221 3.219 2.274-.381 3.256-.954 5.157-2.424 3.139-2.427 3.781-2.367 1.248-6.132-.944-1.403-2.678-2.781-3.877-4.095-8.393-9.193-20.091-17.781-32.234-21.266-10.108-2.9-19.821.529-28.617 5.728-12.59 7.442 2.505 10.471 8.095 8.885z" fill="#3f758c"/><g><g><path d="m374.785 337.776-.004-.007c2.062-8.008-.719-19.729-7.733-29.784-5.117-7.336-11.405-12.234-17.179-14.042l-.004-.007-.047-.01c-.961-.298-1.902-.497-2.827-.62l-18.118-3.974 5.922 11.29c-3.046 7.976-.396 20.757 7.173 31.607 4.964 7.117 11.035 11.926 16.671 13.853l6.278 11.968 7.253-14.899c1.194-1.473 2.062-3.277 2.599-5.339z" fill="#24292b"/><g><g enable-background="new"><path d="m384.435 371.852c-25.501-59.021-101.46-15.773-139.202 10.269-24.619 17.645-64.001 24.873-71.349 55.112-4.6 37.456 64.629 43.49 91.692 26.436 40.92-31.554 127.427-57.135 118.859-91.817z" fill="#525c61"/><path d="m369.139 351.273c-52.255-27.151-93.105 15.945-137.899 38.528-15.424 9.402-27.977 15.238-46.068 27.193-39.734 44.403 60.539 57.427 84.429 32.795 5.609-3.214 11.544-6.614 17.876-10.316 18.894-10.875 37.958-21.881 57.2-33.024 22.529-11.755 60.63-31.918 24.462-55.176z" fill="#6b7a80"/><path d="m357.526 309.821c-11.686-16.754-27.804-24.368-37.802-18.558l-54.196 31.495c9.998-5.81 26.116 1.805 37.803 18.559 12.796 18.345 15.419 40.723 5.857 49.965-.84.813-1.747 1.497-2.71 2.057l54.196-31.495c.964-.56 1.87-1.244 2.71-2.056 9.561-9.244 6.938-31.623-5.858-49.967z" fill="#475054"/><g><g fill="#6b6b6b"><path d="m278.73 316.133c2.219-.259 2.766-.312 5.229-.089-1.789-.223-3.541-.213-5.229.089z"/><path d="m317.43 293.593c-1.808.37-2.036.473-4.219 1.462-12.932 7.516-25.863 15.031-38.795 22.546l-.396.221c.816-.428 1.932-.96 2.811-1.237.622-.196 1.257-.338 1.899-.453-.036.005-.056.006-.093.01 12.931-7.515 25.862-15.032 38.793-22.549z"/><path d="m327.847 294.718c-2.086-.701-2.366-.751-5.045-1.224-12.931 7.518-25.861 15.036-38.792 22.554-.02-.002-.03-.002-.051-.004 1.816.226 3.669.702 5.536 1.409-.158-.063-.264-.107-.44-.177 12.931-7.519 25.861-15.038 38.792-22.558z"/><path d="m310.903 335.063c2.297 3.297 2.776 3.984 4.805 7.515.031-.018.063-.036.094-.055-1.478-2.602-3.12-5.102-4.891-7.465-.003.002-.006.003-.008.005z"/><path d="m290.674 317.928c-.394-.168-.786-.326-1.18-.475.425.169.846.337 1.18.475z"/><path d="m318.999 349.376c1.357 3.484 1.64 4.208 2.666 7.754.063-.037.127-.074.19-.111-.704-2.606-1.61-5.195-2.695-7.737-.054.031-.107.063-.161.094z"/><path d="m323.175 363.657c-.049.028-.097.057-.145.085.36 3.271.435 3.951.416 7.118.011-.006.022-.013.033-.019.127-2.36.001-4.766-.304-7.184z"/><path d="m344.884 306.657c-12.931 7.523-25.861 15.045-38.792 22.567-2.625-2.727-3.242-3.253-5.839-5.468 12.931-7.521 25.861-15.042 38.792-22.564-2.106-1.66-2.463-1.887-5.243-3.656-12.931 7.521-25.861 15.04-38.792 22.561-2.079-1.169-2.908-1.581-4.336-2.17 7.145 3.058 14.376 9.313 20.236 17.13 12.929-7.521 25.857-15.044 38.786-22.565-1.874-2.508-2.208-2.887-4.812-5.835z"/><path d="m323.479 370.84c-.21 3.905-1.046 7.688-2.632 11.217 1.109-2.366 1.269-2.982 1.944-5.57 12.937-7.523 25.873-15.045 38.81-22.567.426-2.156.452-2.551.651-5.63-12.924 7.517-25.849 15.033-38.773 22.55z"/><path d="m360.467 334.558c-12.871 7.487-25.74 14.974-38.611 22.46.597 2.211 1.04 4.429 1.319 6.638l38.658-22.485c-.396-2.633-.487-3.01-1.366-6.613z"/><path d="m354.504 320.007c-12.901 7.505-25.801 15.011-38.702 22.517 1.247 2.194 2.374 4.454 3.358 6.758 12.879-7.492 25.758-14.984 38.637-22.477-1.19-2.782-1.388-3.162-3.293-6.798z"/></g><g fill="#1c1c1c"><path d="m322.802 293.494c-2.487-.185-3.005-.224-5.371.1-12.931 7.516-25.862 15.033-38.793 22.55 2.332-.273 2.817-.329 5.372-.096 12.93-7.518 25.861-15.036 38.792-22.554z"/><path d="m333.802 297.537c-2.687-1.472-3.246-1.778-5.955-2.819-12.931 7.519-25.861 15.038-38.792 22.557 2.655 1.059 3.208 1.279 5.956 2.823 12.93-7.52 25.86-15.04 38.791-22.561z"/><path d="m344.884 306.658c-2.566-2.624-3.1-3.169-5.839-5.465-12.931 7.521-25.861 15.042-38.792 22.564 2.597 2.214 3.214 2.741 5.839 5.468 12.931-7.523 25.862-15.045 38.792-22.567z"/><path d="m354.504 320.007c-1.965-3.36-2.432-4.158-4.808-7.514-12.932 7.523-25.862 15.047-38.793 22.57 2.298 3.297 2.776 3.984 4.805 7.515 12.933-7.524 25.864-15.047 38.796-22.571z"/><path d="m360.467 334.558c-1.011-3.388-1.251-4.193-2.67-7.754-12.933 7.524-25.865 15.047-38.798 22.571 1.357 3.484 1.64 4.209 2.667 7.754 12.933-7.523 25.867-15.047 38.801-22.571z"/><path d="m362.253 348.29c-.014-3.1-.017-3.745-.419-7.119-12.935 7.523-25.869 15.047-38.804 22.57.36 3.27.435 3.95.416 7.117 12.935-7.522 25.871-15.044 38.807-22.568z"/><path d="m359.66 359.493c1.046-2.334 1.264-2.82 1.941-5.573-12.937 7.522-25.873 15.044-38.81 22.567-.675 2.589-.836 3.204-1.945 5.57 7.228-4.202 14.455-8.403 21.682-12.605 3.614-2.101 7.227-4.202 10.841-6.303 2.097-1.218 4.586-1.762 6.291-3.656z"/></g></g><path d="m318.999 384.409 14.803 10.7v7.302l-16.126-11.38z" fill="#525c61"/><path d="m365.09 357.799 14.804 10.699-46.092 26.611-14.803-10.7z" fill="#77888f"/><path d="m254.534 432.866c19.03-12.637 46.218-23.191 62.162-38.215 15.467-21.311-11.855-75.771-42.254-81.062-16.984-1.802-33.462 16.231-54.665 26.039-66.24 21.982 2.013 118.523 34.757 93.238z" fill="#59666b"/><g><path d="m198.524 352.423c11.512-11.128 33.348-2.238 48.77 19.873 15.406 22.087 18.564 49.03 7.052 60.158-11.525 11.14-33.36 2.25-48.766-19.836-15.423-22.112-18.581-49.055-7.056-60.195z" fill="#475054"/></g><path d="m270.669 360.376c-3.385-34.564-77.88-33.842-88.094-5.075-1.917 9.23-.085 19.759-.633 30.915 2.019 16.761-5.081 41.043 4.828 55.896 17.617 17.626 45.756 16.214 65.713 9.03 31.102-13.451 14.122-40.495 18.186-90.766z" fill="#475054"/><path d="m257.715 341.562c17.347 10.015 17.347 26.254 0 36.269-17.346 10.016-45.471 10.016-62.818 0-17.347-10.015-17.347-26.253 0-36.269 17.347-10.015 45.471-10.015 62.818 0z" fill="#6b7a80"/><path d="m252.449 344.602c14.438 8.337 14.438 21.852 0 30.189-14.438 8.336-37.848 8.336-52.286 0s-14.438-21.852 0-30.189c14.438-8.336 37.848-8.336 52.286 0z" fill="#92a6a8"/><ellipse cx="226.306" cy="356.015" fill="#adc4c7" rx="36.972" ry="21.346"/><ellipse cx="226.306" cy="356.015" fill="#7c8d8f" rx="28.626" ry="16.528"/><path d="m195.879 432.274c27.409-7.886 17.282-37.165-.192-43.876-5.607-2.154-4.425-4.423-8.137-3.917-45.607 13.303-7.772 61.589 8.329 47.793z" fill="#59666b"/><g><path d="m168.564 395.576c5.357-5.178 15.517-1.042 22.693 9.247 7.168 10.277 8.638 22.814 3.281 27.992-5.363 5.184-15.523 1.047-22.691-9.23-7.175-10.289-8.645-22.825-3.283-28.009z" fill="#3c4447"/></g><path d="m173.78 432.316c5.018-2.883 12.956-3.413 16.878-8.332 4.125-6.524-6.124-24.784-15.49-22.209-5.251 2.69-9.774 7.997-16.049 12.191-5.484 5.197 5.035 25.226 14.661 18.35z" fill="#92a6a8"/><path d="m173.305 431.14c.094-.217.134-.451.205-.675.04-.136.091-.263.123-.405.777-3.021-.267-6.495-1.786-9.317-.045-.084-.09-.167-.136-.251-.366-.66-.747-1.294-1.14-1.858-1.479-2.121-3.539-4.259-6.021-5.235-.105-.043-.205-.063-.309-.101-.223-.078-.444-.163-.674-.221-.043-.011-.081-.003-.124-.012-1.262-.313-2.438-.237-3.423.29-1.192.502-2.324 1.819-3.619 1.819-3.294 2.073-6.588 4.145-9.882 6.218-2.115 1.331-3.279 2.287-3.453 5.021-.226 3.537 1.281 7.177 3.269 10.028 1.815 2.602 4.714 5.509 8.086 5.741 2.075.143 4.025-.887 5.788-1.935.251-.149.498-.299.742-.445 0-.753 6.439-3.876 7.296-4.392 1.291-.777 2.66-1.472 3.729-2.477.08-.066.176-.098.252-.172.043-.041.067-.102.108-.145.063-.07.11-.156.171-.229.267-.32.501-.67.686-1.069.031-.067.083-.11.112-.178z" fill="#a6bdbf"/><g><path d="m144.678 422.305c2.703-2.613 7.83-.526 11.452 4.666 3.618 5.186 4.359 11.513 1.656 14.126-2.706 2.616-7.833.528-11.451-4.658-3.622-5.192-4.363-11.518-1.657-14.134z" fill="#8ea1a3"/></g><g><path d="m147.358 426.148c1.598-1.544 4.628-.311 6.768 2.757 2.138 3.065 2.576 6.805.979 8.349-1.599 1.546-4.63.312-6.767-2.753-2.141-3.068-2.579-6.807-.98-8.353z" fill="#4e5859"/></g></g></g></g><path d="m246.359 339.053c-11.868-5.128-28.235-5.128-40.103 0-1.241.538-2.443 1.142-3.587 1.803s-2.191 1.355-3.142 2.083c-8.881 6.852-8.881 16.302 0 23.154.931.717 1.978 1.411 3.122 2.072s2.346 1.265 3.607 1.814c11.868 5.128 28.235 5.128 40.083-.011 1.26-.548 2.463-1.153 3.607-1.814s2.191-1.355 3.122-2.071c8.901-6.841 8.901-16.291.02-23.143-.95-.728-1.998-1.422-3.142-2.083-1.144-.662-2.347-1.267-3.587-1.804zm-7.699 4.445-12.353 7.132-12.353-7.132c7.486-2.799 17.221-2.799 24.706 0zm-31.415 3.896 12.333 7.121-12.353 7.132c-4.847-4.322-4.867-9.931.02-14.253zm6.729 18.127 12.333-7.12 12.333 7.12c-7.465 2.81-17.2 2.81-24.666 0zm31.415-3.874-12.353-7.132 12.333-7.121c4.888 4.322 4.868 9.931.02 14.253z" fill="#c1dbde"/><path d="m379.894 375.799v-7.301l-46.092 26.611v7.302z" fill="#525c61"/></g><path d="m362.999 297.049c-3.287-7.275-46.175-33.62-54.499-27.065-8.771 8.232-47.73 18.359-41.531 35.202-2.78 9.487 39.973 30.059 48.01 31.876 9.81-.624 14.475-7.265 32.607-16.63 15.938-9.948 15.937-4.632 15.413-23.383z" fill="#525c61"/><path d="m360.447 299.981-38.976 22.503c-3.583 2.069-9.392 2.069-12.974 0l-38.976-22.503c-3.583-2.069-3.583-5.422 0-7.491l38.976-22.503c3.583-2.069 9.392-2.069 12.974 0l38.976 22.503c3.583 2.069 3.583 5.423 0 7.491z" fill="#77888f"/><path d="m289.026 324.365c-.88-14.716-39.651-16.689-36.63 3.85 2.117 18.403 43.988 27.087 36.63-3.85z" fill="#3c4447"/><path d="m283.745 316.173c7.191 4.152 7.191 10.883 0 15.035s-18.849 4.152-26.041 0c-7.191-4.152-7.191-10.883 0-15.035 7.192-4.152 18.85-4.152 26.041 0z" fill="#475054"/><path d="m260.665 323.69c.432-11.749.638-23.497.936-35.245l.535-35.245c.13-5.897.041-11.65.248-17.857.19-6.094.636-12.136 1.167-18.046.954-11.791 2.616-23.286.756-32.995-.926-4.845-2.44-9.317-5.157-13.379-2.722-4.044-5.951-7.965-10.069-11.407-3.844-3.554-8.592-6.985-13.178-10.365-4.656-3.367-9.454-6.604-14.284-9.809-19.346-12.81-39.402-24.754-59.911-35.796-5.639-3.256 4.421-20.68 10.06-17.424 20.174 12.474 40.141 25.221 59.671 38.816 4.882 3.405 9.695 6.929 14.523 10.495 4.825 3.636 9.618 7.118 14.395 11.556 4.847 4.164 9.245 9.349 12.959 15.093 3.766 5.778 6.12 12.666 7.28 19.334 2.167 13.57.411 25.724-.375 37.267-1.048 11.649-1.129 22.53-.907 34.517l.536 35.245c.297 11.749.504 23.497.935 35.245 0 5.28-20.12 5.28-20.12 0z" fill="#7492a1"/><g><g><path d="m162.505 104.159c-3.513-2.028-2.397-7.656.128-12.026 2.522-4.37 6.838-8.151 10.351-6.126l-.419.727c-1.667-.965-3.474-.179-4.689.65-1.628 1.104-3.232 2.937-4.519 5.167-1.287 2.229-2.073 4.535-2.214 6.496-.108 1.468.114 3.423 1.781 4.385z" fill="#86a9ba"/></g><g><path d="m166.481 106.399c-3.369-1.898-2.416-7.116.02-11.445 2.646-4.697 7.106-8.445 10.574-6.502l-.413.73c-2.967-1.675-6.988 1.85-9.428 6.184-2.161 3.837-3.189 8.696-.34 10.302z" fill="#86a9ba"/></g><g><path d="m170.391 108.621c-1.5-.822-2.23-2.411-2.112-4.598.101-1.843.815-4.064 2.017-6.25 2.688-4.899 7.257-8.845 10.8-6.896l-.406.733c-3.019-1.659-7.233 2.142-9.66 6.566-1.14 2.078-1.821 4.17-1.913 5.893-.101 1.867.465 3.151 1.68 3.818z" fill="#86a9ba"/></g><g><path d="m174.229 110.825c-2.689-1.438-2.774-5.459-.216-10.25 2.659-4.973 7.433-9.215 11.029-7.292l-.393.74c-3.025-1.611-7.394 2.271-9.896 6.949-1.899 3.556-2.675 7.753-.131 9.113z" fill="#86a9ba"/></g><g><path d="m177.995 113.004c-3.101-1.61-2.21-6.035-.337-9.641 2.718-5.243 7.676-9.562 11.262-7.697l-.386.743c-3.065-1.605-7.656 2.566-10.132 7.34-1.607 3.096-2.577 7.183-.02 8.511z" fill="#86a9ba"/></g><g><path d="m181.685 115.164c-1.202-.606-1.883-1.747-1.971-3.301-.226-3.949 3.488-10.26 7.637-12.983 2.011-1.315 3.851-1.616 5.371-.855l-.38.75c-1.526-.776-3.314.009-4.529.807-3.874 2.539-7.469 8.598-7.26 12.233.069 1.256.58 2.13 1.513 2.598z" fill="#86a9ba"/></g><g><path d="m185.301 117.295c-2.374-1.157-2.587-4.309-.58-8.432 2.292-4.696 7.787-10.429 11.727-8.501l-.367.753c-3.058-1.488-8.131 3.047-10.604 8.117-1.375 2.818-2.046 6.218.19 7.311z" fill="#86a9ba"/></g><g><path d="m188.837 119.403c-1.11-.526-1.758-1.526-1.873-2.893-.301-3.635 3.357-9.806 7.528-12.699 2.119-1.472 4.057-1.868 5.603-1.14l-.36.76c-1.578-.748-3.464.165-4.765 1.067-3.896 2.702-7.446 8.618-7.171 11.941.088 1.067.56 1.809 1.398 2.204z" fill="#86a9ba"/></g><g><path d="m192.298 121.479c-1.143-.521-1.781-1.544-1.847-2.96-.052-1.195.308-2.68 1.041-4.296 2.273-5.002 8.151-11.104 12.172-9.271l-.347.763c-3.124-1.413-8.704 3.674-11.062 8.855-.678 1.495-1.012 2.848-.966 3.912.049 1.097.504 1.849 1.356 2.235z" fill="#86a9ba"/></g><g><path d="m195.678 123.527c-1.031-.452-1.647-1.324-1.782-2.526-.406-3.653 3.537-9.511 7.339-12.31 2.279-1.675 4.326-2.181 5.914-1.49l-.334.77c-1.297-.571-3.098-.065-5.082 1.397-3.939 2.898-7.342 8.508-7.001 11.54.101.914.521 1.518 1.28 1.851z" fill="#86a9ba"/></g><g><path d="m198.972 125.543c-1.932-.814-2.296-3.058-.992-6.16 2.141-5.1 8.504-11.655 12.578-9.963l-.327.773c-3.223-1.349-9.29 4.306-11.478 9.515-.645 1.534-1.431 4.232.547 5.063z" fill="#86a9ba"/></g><g><path d="m202.185 127.526c-1.827-.735-2.22-2.792-1.077-5.642 2.056-5.115 8.708-11.9 12.771-10.279l-.314.779c-3.275-1.328-9.578 4.586-11.678 9.812-.556 1.384-1.215 3.817.612 4.55z" fill="#86a9ba"/></g><g><path d="m205.315 129.472c-.92-.352-1.487-1.059-1.644-2.045-.501-3.137 3.134-8.462 6.841-11.466 2.558-2.078 4.909-2.853 6.599-2.207l-.301.783c-1.375-.532-3.491.227-5.77 2.074-3.822 3.098-6.939 8.19-6.539 10.685.108.691.475 1.148 1.117 1.393z" fill="#86a9ba"/></g><g><path d="m208.354 131.383c-.959-.351-2.397-1.428-1.205-4.703 1.841-5.056 9.029-12.287 13.112-10.814l-.288.789c-3.285-1.198-10.214 5.305-12.034 10.312-.495 1.357-.773 3.09.704 3.626z" fill="#86a9ba"/></g><g><path d="m211.308 133.253c-.852-.293-1.392-.904-1.559-1.765-.534-2.739 2.859-7.668 6.303-10.666 1.657-1.441 4.791-3.723 7.267-2.882l-.275.792c-1.5-.514-3.854.474-6.441 2.722-3.687 3.206-6.448 7.728-6.032 9.873.111.566.442.936 1.012 1.133z" fill="#86a9ba"/></g><g><path d="m214.173 135.085c-.822-.267-1.349-.833-1.519-1.637-.56-2.615 2.652-7.193 5.956-10.175 3-2.708 5.8-3.907 7.673-3.301l-.256.799c-1.578-.509-4.126.66-6.854 3.124-3.563 3.213-6.12 7.419-5.701 9.377.108.509.423.841.956 1.014z" fill="#86a9ba"/></g><g><path d="m216.94 136.873c-.737-.223-1.231-.694-1.438-1.364-.177-.579-.138-1.303.121-2.151 1.421-4.691 9.382-12.647 13.535-11.393l-.243.802c-3.393-1.033-11.091 6.223-12.49 10.833-.21.686-.249 1.246-.121 1.663.121.401.409.665.878.807z" fill="#86a9ba"/></g><g><path d="m219.616 138.617c-.763-.215-1.261-.699-1.438-1.4-.563-2.212 2.237-6.196 5.076-8.963 1.267-1.236 5.635-5.21 8.688-4.34l-.229.806c-3.445-.971-11.353 6.433-12.624 10.946-.171.604-.193 1.092-.066 1.452.121.346.39.571.822.694z" fill="#86a9ba"/></g><g><path d="m222.203 140.318c-1.248-.324-1.739-1.372-1.35-2.873 1.13-4.357 9.569-12.716 13.774-11.63l-.21.812c-3.438-.897-11.645 6.754-12.752 11.027-.403 1.554.432 1.77.747 1.852z" fill="#86a9ba"/></g><g><path d="m224.688 141.969c-.901-.213-1.241-.764-1.369-1.19-.544-1.817 1.683-5.033 3.949-7.435 3.085-3.27 7.388-6.261 9.948-5.672l-.196.815c-1.932-.462-5.695 1.777-9.143 5.431-2.564 2.72-4.107 5.441-3.756 6.62.062.201.206.485.756.616z" fill="#86a9ba"/></g><g><path d="m227.072 143.572c-.586-.124-1.002-.413-1.231-.853-.203-.394-.242-.892-.118-1.482.848-3.982 9.693-12.671 13.983-11.759l-.177.819c-3.523-.73-12.165 7.26-12.987 11.116-.082.394-.069.704.042.92.111.211.328.349.665.421z" fill="#86a9ba"/></g><g><path d="m229.361 145.125c-.839-.159-1.169-.633-1.3-1.005-.554-1.58 1.467-4.259 2.718-5.716 2.859-3.327 8.249-7.745 11.314-7.172l-.157.825c-3.425-.663-12.421 7.556-13.096 11.121-.062.334-.043.594.063.771.105.178.304.293.616.35z" fill="#86a9ba"/></g><g><path d="m231.549 146.625c-1.015-.167-1.503-.856-1.333-1.891.553-3.383 9.228-11.836 13.672-11.836.17 0 .334.013.494.038l-.137.829c-3.451-.581-12.647 7.699-13.203 11.104-.092.578.088.839.645.929z" fill="#86a9ba"/></g><g><path d="m233.632 148.071c-.491-.069-.855-.26-1.084-.568-.22-.295-.298-.676-.236-1.131.491-3.551 9.627-11.81 13.862-11.81.134 0 .262.008.39.025l-.118.831c-.098-.015-.203-.021-.311-.021-3.723 0-12.558 7.946-12.991 11.09-.033.231-.006.404.075.517.092.121.268.2.531.236z" fill="#86a9ba"/></g><g><path d="m235.613 149.46c-.465-.051-.812-.215-1.042-.485-.223-.267-.311-.617-.265-1.038.367-3.288 9.942-11.772 14.042-11.772.102 0 .197.005.291.016l-.092.832c-3.425-.411-13.086 8.096-13.407 11.017-.023.185.003.321.075.406.105.124.324.172.488.191z" fill="#86a9ba"/></g><g><path d="m237.486 150.792c-.737-.063-1.048-.408-1.183-.688-.295-.627-.013-1.546.865-2.81 2.584-3.72 9.801-9.587 13.216-9.587.076 0 .151.003.226.01l-.072.835c-.055-.004-.117-.006-.18-.006-3.625 0-13.102 8.299-13.325 10.95-.02.216.046.285.069.308.075.08.236.134.455.152z" fill="#86a9ba"/></g><g><path d="m239.251 152.066c-.717-.039-1.025-.358-1.156-.619-.269-.532-.076-1.289.596-2.317 2.325-3.558 10.135-9.937 13.632-9.937.049 0 .098.002.148.003l-.046.839c-.039-.003-.079-.003-.118-.003-3.576 0-13.354 8.377-13.489 10.859-.01.159.04.203.056.22.069.064.223.108.423.118z" fill="#86a9ba"/></g><g><path d="m240.908 153.276c-.56-.014-.94-.2-1.133-.553-.246-.45-.115-1.076.393-1.911 2.089-3.412 10.485-10.198 13.989-10.198h.065l-.02.839c-.016 0-.033 0-.052 0-2.944 0-11.177 6.379-13.266 9.796-.399.655-.422.982-.373 1.074.026.049.15.108.415.115z" fill="#86a9ba"/></g><g><path d="m242.437 154.426c-1.123 0-1.215-.74-1.218-.968-.007-1.48 3.17-4.545 5.894-6.719 2.875-2.297 6.684-4.756 8.747-4.768l.007.838c-3.468.018-13.82 8.563-13.81 10.644.043.084.131.135.38.135h.01l.007.838c-.007 0-.01 0-.017 0z" fill="#86a9ba"/></g><g><path d="m243.796 155.511c-1.012 0-1.117-.655-1.123-.859-.066-1.772 4.929-5.778 5.93-6.564 2.911-2.282 6.749-4.75 8.783-4.825l.033.838c-3.039.113-11.347 6.579-13.456 9.583-.478.681-.455.929-.452.955h.003c.01 0 .088.052.34.033l.033.839c-.032 0-.061 0-.091 0z" fill="#86a9ba"/></g><g><path d="m245.041 156.53c-.904 0-1.019-.576-1.032-.763-.167-2.382 11.167-11.027 14.788-11.28l.059.835c-2.865.201-11.078 6.386-13.403 9.318-.537.676-.603.967-.609 1.048.03-.007.076.003.174.003.036 0 .078 0 .128-.003l.059.835c-.06.005-.112.007-.164.007z" fill="#86a9ba"/></g><g><path d="m247.084 158.27c-.776 0-.914-.463-.937-.676-.154-1.468 4.568-5.15 6.019-6.242 2.98-2.247 6.87-4.719 8.845-4.925l.085.835c-3.684.383-13.773 8.66-14.107 10.165.049.006.125.005.249-.005l.085.835c-.085.008-.164.013-.239.013z" fill="#86a9ba"/></g><g><path d="m249.903 160.862c-.144 0-.265-.018-.373-.054-.262-.087-.432-.286-.468-.545-.183-1.308 4.185-4.686 6.071-6.078 3.013-2.222 6.922-4.693 8.864-4.964l.118.832c-3.445.48-13.475 8.389-14.186 9.971.046-.002.102-.005.173-.016l.118.832c-.114.014-.218.022-.317.022z" fill="#86a9ba"/></g><g><path d="m252.441 163.436c-.098 0-.19-.01-.268-.03-.265-.065-.449-.253-.494-.501-.338-1.917 11.903-10.363 15.011-10.911l.144.825c-3.294.583-13.171 8.012-14.235 9.767.023-.003.049-.008.079-.013l.144.825c-.142.025-.269.038-.381.038z" fill="#86a9ba"/></g><g><path d="m254.701 165.998c-.059 0-.118-.005-.17-.013-.272-.046-.465-.216-.517-.458-.37-1.724 11.936-10.098 15.08-10.774l.177.819c-3.147.678-12.988 7.846-14.297 9.603l.167.768c-.172.037-.316.055-.44.055z" fill="#86a9ba"/></g><g><path d="m256.698 168.554c-.026 0-.052-.002-.078-.003-.413-.033-.521-.328-.544-.416-.425-1.668 12.447-9.942 15.155-10.633l.21.812c-3.216.819-13.118 7.869-14.419 9.518l.167.647c-.199.051-.356.075-.491.075z" fill="#86a9ba"/></g><g><path d="m258.451 171.107c-.419 0-.534-.283-.56-.372-.465-1.562 13.004-9.825 15.227-10.486l.236.802c-3.144.935-13.19 7.886-14.527 9.423l.157.533c-.223.067-.39.098-.53.098h-.003z" fill="#86a9ba"/></g><g><path d="m259.964 173.668c-.144 0-.266-.038-.367-.128l-.154-.463c.259-1.308 12.506-9.122 15.319-10.076l.268.793c-3.088 1.049-13.23 7.866-14.638 9.318l.147.431c-.222.075-.412.125-.575.125z" fill="#86a9ba"/></g><g><path d="m261.263 176.238c-.321 0-.432-.221-.462-.298-.488-1.268 13.787-9.57 15.378-10.183l.301.783c-3.049 1.174-13.23 7.822-14.739 9.208l.128.334c-.203.077-.353.122-.455.141-.056.01-.105.015-.151.015z" fill="#86a9ba"/></g><g><path d="m262.361 178.824c-.285 0-.393-.195-.426-.267-.163-.381-.272-.633 6.566-4.909 3.052-1.908 7.211-4.393 8.884-5.117l.334.769c-3.026 1.308-13.194 7.753-14.834 9.091l.105.244c-.186.081-.327.133-.422.157-.08.023-.149.032-.207.032z" fill="#86a9ba"/></g><g><path d="m263.254 181.432c-.236 0-.344-.157-.386-.241-.203-.421-.256-.533 6.654-4.745 3.075-1.872 7.24-4.336 8.871-5.123l.367.756c-2.898 1.396-13.118 7.674-14.926 8.971l.076.155c-.173.083-.301.139-.39.172-.102.039-.191.055-.266.055z" fill="#86a9ba"/></g><g><path d="m263.948 184.074c-.134 0-.242-.064-.327-.224-.236-.441-.236-.441 6.746-4.583 3.091-1.833 7.263-4.275 8.855-5.125l.393.74c-2.643 1.41-12.984 7.55-15.011 8.848l.039.072c-.275.148-.508.272-.695.272z" fill="#86a9ba"/></g><g><path d="m264.424 186.693c-.128 0-.171-.07-.22-.154-.095-.165-.131-.409.252-.637l.331-.197.007.012c2.2-1.256 12.395-7.144 15.083-8.724l.426.724c-9.978 5.86-13.665 8.022-15.096 8.703l.006.01c-.249.145-.38.223-.413.244l-.039-.061c-.154.055-.259.08-.337.08z" fill="#86a9ba"/></g><g><path d="m264.849 189.421c-.023 0-.043-.003-.055-.01l-.229-.355c-.013-.272.157-.38.606-.67l.059.092c2.122-1.056 12.611-6.96 15.152-8.598l.452.704c-.131.087-12.667 7.586-15.499 8.699-.023.015-.039.028-.049.038l-.013-.015c-.198.075-.339.115-.424.115z" fill="#86a9ba"/></g><g><path d="m265.17 192.186c-.03 0-.056-.005-.076-.013l-.249-.352c-.026-.282.177-.439.566-.712l.115.162c2.011-.881 12.608-6.623 15.215-8.46l.485.684c-.799.563-14.658 8.691-16.056 8.691z" fill="#86a9ba"/></g><g><path d="m265.34 194.93c-.125 0-.213-.028-.255-.085-.056-.074-.22-.34.095-.668.069-.072.183-.172.347-.298l.177.233c1.971-.722 12.666-6.324 15.273-8.323l.511.665c-.138.104-13.957 8.476-16.148 8.476z" fill="#86a9ba"/></g><g><path d="m265.435 197.807c-.144 0-.245-.029-.295-.092-.062-.072-.232-.329.043-.673.068-.084.18-.198.35-.339l.249.298c1.955-.59 12.811-6.091 15.319-8.18l.537.645c-1.329 1.109-13.969 8.341-16.203 8.341z" fill="#86a9ba"/></g><g><path d="m265.445 200.751c-.167 0-.288-.035-.35-.105-.062-.069-.246-.319-.006-.676.072-.108.183-.229.35-.38l.324.361c1.971-.472 12.942-5.847 15.365-8.036l.563.622c-1.625 1.465-13.852 8.214-16.246 8.214z" fill="#86a9ba"/></g><g><path d="m265.393 203.762c-.2 0-.344-.038-.422-.118-.065-.065-.259-.309-.056-.678.069-.125.18-.26.351-.426l.409.422c2.024-.373 13.043-5.592 15.397-7.89l.583.599c-1.876 1.835-13.695 8.091-16.262 8.091z" fill="#86a9ba"/></g><g><path d="m265.301 206.857c-.246 0-.422-.046-.524-.143-.069-.064-.275-.301-.105-.678.062-.141.173-.291.344-.473l.51.485c2.112-.295 13.125-5.331 15.418-7.744l.609.576c-1.765 1.859-13.413 7.977-16.252 7.977z" fill="#86a9ba"/></g><g><path d="m265.105 210.008c-.265 0-.462-.046-.573-.145-.187-.162-.406-.534.183-1.202l.619.547c2.224-.257 13.292-5.171 15.43-7.599l.629.553c-1.939 2.203-13.358 7.846-16.288 7.846z" fill="#86a9ba"/></g><g><path d="m264.918 213.26c-.305 0-.534-.051-.668-.162-.2-.164-.275-.411-.203-.679.043-.174.151-.362.328-.576l.648.531c-.026.034-.052.064-.069.092h.02c2.027 0 13.426-4.848 15.568-7.468l.648.531c-1.811 2.212-13.122 7.731-16.272 7.731z" fill="#86a9ba"/></g><g><path d="m264.712 216.604c-.337 0-.603-.054-.769-.18-.177-.136-.527-.536.062-1.313l.668.508c-.052.07-.088.125-.111.167.039.007.088.01.144.01 2.103 0 13.501-4.578 15.587-7.322l.668.508c-1.195 1.571-5.279 3.732-8.701 5.232-1.422.618-5.639 2.39-7.548 2.39z" fill="#86a9ba"/></g><g><path d="m264.476 220.053c-.082 0-.161-.003-.232-.01-.439-.041-.731-.205-.858-.488-.21-.45.127-.927.236-1.082l.688.485c-.148.205-.151.29-.151.291.963.611 13.76-4.217 15.869-7.206l.688.485c-1.904 2.689-13.044 7.525-16.24 7.525z" fill="#86a9ba"/></g><g><path d="m264.299 223.575c-.429 0-.763-.064-.972-.203-.17-.111-.672-.542-.082-1.438l.701.462c-.125.19-.141.283-.144.308l.003-.001c.036.001.291.116 1.159-.005 3.707-.506 13.191-4.529 14.808-6.985l.701.462c-1.775 2.696-12.497 7.4-16.174 7.4z" fill="#86a9ba"/></g><g><path d="m264.103 227.233c-.033 0-.069 0-.102-.002-.668-.017-1.087-.198-1.28-.553-.173-.321-.121-.717.161-1.176l.714.439c-.148.241-.134.337-.134.342.003 0 .161.141.959.102 3.563-.239 13.491-4.262 15.106-6.898l.714.439c-1.831 2.993-12.664 7.307-16.138 7.307z" fill="#86a9ba"/></g><g><path d="m263.985 230.989c-.501 0-.914-.07-1.189-.229-.203-.116-.822-.573-.249-1.578l.727.416c-.131.229-.131.339-.128.367.756.465 3.818-.033 8.121-1.727 4.129-1.623 7.286-3.532 8.046-4.863l.727.416c-1.028 1.804-5.049 3.884-8.465 5.228-2.547 1.001-5.717 1.97-7.59 1.97z" fill="#86a9ba"/></g><g><path d="m263.818 234.847c-.524 0-.94-.067-1.215-.215-.226-.118-.914-.589-.347-1.655l.74.393c-.216.408-.092.475 0 .523 2.056 1.095 14.536-3.491 16.148-6.517l.74.393c-1.638 3.081-12.035 7.078-16.066 7.078z" fill="#86a9ba"/></g><g><path d="m263.844 238.863c-.58 0-1.048-.072-1.366-.231-.661-.326-.832-.977-.455-1.739l.753.37c-.233.468-.063.552.072.617 2.302 1.132 14.651-3.288 16.183-6.381l.753.374c-1.532 3.094-11.709 6.99-15.94 6.99z" fill="#86a9ba"/></g><g><path d="m263.985 243.027c-1.081 0-1.768-.229-2.099-.697-.183-.257-.334-.707-.02-1.39l.76.35c-.082.177-.157.416-.059.555.167.234.858.441 2.256.301 4.738-.439 13.014-3.882 14.17-6.394l.76.35c-1.405 3.06-10.25 6.451-14.851 6.878-.331.032-.639.047-.917.047z" fill="#86a9ba"/></g><g><path d="m264.211 247.672c-.707 0-1.297-.085-1.726-.268-.809-.346-1.071-1.066-.704-1.926l.773.331c-.216.503-.069.683.262.825 2.787 1.2 14.808-2.859 16.213-6.135l.773.331c-1.386 3.227-10.967 6.842-15.591 6.842z" fill="#86a9ba"/></g><g><path d="m264.361 252.733c-1.267 0-2.115-.26-2.528-.781-.22-.278-.419-.768-.121-1.518l.779.311c-.18.455-.046.629 0 .686.295.372 1.441.647 3.779.305 4.968-.727 11.854-3.671 12.807-6.073l.779.311c-1.192 2.995-8.769 5.904-13.465 6.592-.766.112-1.444.167-2.03.167z" fill="#86a9ba"/></g><g><path d="m264.584 257.76c-1.189 0-2.247-.206-2.761-.825-.242-.29-.468-.799-.177-1.585l.786.291c-.164.444-.059.645.036.758.38.455 1.801.768 4.703.268 4.931-.845 11.095-3.54 11.959-5.881l.786.292c-1.094 2.963-8.023 5.631-12.605 6.417-.861.147-1.833.265-2.727.265z" fill="#86a9ba"/></g><g><path d="m264.8 262.736c-1.254 0-2.413-.212-2.986-.871-.262-.301-.518-.833-.236-1.655l.792.272c-.163.48-.036.706.075.833.599.686 2.833.765 5.695.21 4.689-.917 10.243-3.347 11.042-5.672l.792.272c-.94 2.743-6.716 5.253-11.671 6.222-.959.186-2.275.389-3.503.389z" fill="#86a9ba"/></g><g><path d="m264.99 267.627c-.819 0-1.529-.082-2.079-.256-.589-.187-1.015-.473-1.261-.853-.278-.426-.327-.94-.141-1.524l.799.252c-.108.339-.095.606.042.814.141.213.413.385.812.513 3.772 1.2 14.998-2.347 16.069-5.728l.799.252c-1.119 3.528-10.072 6.53-15.04 6.53z" fill="#86a9ba"/></g><g><path d="m265.308 272.458c-.868 0-1.634-.083-2.24-.262-.652-.19-1.127-.488-1.415-.883-.223-.309-.442-.843-.213-1.626l.806.236c-.108.372-.082.666.088.899.173.24.498.432.969.57 4.077 1.197 14.972-2.201 15.98-5.645l.806.236c-1.054 3.598-9.689 6.475-14.781 6.475z" fill="#86a9ba"/></g><g><path d="m265.53 277.185c-1.608 0-2.986-.282-3.717-1.015-.341-.342-.694-.948-.439-1.893l.812.219c-.128.46-.056.806.22 1.082 1.032 1.037 4.696 1.01 8.711-.054 4.431-1.175 7.732-3.176 8.22-4.981l.812.22c-.698 2.569-5.01 4.561-8.816 5.572-1.821.483-3.962.85-5.803.85z" fill="#86a9ba"/></g><g><path d="m265.838 281.786c-.897 0-1.706-.08-2.377-.247-2.331-.58-2.351-1.999-2.151-2.793l.812.203c-.078.324-.327 1.312 1.539 1.776 4.539 1.12 14.867-2.023 15.732-5.504l.812.203c-.904 3.638-9.114 6.362-14.367 6.362z" fill="#86a9ba"/></g><g><path d="m266.048 286.251c-.878 0-1.677-.074-2.354-.227-.881-.203-1.543-.534-1.968-.984-.488-.521-.655-1.199-.481-1.962l.819.187c-.115.491-.023.884.275 1.2.308.328.825.576 1.542.74 4.798 1.099 14.762-1.916 15.568-5.446l.819.187c-.83 3.622-8.929 6.305-14.22 6.305z" fill="#86a9ba"/></g><g><path d="m266.385 290.582c-.887 0-1.709-.07-2.423-.22-2.862-.599-2.973-2.202-2.784-3.104l.819.17c-.22 1.06.498 1.77 2.138 2.114 4.503.943 14.586-1.686 15.368-5.395l.819.17c-.766 3.661-8.563 6.265-13.937 6.265z" fill="#86a9ba"/></g><g><path d="m266.703 294.746c-.884 0-1.709-.067-2.44-.205-1.074-.205-1.896-.56-2.436-1.055-.632-.578-.877-1.345-.714-2.217l.825.157c-.111.588.036 1.059.452 1.441.419.383 1.123.676 2.03.85 4.725.904 14.425-1.616 15.135-5.353l.825.158c-.713 3.736-8.278 6.224-13.677 6.224z" fill="#86a9ba"/></g><g><path d="m266.955 298.713c-2.135 0-3.998-.375-5.036-1.241-.73-.611-1.032-1.431-.868-2.376l.825.144c-.111.65.079 1.169.58 1.587 1.827 1.526 7.476 1.377 12.084-.316 2.96-1.087 4.807-2.587 5.072-4.112l.825.144c-.321 1.853-2.312 3.543-5.606 4.755-2.394.88-5.332 1.415-7.876 1.415z" fill="#86a9ba"/></g><g><path d="m267.236 302.518c-2.201 0-4.146-.396-5.279-1.308-.789-.637-1.126-1.496-.969-2.487l.825.131c-.108.694.111 1.253.671 1.703 1.978 1.593 7.944 1.441 12.513-.324 2.777-1.074 4.437-2.494 4.673-3.997l.825.128c-.281 1.813-2.125 3.465-5.197 4.652-2.416.932-5.422 1.502-8.062 1.502z" fill="#86a9ba"/></g><g><path d="m267.521 306.084c-2.272 0-4.309-.406-5.515-1.348-.854-.665-1.228-1.565-1.084-2.602l.831.118c-.105.742.148 1.339.766 1.824 2.164 1.688 8.301 1.529 12.876-.323 2.584-1.046 4.123-2.431 4.326-3.9l.832.115c-.249 1.78-1.968 3.399-4.844 4.564-2.375.961-5.453 1.552-8.188 1.552z" fill="#86a9ba"/></g><g><path d="m267.819 309.419c-2.354 0-4.49-.422-5.76-1.382-.92-.696-1.333-1.638-1.199-2.723l.832.105c-.098.793.187 1.43.871 1.949 2.302 1.735 8.708 1.588 13.194-.309 2.417-1.022 3.844-2.377 4.025-3.819l.832.105c-.219 1.775-1.788 3.327-4.532 4.486-2.349.992-5.463 1.588-8.263 1.588z" fill="#86a9ba"/></g><g><path d="m268.108 312.534c-2.414 0-4.627-.439-5.986-1.438-.992-.727-1.447-1.711-1.323-2.847l.832.092c-.092.845.229 1.526.986 2.079 2.469 1.813 9.012 1.668 13.456-.29 2.272-.999 3.609-2.332 3.766-3.75l.832.092c-.19 1.754-1.663 3.283-4.26 4.426-2.327 1.023-5.455 1.636-8.303 1.636z" fill="#86a9ba"/></g><g><path d="m268.406 315.373c-.596 0-1.172-.026-1.723-.078-1.781-.171-3.265-.604-4.283-1.256-1.212-.773-1.785-1.852-1.663-3.119l.831.078c-.088.948.341 1.733 1.281 2.334.91.581 2.263.971 3.913 1.128 5.721.535 12.797-1.66 13.135-5.2l.832.079c-.377 3.966-7.028 6.034-12.323 6.034z" fill="#86a9ba"/></g><g><path d="m268.684 317.94c-.518 0-1.025-.02-1.513-.06-1.913-.155-3.517-.599-4.641-1.284-1.326-.807-1.968-1.944-1.86-3.286l.838.069c-.085 1.019.406 1.86 1.457 2.502 1.012.616 2.489 1.019 4.274 1.164 5.685.453 12.427-1.706 12.712-5.187l.839.069c-.324 3.958-6.834 6.013-12.106 6.013z" fill="#86a9ba"/></g><g><path d="m269.014 320.22c-.458 0-.904-.017-1.339-.046-2.047-.139-3.776-.593-5.004-1.308-1.444-.845-2.158-2.042-2.063-3.46l.839.059c-.076 1.092.478 1.993 1.65 2.677 1.113.65 2.718 1.064 4.637 1.197 5.616.381 12.044-1.749 12.277-5.177l.838.059c-.281 4.089-6.667 5.999-11.835 5.999z" fill="#86a9ba"/></g><g><path d="m269.365 322.184c-2.724 0-5.299-.526-6.916-1.587-1.319-.863-1.975-2.04-1.899-3.404l.838.046c-.062 1.064.452 1.956 1.52 2.657 3.042 1.993 10.06 1.909 14.173-.169 1.31-.661 2.891-1.818 2.99-3.571l.838.046c-.095 1.705-1.29 3.183-3.451 4.273-2.251 1.138-5.254 1.709-8.093 1.709z" fill="#86a9ba"/></g><g><path d="m269.646 323.832c-2.76 0-5.4-.537-7.096-1.62-1.412-.9-2.126-2.13-2.063-3.556l.838.036c-.049 1.126.514 2.073 1.677 2.814 3.18 2.026 10.25 1.958 14.281-.134 1.257-.653 2.77-1.799 2.845-3.546l.839.036c-.075 1.699-1.215 3.17-3.298 4.254-2.193 1.142-5.173 1.716-8.023 1.716z" fill="#86a9ba"/></g><g><path d="m269.918 325.144c-.232 0-.465-.003-.698-.011-2.384-.077-4.545-.565-6.084-1.372-1.827-.961-2.764-2.338-2.712-3.987l.839.026c-.095 2.924 3.943 4.365 7.984 4.494 2.711.113 5.416-.366 7.46-1.247 1.552-.671 3.416-1.891 3.481-3.895l.838.026c-.128 3.943-5.691 5.966-11.108 5.966z" fill="#86a9ba"/></g><g><path d="m270.197 326.098c-.154 0-.308-.002-.465-.005-4.719-.1-9.444-1.857-9.366-5.557l.838.016c-.065 3.123 4.244 4.612 8.547 4.703 5.076.128 10.42-1.655 10.495-5.133l.839.016c-.085 3.952-5.466 5.96-10.888 5.96z" fill="#86a9ba"/></g><g><path d="m270.452 326.68c-.072 0-.144-.002-.216-.002-2.604-.028-5.007-.527-6.772-1.408-2.086-1.04-3.177-2.543-3.157-4.347l.838.01c-.02 1.844 1.454 2.969 2.692 3.586 1.654.827 3.93 1.295 6.405 1.321.072 0 .144.002.216.002 4.902 0 9.811-1.742 9.847-5.126l.838.01c-.038 3.927-5.373 5.954-10.691 5.954z" fill="#86a9ba"/></g><g><path d="m270.724 326.877c-2.698 0-5.22-.508-7.099-1.426-2.211-1.081-3.38-2.646-3.38-4.527h.839c0 3.358 4.85 5.115 9.64 5.115 4.791 0 9.641-1.757 9.641-5.115h.839c-.001 4.09-5.434 5.953-10.48 5.953z" fill="#86a9ba"/></g></g><path d="m123.721 54.984c-1.688-2.404.399-7.705 4.679-6.589 2.281.595 4.023 2.583 5.194 4.899s1.771 4.948 1.763 6.808c-3.617-1.36-7.504-2.151-11.636-5.118z" fill="#264654"/></g><g><path d="m307.822 475c-4.991 0-10.096-1.117-11.792-5.274-5.039-12.359 19.573-25.417 34.276-33.219 2.76-1.466 4.945-2.623 6.258-3.439 12.185-7.548 23.077-15.381 32.383-23.283 1.317-1.119 2.689-2.25 4.084-3.401 11.225-9.261 23.951-19.758 22.173-35.335-2.174-19.031-17.526-47.301-38.536-59.789-1.466-.873.25-3.755 1.716-2.882 21.891 13.012 37.888 42.464 40.154 62.291 1.981 17.385-11.488 28.498-23.374 38.302-1.382 1.141-2.741 2.261-4.047 3.371-9.428 8.008-20.46 15.939-32.783 23.576-1.411.874-3.638 2.055-6.454 3.55-11.893 6.31-36.637 19.438-32.743 28.989 1.899 4.658 13.777 3.229 19.232 1.804 11.272-2.942 20.483-11.56 28.765-20.432 1.974-2.116 3.936-4.244 5.898-6.374 12.169-13.2 24.75-26.849 40.187-37.122.74-.493 1.555-1.048 2.423-1.642 6.448-4.416 15.309-10.471 22.252-10.117 4.758.236 6.533 2.251 7.185 3.9 1.438 3.649-1.428 8.424-4.316 11.404-4.588 4.729-10.472 7.039-16.164 9.272-2.927 1.15-5.953 2.338-8.708 3.833-10.243 5.562-19.494 13.759-26.05 23.08-3.641 5.176-3.441 7.253-2.996 8.03.478.838 2.354 2.163 9.51 1.581 19.009-1.519 39.817-20.349 53.921-35.879 1.791-1.971 4.388-4.319 7.135-6.806 7.106-6.433 16.842-15.244 17.127-22.142.19-4.508-6.409-8.83-10.78-9.434-1.418-.195-.959-3.516.458-3.321 5.626.778 13.95 6.317 13.675 12.894-.347 8.303-10.263 17.277-18.23 24.488-2.685 2.43-5.223 4.727-6.903 6.577-14.513 15.976-36.031 35.358-56.134 36.966-7.07.555-11.098-.471-12.693-3.261-1.53-2.684-.524-6.376 3.166-11.622 6.848-9.736 16.508-18.294 27.196-24.098 2.934-1.593 6.058-2.82 9.081-4.007 5.606-2.201 10.902-4.278 14.979-8.486 2.715-2.797 4.263-6.168 3.605-7.84-.524-1.324-2.587-1.7-4.227-1.78-5.973-.229-14.481 5.621-20.195 9.534-.881.603-1.706 1.167-2.456 1.667-15.103 10.05-27.547 23.548-39.581 36.603-1.968 2.135-3.933 4.269-5.914 6.391-8.623 9.241-18.27 18.228-30.369 21.388-.424.112-5.837 1.494-11.394 1.494z" fill="#1c1c1c"/></g></g></svg>