<svg id="&#x421;&#x43B;&#x43E;&#x439;_1" enable-background="new 0 0 16 16" viewBox="0 0 16 16" xmlns="http://www.w3.org/2000/svg"><g fill="rgb(0,0,0)"><path d="m8 2.375c.0957031 0 .1923828-.0366211.265625-.1098633l.2998047-.2998047c.1455078-.1464844.1455078-.3837891 0-.5302734-.1464844-.1464844-.3847656-.1464844-.53125 0l-.2998047.2998047c-.1455078.1464844-.1455078.3837891 0 .5302734.0732422.0732422.1699219.1098633.265625.1098633z"/><path d="m13.5 2.125h-1.625v-1.25h1.625c.2070313 0 .375-.1679688.375-.375s-.1679687-.375-.375-.375h-2-7c-.2070313 0-.375.1679688-.375.375v.625h-1.625c-.2070313 0-.375.1679688-.375.375s.1679688.375.375.375h1.625v1.8212891c-.9036255.6062622-1.5 1.6362915-1.5 2.8037109v4c0 1.3118286.7598877 2.4388428 1.855835 2.9970703l-.3499756 1.9360352c-.0195313.109375.0097656.222168.0810547.3071289.071289.0854492.1767578.1347656.2880859.1347656h7c.1113281 0 .2167969-.0493164.2880859-.1347656.0712891-.0849609.1005859-.1977539.0810547-.3071289l-.3499756-1.9360352c1.0960083-.5582275 1.855835-1.6852417 1.855835-2.9970703v-4c0-1.1674194-.5963745-2.1974487-1.5-2.8037109v-.8212891h1.625c.2070313 0 .375-.1679688.375-.375s-.1679687-.375-.375-.375zm-4.375-.125c0 .6201172-.5048828 1.125-1.125 1.125s-1.125-.5048828-1.125-1.125.5048828-1.125 1.125-1.125 1.125.5048828 1.125 1.125zm-4.25-1.125h1.6344604c-.237915.3143921-.3844604.7012939-.3844604 1.125s.1465454.8106079.3844604 1.125h-.5094604c-.3964233 0-.7713623.0812378-1.125.2073364zm6.1757813 14.25h-6.1015625l.2453003-1.3579102c.2593994.064087.5264892.1079102.8054809.1079102h4c.2789917 0 .5460815-.0438232.805481-.1079102zm1.5742187-8.625v4c0 1.4472656-1.1777344 2.625-2.625 2.625h-4c-1.4472656 0-2.625-1.1777344-2.625-2.625v-4c0-1.4472656 1.1777344-2.625 2.625-2.625h4c1.4472656 0 2.625 1.1777344 2.625 2.625zm-2.625-3.375h-.5094604c.237915-.3143921.3844604-.7012939.3844604-1.125s-.1465454-.8106079-.3844604-1.125h1.6344604v2.4573364c-.3535767-.1260986-.7286377-.2073364-1.125-.2073364z"/></g></svg>