<svg id="Layer_1" height="512" viewBox="0 0 110 110" width="512" xmlns="http://www.w3.org/2000/svg" data-name="Layer 1"><path d="m90.24 93.87a12.07 12.07 0 0 1 -6.33-1.63 11.17 11.17 0 0 0 -10.83 0 13.11 13.11 0 0 1 -12.66 0 11.17 11.17 0 0 0 -10.83 0 12.07 12.07 0 0 1 -6.33 1.63 12.07 12.07 0 0 1 -6.33-1.63 10.16 10.16 0 0 0 -5.41-1.4 10.19 10.19 0 0 0 -5.41 1.4 12 12 0 0 1 -6.33 1.63 12 12 0 0 1 -6.32-1.63 10.2 10.2 0 0 0 -5.46-1.4 1 1 0 1 1 0-2 12 12 0 0 1 6.33 1.63 10.19 10.19 0 0 0 5.41 1.4 10.14 10.14 0 0 0 5.41-1.4 12.07 12.07 0 0 1 6.33-1.63 12.07 12.07 0 0 1 6.33 1.63 10.19 10.19 0 0 0 5.41 1.4 10.16 10.16 0 0 0 5.41-1.4 13.13 13.13 0 0 1 12.67 0 11.15 11.15 0 0 0 10.82 0 13.13 13.13 0 0 1 12.67 0 11.17 11.17 0 0 0 10.83 0 12.07 12.07 0 0 1 6.38-1.63 1 1 0 0 1 0 2 10.19 10.19 0 0 0 -5.41 1.4 12.11 12.11 0 0 1 -6.35 1.63z"/><path d="m90.24 86.29a12.18 12.18 0 0 1 -6.33-1.62 11.1 11.1 0 0 0 -10.83 0 13.18 13.18 0 0 1 -12.66 0 11.1 11.1 0 0 0 -10.83 0 12.18 12.18 0 0 1 -6.33 1.62 12.18 12.18 0 0 1 -6.33-1.62 10.07 10.07 0 0 0 -5.41-1.41 10.09 10.09 0 0 0 -5.41 1.41 12.15 12.15 0 0 1 -6.33 1.62 12.14 12.14 0 0 1 -6.32-1.62 10.11 10.11 0 0 0 -5.46-1.41 1 1 0 1 1 0-2 12.14 12.14 0 0 1 6.33 1.63 10.19 10.19 0 0 0 5.41 1.4 10.14 10.14 0 0 0 5.41-1.4 12.17 12.17 0 0 1 6.33-1.63 12.14 12.14 0 0 1 6.33 1.63 10.19 10.19 0 0 0 5.41 1.4 10.16 10.16 0 0 0 5.41-1.4 13.13 13.13 0 0 1 12.67 0 11.15 11.15 0 0 0 10.82 0 13.13 13.13 0 0 1 12.67 0 11.17 11.17 0 0 0 10.83 0 12.17 12.17 0 0 1 6.38-1.63 1 1 0 0 1 0 2 10.09 10.09 0 0 0 -5.41 1.41 12.22 12.22 0 0 1 -6.35 1.62z"/><path d="m90.24 78.72a12.17 12.17 0 0 1 -6.33-1.63 11.17 11.17 0 0 0 -10.83 0 13.11 13.11 0 0 1 -12.66 0 11.17 11.17 0 0 0 -10.83 0 12.17 12.17 0 0 1 -6.33 1.63 12.17 12.17 0 0 1 -6.33-1.63 10.16 10.16 0 0 0 -5.41-1.4 10.19 10.19 0 0 0 -5.41 1.4 12.14 12.14 0 0 1 -6.33 1.63 12.12 12.12 0 0 1 -6.32-1.63 10.2 10.2 0 0 0 -5.46-1.4 1 1 0 1 1 0-2 12.15 12.15 0 0 1 6.33 1.62 10.18 10.18 0 0 0 5.41 1.41 10.13 10.13 0 0 0 5.41-1.41 12.18 12.18 0 0 1 6.33-1.62 12.18 12.18 0 0 1 6.33 1.62 10.18 10.18 0 0 0 5.41 1.41 10.16 10.16 0 0 0 5.41-1.41 13.2 13.2 0 0 1 12.67 0 11.08 11.08 0 0 0 10.82 0 13.2 13.2 0 0 1 12.67 0 11.1 11.1 0 0 0 10.83 0 12.18 12.18 0 0 1 6.38-1.62 1 1 0 1 1 0 2 10.19 10.19 0 0 0 -5.41 1.4 12.21 12.21 0 0 1 -6.35 1.63z"/><path d="m102 29.25a4.54 4.54 0 0 1 -4.55 4.55h-21.26v-9.09h21.26a4.54 4.54 0 0 1 4.55 4.54z" fill="#efc7a4"/><path d="m97.45 34.8h-21.26a1 1 0 0 1 -1-1v-9.09a1 1 0 0 1 1-1h21.26a5.55 5.55 0 1 1 0 11.09zm-20.26-2h20.26a3.55 3.55 0 1 0 0-7.09h-20.26z"/><path d="m76.19 30.25h-10.75a1 1 0 0 1 0-2h10.75a1 1 0 0 1 0 2z"/><path d="m65.59 23.19c0 15.06-12.22 42.43-27.28 42.43s-27.31-27.37-27.31-42.43z" fill="#66d4f1"/><g opacity=".1"><path d="m65.58 23.2c0 15.06-12.21 42.42-27.27 42.42a12 12 0 0 1 -2.47-.25c13.9-2.74 24.8-27.94 24.8-42.17z"/></g><path d="m38.31 66.62c-7.13 0-14.29-5.71-20.15-16.07-4.94-8.72-8.16-19.46-8.16-27.36a1 1 0 0 1 1-1h54.59a1 1 0 0 1 1 1c0 7.9-3.19 18.64-8.12 27.36-5.87 10.36-13.02 16.07-20.16 16.07zm-26.26-42.43c.26 7.47 3.28 17.3 7.85 25.37 3.18 5.63 9.8 15.06 18.41 15.06s15.24-9.43 18.42-15.06c4.56-8.07 7.59-17.9 7.84-25.37z"/><rect fill="#656d78" height="6.06" rx="3.03" width="60.62" x="8" y="17.13"/><path d="m65.59 24.19h-54.59a4 4 0 1 1 0-8.06h54.59a4 4 0 0 1 0 8.06zm-54.59-6.06a2 2 0 0 0 0 4.06h54.59a2 2 0 0 0 0-4.06z"/><path d="m51.59 45.57-9.65 9.65-8.57-8.58 9.65-9.64 6.43-2.14 4.28-4.29 4.29 4.29-4.29 4.28z" fill="#f4f6f8"/><g opacity=".1"><path d="m58.02 34.85-4.29 4.3-2.14 6.43-9.64 9.64-2.54-2.55 9.64-9.65 2.14-6.43 4.29-4.28z"/></g><path d="m41.94 56.22a1 1 0 0 1 -.7-.3l-8.57-8.57a1 1 0 0 1 -.3-.71 1 1 0 0 1 .3-.7l9.64-9.65a1.11 1.11 0 0 1 .39-.24l6.2-2.05 4.1-4.14a1 1 0 0 1 1.42 0l4.28 4.29a1 1 0 0 1 0 1.41l-4.1 4.12-2.06 6.21a.9.9 0 0 1 -.25.39l-9.64 9.64a1 1 0 0 1 -.71.3zm-7.15-9.58 7.15 7.16 8.77-8.8 2.07-6.2a1 1 0 0 1 .24-.39l3.58-3.58-2.87-2.83-3.58 3.57a1 1 0 0 1 -.39.25l-6.2 2.07z"/><path d="m21.64 30.77h9.09v10.61h-9.09z" fill="#fbd277" transform="matrix(.707 -.707 .707 .707 -17.84 29.08)"/><path d="m26.73 44a1 1 0 0 1 -.71-.3l-7.5-7.5a1 1 0 0 1 0-1.41l6.48-6.39a1 1 0 0 1 1.41 0l7.5 7.5a1 1 0 0 1 0 1.41l-6.43 6.43a1 1 0 0 1 -.75.26zm-6.09-8.5 6.09 6.08 5-5-6.09-6.09z"/></svg>