<svg id="Layer_1" enable-background="new 0 0 512 512" height="512" viewBox="0 0 512 512" width="512" xmlns="http://www.w3.org/2000/svg"><g><path d="m286.906 242.053h-61.811v-238.053c0-2.209 1.791-4 4-4h53.811c2.209 0 4 1.791 4 4z" fill="#5f99d7"/><path d="m256 0v242.053h30.905v-238.053c0-2.209-1.791-4-4-4z" fill="#3c87d0"/><g fill="#d4f2f6"><path d="m124.448 420.587c-4.087-.661-7.94 2.117-8.602 6.206-4.514 27.896-13.242 49.881-29.184 73.51-2.317 3.434-1.411 8.096 2.022 10.412 1.287.868 2.745 1.284 4.188 1.284 2.409 0 4.775-1.159 6.224-3.306 17.006-25.207 26.738-49.726 31.557-79.503.663-4.09-2.116-7.941-6.205-8.603z"/><path d="m177.063 418.508c-4.117-.388-7.785 2.63-8.179 6.754-2.679 28.068-8.316 52.378-17.742 76.507-1.507 3.858.398 8.208 4.257 9.715.896.35 1.819.516 2.727.516 2.999 0 5.831-1.811 6.988-4.773 9.945-25.458 15.889-51.05 18.703-80.54.393-4.123-2.63-7.785-6.754-8.179z"/><path d="m229.687 417.47c-4.125-.138-7.602 3.12-7.732 7.26-.896 28.396-2.864 54.177-6.018 78.816-.526 4.109 2.379 7.866 6.487 8.392.323.041.644.062.961.062 3.718 0 6.946-2.764 7.43-6.549 3.214-25.118 5.22-51.368 6.131-80.248.131-4.14-3.119-7.602-7.259-7.733z"/><path d="m290.046 424.729c-.131-4.14-3.585-7.429-7.732-7.26-4.141.13-7.391 3.593-7.26 7.732.911 28.885 2.917 55.134 6.131 80.248.484 3.786 3.712 6.549 7.43 6.549.317 0 .639-.021.962-.062 4.108-.526 7.013-4.283 6.487-8.392-3.154-24.632-5.121-50.413-6.018-78.815z"/><path d="m343.115 425.262c-.394-4.124-4.054-7.15-8.179-6.754-4.123.394-7.146 4.056-6.753 8.179 2.814 29.489 8.757 55.082 18.702 80.541 1.157 2.962 3.989 4.773 6.988 4.773.907 0 1.831-.166 2.728-.516 3.857-1.507 5.764-5.856 4.257-9.715-9.426-24.13-15.064-48.441-17.743-76.508z"/><path d="m425.338 500.303c-15.942-23.629-24.671-45.614-29.185-73.51-.661-4.088-4.5-6.867-8.602-6.206-4.089.662-6.867 4.513-6.205 8.602 4.817 29.777 14.55 54.297 31.556 79.504 1.449 2.147 3.815 3.306 6.225 3.306 1.443 0 2.901-.416 4.188-1.284 3.433-2.316 4.34-6.978 2.023-10.412z"/></g><path d="m302.358 346.998h-92.716v-96.862c0-8.534 6.918-15.453 15.453-15.453h61.811c8.534 0 15.453 6.918 15.453 15.453v96.862z" fill="#7a6d79"/><path d="m286.906 234.683h-30.906c8.534 0 15.453 6.918 15.453 15.453v96.862h30.905v-96.862c0-8.534-6.918-15.453-15.452-15.453z" fill="#685e68"/><path d="m271.453 346.998h-30.905v-43.292c0-8.534 6.918-15.453 15.453-15.453 8.534 0 15.453 6.918 15.453 15.453v43.292z" fill="#ffd15b"/><path d="m453.795 401.573h-395.59v-30.39c0-23.043 18.68-41.722 41.722-41.722h312.145c23.043 0 41.722 18.68 41.722 41.722v30.39z" fill="#5f99d7"/><path d="m412.073 329.46h-30.905c23.043 0 41.722 18.68 41.722 41.722v30.39h30.905v-30.39c0-23.042-18.68-41.722-41.722-41.722z" fill="#3c87d0"/><path d="m470.278 394.073h-428.556c-4.142 0-7.5 3.358-7.5 7.5s3.358 7.5 7.5 7.5h428.555c4.143 0 7.5-3.358 7.5-7.5s-3.357-7.5-7.499-7.5z" fill="#685e68"/></g></svg>