<svg clip-rule="evenodd" fill-rule="evenodd" height="512" image-rendering="optimizeQuality" shape-rendering="geometricPrecision" text-rendering="geometricPrecision" viewBox="0 0 1707 1707" width="512" xmlns="http://www.w3.org/2000/svg"><g id="Layer_x0020_1"><path d="m768 942c-10 0-19-7-24-17-4-12 3-26 16-30l421-144c151-52 218-118 218-213 0-116-94-210-211-210h-279c-4 2-9 4-14 4-14 0-25-11-25-25v-144c0-13 9-23 21-25 4-4 10-6 16-6h281c224 0 405 182 405 405 0 239-226 344-396 402-3 3-6 3-9 3-9 0-19-7-23-17-1-1-1-2-1-3h-336l-53 19c-3 1-4 1-7 1z" fill="#1ac9f6"/><path d="m768 942c-10 0-19-7-24-17-4-12 3-26 16-30l183-63h480c-71 49-154 82-226 107-3 3-6 3-9 3-9 0-19-7-23-17-1-1-1-2-1-3h-336l-53 19c-3 1-4 1-7 1z" fill="#17b5dd"/><g fill="#1ac9f6" fill-rule="nonzero"><path d="m638 250c-90 71-158 84-203 71-44-14-67-52-67-90s22-76 67-90c44-13 113 0 202 71 11 8 13 23 4 34-1 1-2 2-4 4z"/><path d="m353 387c-88 70-156 83-200 70-44-14-67-52-67-90s23-76 67-90c44-13 112 0 202 71 10 8 12 23 3 34-1 2-3 3-5 5z"/><path d="m354 114c-89 71-157 84-201 70-44-13-67-51-67-89s23-76 67-90c44-13 112 0 202 71 10 8 12 23 3 34-1 1-2 3-4 4z"/></g><g id="_489183936"><path d="m1534 1706c-188 0-975 0-1361 0-65 0-119-54-119-119 0-67 54-121 119-121h1361c65 0 119 54 119 121 0 66-54 119-119 119z" fill="#1ac9f6"/><path d="m1640 1642h-1573c9 16 21 29 35 40 20 15 45 24 71 24h1361c26 0 51-9 71-24 14-10 26-24 35-40z" fill="#17b5dd"/></g><path d="m908 387h-146c-13 0-24-11-24-25v-265c0-13 11-25 24-25h146c14 0 25 12 25 25v265c0 16-11 25-25 25z" fill="#fcbe37"/><g id="_489184152"><path d="m1534 1515c-188 0-975 0-1361 0-65 0-119-54-119-119 0-67 54-121 119-121h1361c65 0 119 54 119 121 0 66-54 119-119 119z" fill="#1ac9f6"/><path d="m1640 1450h-1573c9 16 21 30 35 41 20 15 45 24 71 24h1361c26 0 51-9 71-24 14-11 26-25 35-41z" fill="#17b5dd"/></g><g id="_489183192"><path d="m1534 1325c-188 0-975 0-1361 0-65 0-119-54-119-119 0-67 54-121 119-121h1361c65 0 119 54 119 121 0 66-54 119-119 119z" fill="#1ac9f6"/><path d="m1640 1260h-1573c9 16 21 30 35 41 20 15 45 24 71 24h1361c26 0 51-9 71-24 14-11 26-25 35-41z" fill="#17b5dd"/></g><g id="_489182616"><path d="m1534 1132c-188 0-975 0-1361 0-65 0-119-54-119-119 0-67 54-121 119-121h1361c65 0 119 54 119 121 0 66-54 119-119 119z" fill="#1ac9f6"/><path d="m1640 1067h-1573c9 16 21 30 35 41 20 15 45 24 71 24h1361c26 0 51-9 71-24 14-11 26-24 35-41z" fill="#17b5dd"/></g></g></svg>